<?xml version="1.0" encoding="utf-8"?>
<!-- Generator: Adobe Illustrator 22.0.0, SVG Export Plug-In . SVG Version: 6.00 Build 0)  -->
<svg version="1.1" id="Layer_1" xmlns="http://www.w3.org/2000/svg" xmlns:xlink="http://www.w3.org/1999/xlink" x="0px" y="0px"
	 viewBox="0 0 425.2 425.2" style="enable-background:new 0 0 425.2 425.2;" xml:space="preserve">
<style type="text/css">
	.st0{fill:#7E2E83;}
	.st1{fill:#FAC480;}
	.st2{fill:#7CAAFF;}
	.st3{fill:#FF947E;}
	.st4{fill:#E5E8ED;}
	.st5{opacity:0.11;fill:#241352;}
	.st6{fill:#FFFFFF;}
	.st7{fill:#FFB9B4;}
	.st8{fill:url(#SVGID_1_);}
	.st9{fill:#76417F;}
	.st10{fill:#241352;}
	.st11{opacity:0.32;}
	.st12{fill:#9A9AA1;}
	.st13{opacity:0.18;}
	.st14{fill:#EEEDF2;}
	.st15{opacity:0.12;}
	.st16{opacity:0.25;}
	.st17{opacity:0.22;}
	.st18{fill:#FF7180;}
	.st19{opacity:0.28;}
	.st20{fill:url(#SVGID_2_);}
</style>
<g>
	<g>
		<path class="st0" d="M338,202c0.4-3,0.3-6,2.3-8.4c2.4-2.9,6.2-3.5,9.5-2c4.7,2.2,8.4,4.9,13.8,3.4c8.3-2.3,14-15.1,5.7-20.7
			c-1.7-1.2-4.7,0.4-4.4,2.5c0.4,2.9,1.9,5.7,0.3,8.5c-2,3.5-5.7,3.5-9,1.9c-4.4-2.1-8.1-4-13.1-2.6c-7.4,1.9-13.9,11.9-7.9,18.6
			C336.3,204.3,337.9,203.3,338,202L338,202z"/>
	</g>
</g>
<g>
	<g>
		<path class="st1" d="M32.8,310.4c-0.5,5,2.9,10.6,5.4,14.8c2.3,3.9,5,9.5,9.6,11c5.1,1.7,9.3-2.7,13-5.4
			c5.2-3.9,10.2-7.9,15.3-11.8c2-1.5,2.1-5,0.9-7.1c-4.8-8-9.5-15.9-14.3-23.9c-1.5-2.4-5.5-4-8-2.1c-5.8,4.5-13.2,8.7-17.9,14.3
			c-4,4.8,0.9,11.2,6.6,8.5c6.2-2.9,11.8-8.6,17.2-12.7c-2.7-0.7-5.3-1.4-8-2.1c4.8,8,9.5,15.9,14.3,23.9c0.3-2.4,0.6-4.7,0.9-7.1
			c-3.5,2.7-7,5.4-10.4,8.1c-1.5,1.2-2.9,2.3-4.4,3.5c-1,0.8-1.9,1.6-2.9,2.4c1.3,1.1,1.5,1.2,0.8,0.4c-0.2-1.3-2.7-3.5-3.6-4.7
			c-1.2-1.5-2.4-3.1-3.6-4.6c-2.1-2.7-4.4-5.8-7.5-7.3C34.6,307.7,33,308.6,32.8,310.4L32.8,310.4z"/>
	</g>
</g>
<g>
	<g>
		<path class="st2" d="M315.1,127.7c-4.5,4.3-6.3,10.8-2,16c4,4.9,11.7,5.9,16.8,2.1c12-9.1-0.4-27.1-13.4-23
			c-2.8,0.9-2.1,4.7,0.7,5c3.6,0.3,7.4,0.3,10.3,2.8c3,2.6,3.1,7.1,0.6,10.1c-6.5,8-17.8-4-11.1-11.1
			C317.9,128.3,316.2,126.6,315.1,127.7L315.1,127.7z"/>
	</g>
</g>
<g>
	<g>
		<path class="st3" d="M378.6,56.4c6.4-4.4,12.5-9.1,18.5-14.2c5.9-5,13.3-9.9,18.1-16c3.4-4.4-0.8-11.7-6.4-8.3
			c-6.5,4-12,10.5-17.6,15.6c-5.9,5.5-11.6,11.1-16.9,17.2C371.9,53.7,375.1,58.9,378.6,56.4L378.6,56.4z"/>
	</g>
</g>
<g>
	<g>
		<path class="st3" d="M423.3,117.7c-0.2-0.6-0.4-1.2-0.9-1.6c-0.3-0.3-0.6-0.5-1-0.7c-1.2-0.7-2.9-0.6-3.9,0.5
			c-1,1.1-1.2,2.6-0.5,3.9c0.2,0.3,0.4,0.7,0.7,1c0.5,0.4,1,0.7,1.6,0.9c1,0.4,2.4-0.1,3.2-0.8C423.2,120.1,423.7,118.7,423.3,117.7
			L423.3,117.7z"/>
	</g>
</g>
<g>
	<path class="st4" d="M2.9,70.3c0,3,71.7,232.5,71.7,232.5l341.9-14L355.9,70.3H2.9z"/>
	<path class="st5" d="M85.8,212.5c0.9,1.7,9.6,27.8,9.6,27.8l129.5-3.4l-11-24.4H85.8z"/>
	<path class="st5" d="M161.9,167.1c0.7,0.5,8.3,25.8,8.3,25.8H204l-7.8-25.8H161.9z"/>
	<path class="st5" d="M206.6,167.1c0.7,0.5,8.3,25.8,8.3,25.8h33.8l-7.8-25.8H206.6z"/>
	<path class="st5" d="M251.4,167.1c0.7,0.5,8.3,25.8,8.3,25.8h33.8l-7.8-25.8H251.4z"/>
	<path class="st6" d="M50.6,120.3L50.6,120.3c2.7,8.2,10.4,13.7,19.2,13.6l189-2c12.9-0.1,22.2-12,19-24.2l0,0
		c-2.3-8.6-10.3-14.7-19.4-14.6L69.3,95.1C56,95.2,46.6,107.9,50.6,120.3z"/>
	<path class="st7" d="M147.2,209.6l-12.3-21.1l-15.4-10.2c-2-1.3-3.1-3.7-2.7-6l1.8-12.4c0.3-2.1,1.1-4.1,2.4-5.9l3.3-3.5
		c0,0-17-19.7-13.4-20.9c3.7-1.2,22.4,22.3,26.1,22.7s6.6-2,10.2-0.4c3.6,1.6,7.3,11.1,7.3,11.1l2,22.7l6.5,13.5L147.2,209.6z"/>
	<g>
		<path class="st7" d="M324.4,115.4l2.4,54.1c0.5,12.2-9.5,22.3-22,22.3l0,0c-11.6-0.1-21.1-8.9-21.7-20.2l-1.7-30.9L324.4,115.4z"
			/>
		<linearGradient id="SVGID_1_" gradientUnits="userSpaceOnUse" x1="316.0043" y1="488.015" x2="249.9192" y2="123.9675">
			<stop  offset="5.004130e-02" style="stop-color:#00C1CE"/>
			<stop  offset="1" style="stop-color:#82EBA1"/>
		</linearGradient>
		<path class="st8" d="M387.3,299.6l0.2-72.2l-6.4-41.1c-3.3-21.1-24.8-34.6-45.8-28.8l-40.2,11.1c-12.8,3.5-24.8,9.7-35,18
			L198.3,238L160,183.1L136.7,199c0,4.6,28,100.2,54.9,96.8c19.1-2.4,60.5-24.9,79.8-33.4c6.5,13.3,12.4,30.4,12.4,30.4l-3.5,85.2
			c-0.6,15.1,11.7,27.7,27.2,28c35.5,0.5,93.9-5.5,111.9-48.2L387.3,299.6z"/>
		<path class="st7" d="M317.8,81l3.1,19.7c0,0,15.9-1.5,14.8,13.3c-1.1,14.7-13.1,11.1-13.1,11.1s5.7,35.8-33.9,33
			c-31.8-2.3-38.7-40.4-42.5-73.2c-1.4-12.2,8.1-23,20.7-23.4l25.7-0.9C305.1,60.2,315.9,69,317.8,81z"/>
		<path class="st9" d="M274.5,53.5c0,0,32.3-17.4,51.5,3.3c19.2,20.8,19.9,68.3,36.4,77c16.5,8.7,46.7,10,51.5,38.9
			s18.5,30.1,18.5,30.1L403.7,221l-13-6l2.7,12.1l-15.1,6.7l-10.3-6l0.7,14.1c0,0-12.4,17.4-20.6,0c-8.2-17.4-1.4-56.3-15.8-66.3
			c-14.4-10-52.2-10-52.2-48.2c0,0,14.4-4.7,10.3-14.1c-4.1-9.4-15.8-4.7-15.8-4.7s-13.7-4.7-12.4-16.1l-18.9,9.1
			C243.3,101.5,228.3,49.5,274.5,53.5z"/>
	</g>
	<path class="st7" d="M247.5,95.4c0,0,2.3,24.6,4,31.7c0.9,3.7,4,2.3,4,2.3L247.5,95.4z"/>
	<g>
		<path class="st10" d="M282.2,123.5c-0.1-0.2,1.1-0.4,2.2-1.5c0.6-0.5,1.1-1.3,1.1-2.3c0-0.9-0.5-2.1-1.4-2.4
			c-1.1-0.4-2.5,0.3-2.6,1.2l-1.1-0.3c1.2-2.9,2.2-4.8,2.4-4.7c0.2,0.1-0.4,2.1-1.4,5.1l-1.1-0.3c0.2-1.7,2.3-2.8,4.2-2.1
			c1.6,0.7,2.2,2.3,2.1,3.6c-0.1,1.3-0.9,2.3-1.6,2.9C283.4,123.8,282.2,123.7,282.2,123.5z"/>
	</g>
	<g>
		<path class="st10" d="M144.8,157.8c-0.2,0.3-2.6-0.9-5.5-2.7c-2.8-1.8-5-3.4-4.8-3.7c0.2-0.3,2.6,0.9,5.5,2.7
			C142.9,155.9,145,157.6,144.8,157.8z"/>
	</g>
	<g>
		<path class="st10" d="M127.1,167.1c-0.3,0.2-2.1-1.2-4.5-2.7c-2.4-1.5-4.6-2.3-4.5-2.7c0.1-0.3,2.6,0.1,5.2,1.7
			C125.8,165,127.3,166.9,127.1,167.1z"/>
	</g>
	<g>
		<path class="st10" d="M125.3,171.4c-0.1,0.3-2.2,0-4.6-1.2c-2.4-1.1-4-2.6-3.8-2.8c0.2-0.3,2,0.7,4.3,1.7
			C123.5,170.3,125.4,171.1,125.3,171.4z"/>
	</g>
	<g>
		<g>
			<path class="st10" d="M76.1,105.3c0,0.1-0.7-0.2-2-0.4c-1.2-0.2-3.2-0.2-5.2,0.8c-2,1-3.9,3.2-4.2,6c-0.4,2.8,1.2,6.1,4.2,7.6
				c3,1.5,6.7,0.7,8.8-1.2c2.2-2,2.8-4.8,2.4-6.9c-0.4-2.2-1.6-3.7-2.5-4.5C76.7,105.8,76.1,105.4,76.1,105.3c0-0.1,0.8,0.1,1.9,0.9
				c1.1,0.8,2.5,2.3,3,4.7c0.6,2.3,0,5.6-2.5,7.8c-2.3,2.3-6.6,3.3-10.1,1.5c-3.5-1.7-5.3-5.6-4.8-8.8c0.4-3.3,2.7-5.7,4.9-6.6
				c2.3-1,4.4-0.9,5.7-0.5C75.5,104.8,76.1,105.3,76.1,105.3z"/>
		</g>
		<g>
			<path class="st10" d="M76.5,119.6c0.3-0.2,1.5,1,2.8,2.7c1.3,1.7,2.1,3.2,1.8,3.4c-0.3,0.2-1.5-1-2.8-2.7
				C77.1,121.4,76.2,119.8,76.5,119.6z"/>
		</g>
	</g>
	<g class="st11">
		<path class="st10" d="M242.2,118.8c0,0.3-32.9,0.6-73.4,0.6c-40.5,0-73.4-0.3-73.4-0.6c0-0.3,32.9-0.6,73.4-0.6
			C209.4,118.2,242.2,118.5,242.2,118.8z"/>
	</g>
	<path class="st1" d="M72.4,167.1c0.7,0.5,8.3,25.8,8.3,25.8h33.8l-7.8-25.8H72.4z"/>
	<g>
		<path class="st9" d="M435,165.2c0,0-0.6,0.2-1.9,0.3c-1.3,0.1-3.2-0.1-5.5-1c-2.3-1-4.7-2.7-7.1-5.2c-2.4-2.5-4.4-5.9-6.5-9.5
			c-2.2-3.6-4.6-7.7-8.7-10.5c-4.1-2.9-9.5-3.8-15.2-3.9c-5.7-0.2-11.8,0.3-18-1.3c-6.2-1.6-11.8-5.5-16.2-10.4
			c-4.4-4.9-7.6-10.5-10-16.2c-2.4-5.6-4.2-11.2-6-16.5c-3.5-10.5-7.7-19.9-13.6-26c-5.7-6.3-12.1-9.5-16.8-10.6
			c-4.7-1.1-7.4-0.6-7.4-0.8c0,0,0.7-0.1,1.9-0.2c1.3,0,3.2,0,5.6,0.5c4.8,0.9,11.4,4.1,17.3,10.5c3,3.1,5.7,7,7.9,11.5
			c2.3,4.5,4.2,9.5,6.1,14.7c1.9,5.3,3.7,10.8,6.1,16.4c2.4,5.5,5.5,11,9.8,15.8c4.3,4.8,9.6,8.5,15.5,10c5.9,1.6,12,1.1,17.7,1.3
			c5.7,0.1,11.5,1.1,15.7,4.2c4.3,3.1,6.7,7.3,8.8,10.9c2.1,3.7,4,7,6.3,9.5c2.2,2.5,4.6,4.3,6.8,5.2c2.2,1,4,1.2,5.3,1.2
			C434.3,165.3,435,165.1,435,165.2z"/>
	</g>
	<g>
		<path class="st9" d="M339.8,244.8c0,0-2,0.1-5.2-1c-3.2-1.1-7.8-3.8-11-9.1c-1.6-2.6-2.8-5.8-2.9-9.5c-0.2-3.6,0.9-7.4,2.3-11.1
			c1.4-3.7,3.3-7.5,4.6-11.5c0.7-2,1.2-4.1,1.4-6.2c0.2-2.1,0-4.3-0.6-6.5c-1.2-4.3-4-7.8-7.2-10.7c-3.2-2.9-6.7-5.1-10.2-7.1
			c-7-3.9-13.5-7.5-17.6-12.1c-4.2-4.5-5.9-9.4-6.1-12.8c-0.2-1.7,0.1-3,0.2-3.9c0.2-0.9,0.4-1.3,0.4-1.3c0.2,0-0.5,1.8-0.2,5.1
			c0.3,3.2,2.1,7.9,6.2,12.2c4.1,4.4,10.5,7.8,17.5,11.7c3.5,2,7.2,4.2,10.5,7.2c3.3,3,6.2,6.7,7.5,11.2c0.7,2.3,0.8,4.6,0.6,6.9
			c-0.2,2.3-0.8,4.4-1.5,6.5c-1.4,4.1-3.3,7.8-4.7,11.5c-1.4,3.6-2.4,7.3-2.3,10.7c0,3.4,1.2,6.5,2.6,9.1c3,5.1,7.4,7.9,10.4,9.1
			C337.9,244.6,339.8,244.7,339.8,244.8z"/>
	</g>
	<g>
		<path class="st9" d="M282.9,106.1c0.1,0-0.2,0.5-0.8,1.2c-0.6,0.7-1.7,1.5-3.2,2.2c-1.5,0.7-3.5,1.2-5.8,1.1
			c-2.2-0.1-4.8-0.7-6.9-2.3c-2.1-1.6-3.5-3.7-4.1-5.8c-0.7-2.1-0.7-4.1-0.5-5.7c0.3-1.6,0.8-2.9,1.3-3.6c0.5-0.8,0.8-1.1,0.9-1.1
			c0.2,0.1-1,1.8-1.3,4.9c-0.3,3,0.7,7.6,4.5,10.5c3.9,2.8,8.8,2.5,11.6,1.3C281.5,107.5,282.8,105.9,282.9,106.1z"/>
	</g>
	<g>
		<path class="st12" d="M283.4,127.2c0.1-0.1,1,0.4,1,1.8c0,0.7-0.3,1.5-1.1,2.1c-0.8,0.6-2.1,0.6-3,0.2c-1-0.5-1.7-1.4-1.8-2.3
			c-0.1-0.9,0.2-1.7,0.6-2.3c0.8-1.1,1.7-1.2,1.8-1.1c0.1,0.2-0.6,0.5-1,1.5c-0.5,0.9-0.4,2.5,1,3.1c0.7,0.3,1.4,0.3,1.9,0
			c0.5-0.3,0.8-0.8,0.9-1.3C283.7,128,283.3,127.4,283.4,127.2z"/>
	</g>
	<g>
		<path class="st9" d="M277.8,46.6c0.3,0,0.7,2.7,0.8,6c0.1,3.3-0.1,6.1-0.5,6.1c-0.3,0-0.7-2.7-0.8-6
			C277.3,49.3,277.5,46.6,277.8,46.6z"/>
	</g>
	<g>
		<path class="st9" d="M271.8,46.7c0.2-0.2,2.6,2.2,4.4,5.9c1.8,3.7,2.3,7,2,7c-0.3,0.1-1.4-3-3.1-6.5
			C273.4,49.6,271.5,46.9,271.8,46.7z"/>
	</g>
	<g class="st13">
		<path class="st14" d="M409.4,339.5c0.2,0,0.4,0.8-0.4,1.9c-0.8,1.1-2.8,2.2-5.5,1.8c-2.5-0.3-5.1-1.9-7.5-1.7
			c-2.5,0.1-5.3,1.9-7.3,4.7c-2,2.7-3,6.7-4.4,11.2c-1.3,4.4-3.4,10.1-9,13.6c-1.4,0.9-3,1.5-4.8,1.8c-0.9,0.1-1.8,0.2-2.7,0
			l-1.4-0.1c-0.4-0.1-0.9-0.2-1.3-0.4c-3.5-1.1-6-3.4-8.1-5.6c-2.1-2.2-3.8-4.5-5.7-6.5c-1.8-2-3.8-3.6-5.8-4.1
			c-2-0.6-4-0.1-5.8,1.3c-1.8,1.4-3.4,3.5-4.7,5.7c-0.7,1.1-1.2,2.3-1.9,3.5c-0.6,1.3-1.3,2.5-2,3.8c-1.5,2.5-3.2,5-5.7,7
			c-2.5,2-5.9,3.2-9.1,2.9c-3.3-0.3-5.9-1.7-8-3.3c-2.1-1.6-3.7-3.5-5.1-5.4c-1.3-1.9-2.3-3.7-3.4-5.3c-2-3.3-4-5.9-6.2-7.5
			c-2.2-1.5-4.8-2.1-6.7-2c-4.1,0.1-5.4,2.6-5.8,2.3c-0.1-0.1-0.1-0.8,0.7-1.8c0.7-1,2.4-2.3,4.9-2.8c2.5-0.5,5.7-0.2,8.9,1.5
			c3.1,1.8,5.7,4.8,8,8.1c2.3,3.3,4.5,6.7,7.9,9.1c1.6,1.2,3.5,2,5.3,2c1.8,0.1,3.6-0.6,5.1-1.9c1.6-1.3,3-3.3,4.2-5.5
			c0.6-1.1,1.2-2.3,1.8-3.5c0.6-1.2,1.2-2.6,2-3.9c1.5-2.6,3.3-5.3,6.2-7.6c1.4-1.1,3.2-2,5.2-2.5c2-0.5,4.1-0.4,6,0.2
			c4,1.1,6.6,3.7,8.7,5.9c2.1,2.3,3.8,4.6,5.6,6.6c3.5,4,7.4,5.6,10.8,3.5c1.7-1,3.2-2.6,4.4-4.4c1.1-1.8,1.9-3.9,2.7-6
			c1.5-4.2,2.8-8.7,5.8-12.2c2.8-3.4,6.8-5.7,10.8-5.5c2,0.1,3.6,0.8,4.8,1.4c1.3,0.6,2.3,1.1,3.2,1.4c1.7,0.6,3.4,0.1,4.1-0.4
			C409,340,409.2,339.4,409.4,339.5z"/>
	</g>
	<g class="st13">
		<path class="st14" d="M394.2,313.3c-0.3,0.4-2-1.1-5.3-0.4c-1.6,0.3-3.5,1.2-5.1,2.8c-1.6,1.6-2.9,4-4.2,7
			c-0.7,1.5-1.4,3.1-2.3,4.7c-1,1.7-2.2,3.4-3.8,5c-1.6,1.5-3.8,3-6.6,3.5c-2.7,0.6-5.9-0.1-8.2-1.6c-4.6-3.1-6.8-7.4-9.8-10.3
			c-1.5-1.5-3-2.5-4.7-2.9c-1.7-0.4-3.7-0.2-5.6,0.5c-3.8,1.3-6.7,4.8-8.8,8.5c-1.1,1.8-2,4-3.2,6.1c-1.2,2.1-2.6,4.2-4.7,6.1
			c-2,1.9-5.4,3-8.2,2.4c-3-0.5-5.2-2.4-6.6-4.1c-2.8-3.5-4.1-6.7-6-9c-1.7-2.2-4-3.5-6.3-4.2c-2.3-0.7-4.4-0.7-6.1-0.5
			c-3.4,0.5-5.2,1.7-5.5,1.3c-0.2-0.2,1-2.2,4.9-3.6c1.9-0.6,4.5-1,7.4-0.5c2.9,0.4,6.3,1.9,8.9,4.7c2.5,2.7,4.2,6,6.5,8.5
			c1.1,1.2,2.3,2,3.5,2.1c1.3,0.1,2.5-0.2,3.6-1.3c1.2-1.1,2.3-2.7,3.2-4.6c1-1.8,1.8-4,3.1-6.3c1.2-2.2,2.7-4.5,4.7-6.5
			c1.9-2,4.4-3.8,7.3-4.9c2.9-1.1,6.1-1.4,9.2-0.7c3.2,0.7,5.8,2.7,7.6,4.6c1.9,1.9,3.3,3.9,4.6,5.6c1.3,1.7,2.7,3.2,4,4.1
			c2.6,1.9,5.6,1.3,8.2-0.9c2.5-2.1,4.1-5.1,5.7-8c1.6-2.9,3.4-5.6,5.8-7.5c2.4-1.9,5-2.6,7.1-2.7c2.1-0.1,3.8,0.6,4.6,1.3
			C394.1,312.7,394.3,313.2,394.2,313.3z"/>
	</g>
	<g class="st15">
		<path class="st14" d="M388.8,279.5c-0.2,0.5-2.1-0.4-4.8,1c-1.3,0.7-2.8,2-4.1,3.7c-0.7,0.9-1.3,1.9-1.8,3
			c-0.5,1.2-1.1,2.6-1.7,3.9c-0.6,1.4-1.3,3-2.3,4.5c-1,1.6-2.4,3.2-4.3,4.5c-1.9,1.2-4.3,2-6.7,2.1c-2.4,0.1-4.8-0.5-6.9-1.2
			c-2.2-0.8-4.2-1.8-6.2-3c-1-0.6-1.9-1.2-2.9-1.8c-0.9-0.6-1.8-1.2-2.7-1.7c-3.5-2.2-7.5-4.1-11-3.8c-1.7,0.2-3.2,0.9-4.4,2
			c-1.3,1.2-2.4,2.8-3.3,4.6c-1.8,3.5-3.2,8-6.4,11.7c-1.6,1.9-3.8,3.3-6.1,4.1c-2.3,0.8-5,0.9-7.4-0.1c-2.4-1-4-2.9-4.9-4.5
			c-1-1.6-1.5-3.1-2.2-4.4c-2.3-4.8-7.1-6.6-10.2-7.1c-3.2-0.5-5.1,0.1-5.3-0.4c-0.2-0.3,1.5-1.7,5.4-2c1.9-0.1,4.3,0.2,6.8,1.2
			c2.5,1.1,5.3,3.1,7,6.1c1.7,2.8,3.1,5.8,5.2,6.4c2,0.8,5.4-0.5,7.3-2.9c2.1-2.6,3.3-6.4,5.3-10.7c1.1-2.1,2.4-4.4,4.4-6.3
			c2-2,5-3.5,8.1-3.7c3.1-0.3,5.9,0.4,8.3,1.4c2.4,1,4.6,2.2,6.5,3.5c1,0.6,1.9,1.3,2.8,1.9c0.9,0.6,1.7,1.2,2.6,1.7
			c1.7,1.1,3.4,2,5.1,2.7c1.7,0.7,3.3,1.1,4.8,1.1c1.5,0,2.8-0.3,4-1c2.4-1.3,4-4.1,5.4-6.7c0.7-1.3,1.4-2.6,2.2-3.9
			c0.8-1.3,1.7-2.5,2.6-3.4c1.9-1.9,4-3.2,5.9-3.7c1.9-0.5,3.6-0.3,4.5,0.1C388.5,278.9,388.8,279.4,388.8,279.5z"/>
	</g>
	<g class="st15">
		<path class="st14" d="M388.5,251.7c-0.3,0.4-1.9-1-4.9-0.2c-1.5,0.4-3.2,1.3-4.8,2.8c-1.6,1.4-2.9,3.7-4.7,6.3
			c-0.9,1.3-1.9,2.7-3.3,4.1c-1.4,1.4-3.2,2.6-5.3,3.4c-4.3,1.6-9.1,1-13.3-0.3c-4.3-1.3-8.4-3.5-12.2-5c-3.9-1.6-8.2-2.7-11.7-1.8
			c-1.8,0.4-3.3,1.3-4.6,2.6c-1.3,1.3-2.5,3.1-3.6,4.9c-1.1,1.9-2.2,3.8-3.6,5.8c-1.4,1.9-3.1,3.7-5.2,5.1c-2,1.4-4.6,2.4-7.3,2.3
			c-2.7-0.1-5.1-1.2-6.8-2.6c-3.3-2.8-5-5.7-7-7.7c-2-2-3.9-2.9-6-2.9c-2.1,0-3.9,0.7-5.2,1.5c-2.7,1.7-3.3,3.6-3.8,3.4
			c-0.2,0-0.3-0.6,0-1.5c0.2-1,0.9-2.3,2.3-3.7c1.4-1.3,3.6-2.7,6.5-3c1.5-0.2,3.1-0.1,4.8,0.5c1.6,0.6,3.1,1.5,4.4,2.7
			c2.6,2.2,4.7,5.1,7.2,6.8c2.4,1.7,5,1.7,7.7-0.3c1.3-1,2.6-2.3,3.7-3.9c1-1.5,2.1-3.4,3.2-5.4c1.2-2,2.5-4.1,4.4-6.1
			c1.9-2,4.6-3.7,7.5-4.3c2.9-0.7,5.8-0.5,8.4,0c2.6,0.5,4.9,1.4,7.2,2.3c4.5,1.9,8,4,11.7,5.2c3.6,1.3,7.1,1.7,9.9,0.9
			c2.8-0.8,4.9-2.9,6.8-5.3c1.9-2.3,3.7-4.8,6.1-6.4c2.3-1.6,4.6-2.4,6.7-2.5c2-0.1,3.6,0.5,4.4,1.2
			C388.5,251.1,388.7,251.6,388.5,251.7z"/>
	</g>
	<g>
		<path class="st9" d="M197.8,240.1c0.3,0.2-2.6,5.2-4.4,11.9c-1.9,6.7-2.1,12.5-2.5,12.5c-0.3,0-0.7-5.8,1.3-12.8
			C194.2,244.7,197.6,239.9,197.8,240.1z"/>
	</g>
	<g>
		<path class="st9" d="M202,261.4c-0.2,0.2-3.4-4.8-4.2-11.7c-0.9-7,1-12.5,1.3-12.4c0.4,0.1-0.9,5.5-0.1,12.2
			C199.8,256.3,202.4,261.3,202,261.4z"/>
	</g>
	<g class="st16">
		<path class="st9" d="M284.7,169.7c0,0,1.1-0.2,3.1,0c2,0.1,5.1,0.6,8.6,2.2c3.5,1.6,7.5,4.4,10.9,8.6c3.4,4.2,5.8,10.2,6.2,17
			c0.3,6.8-1.4,14.3-5.3,21.3c-2,3.5-4.5,6.8-7.5,9.9c-3,3.1-6.4,5.9-10.1,8.5c-7.5,5.2-16.1,9.4-25.2,13.4
			c-9.1,3.9-18.5,7.9-28.1,12c-9.6,4.1-19.1,8.1-28.1,12c-4.6,1.9-9,4-13.7,5.2c-2.4,0.6-4.8,0.9-7.2,0.8c-2.4-0.1-4.8-0.8-6.9-1.8
			c-4.2-2-7.5-5.2-10.2-8.6c-2.7-3.4-4.7-7-6.7-10.4c-3.9-7-6.9-13.7-9.4-20c-5-12.6-8-23-10.1-30.3c-1-3.6-1.8-6.4-2.3-8.3
			c-0.2-0.9-0.4-1.6-0.6-2.2c-0.1-0.5-0.2-0.7-0.2-0.8c0,0,0.1,0.2,0.3,0.7c0.2,0.5,0.4,1.3,0.7,2.1c0.6,2,1.5,4.7,2.6,8.3
			c2.2,7.2,5.4,17.6,10.4,30.1c2.5,6.2,5.6,12.9,9.5,19.8c2,3.4,4,7,6.7,10.2c2.6,3.3,5.8,6.3,9.8,8.2c4,1.9,8.8,2.1,13.3,0.9
			c4.5-1.1,8.9-3.3,13.5-5.2c9.1-3.9,18.5-7.9,28.1-12c9.6-4.1,19-8.1,28.1-12c9-3.9,17.6-8.1,25-13.2c3.7-2.6,7.1-5.3,10-8.4
			c2.9-3,5.4-6.3,7.4-9.7c3.9-6.8,5.6-14.2,5.3-20.8c-0.3-6.6-2.6-12.5-5.8-16.7c-3.3-4.2-7.1-7-10.6-8.6c-3.4-1.6-6.4-2.2-8.4-2.4
			C285.8,169.7,284.7,169.8,284.7,169.7z"/>
	</g>
	<g class="st16">
		<path class="st9" d="M292.2,400.8c0,0,0-0.6,0.1-1.7c0.1-1.2,0.3-2.8,0.5-4.7c0.5-4.2,1.1-10.1,1.9-17.3
			c1.5-14.6,3.7-34.9,3.8-57.3c0.1-22.4-2.4-42.7-5.8-57c-1.6-7.2-3.3-12.9-4.6-16.8c-0.6-2-1.2-3.5-1.5-4.5c-0.3-1-0.5-1.6-0.4-1.6
			c0,0,0.3,0.5,0.7,1.5c0.4,1,1,2.5,1.7,4.4c1.4,3.9,3.2,9.6,5,16.8c3.6,14.3,6.3,34.7,6.2,57.2c-0.1,22.5-2.4,42.8-4.2,57.4
			c-0.9,7.3-1.7,13.2-2.3,17.3c-0.3,1.9-0.5,3.5-0.7,4.7C292.3,400.2,292.2,400.8,292.2,400.8z"/>
	</g>
	<g class="st16">
		<path class="st9" d="M285.9,257.1c0.1,0.3-3.3,1.9-7.7,3.6c-4.4,1.7-8,2.8-8.2,2.5c-0.1-0.3,3.3-1.9,7.7-3.6
			C282.1,257.9,285.7,256.8,285.9,257.1z"/>
	</g>
	<path class="st9" d="M110.9,129.7c0,0-1.1,0.3-0.3,2c0.8,1.8,1.4,2.8,1.4,2.8s1.9-0.4,1.6-1.3C113.3,132.3,110.9,129.7,110.9,129.7
		z"/>
	<g>
		<path class="st10" d="M256,112.4c-0.3,0.2-1-0.5-1.4-1.6c-0.4-1.1-0.1-2.1,0.2-2.1c0.3,0,0.6,0.8,0.9,1.7
			C256.1,111.4,256.3,112.2,256,112.4z"/>
	</g>
	<g>
		<path class="st10" d="M256.6,100.5c-0.1,0.3-1.2,0.3-2.4,0.6c-1.2,0.3-2.1,0.8-2.3,0.6c-0.3-0.2,0.5-1.4,2-1.8
			C255.5,99.5,256.7,100.2,256.6,100.5z"/>
	</g>
	<g class="st17">
		<path class="st18" d="M272.4,125.9c1.7,2.8,0.2,6.8-3.7,8.5c-3.9,1.6-7.9-0.1-8.8-3.3c-0.9-3.2,1-6.5,4-7.7
			C267,122.1,270.7,123,272.4,125.9z"/>
	</g>
</g>
<g class="st19">
	
		<linearGradient id="SVGID_2_" gradientUnits="userSpaceOnUse" x1="118.2811" y1="346.0713" x2="221.064" y2="346.0713" gradientTransform="matrix(0.6077 -0.7942 0.7942 0.6077 -209.8068 276.006)">
		<stop  offset="0" style="stop-color:#FD8F7E"/>
		<stop  offset="0.1512" style="stop-color:#FD847E"/>
		<stop  offset="0.7019" style="stop-color:#FD6280"/>
		<stop  offset="1" style="stop-color:#FD5580"/>
	</linearGradient>
	<path class="st20" d="M109.6,351.8c19.9,22.7,40.4,44.6,61.2,66.3c5.7,5.9,13.4,4.7,17.4-2.3c13.9-24.6,27.8-49,39.6-74.8
		c2.5-5.6-1.8-12-7.5-12.8c-18-2.5-35.6-5.2-53.9-5c-16,0.2-36.1-0.5-50.4,7.4c-8.3,4.6-8.6,18.5,2.6,19.7
		c15.2,1.7,31.1-3.6,46.4-4.7c17.6-1.3,35.6-1.6,53,1.1c-2.1-5-4.2-10-6.3-14.9c-15.6,24.7-28.8,50.5-42.2,76.4
		c5.1-1.4,10.3-2.8,15.4-4.2c-21.8-20.8-43.7-41.4-66.3-61.3C113.3,338,104.9,346.3,109.6,351.8L109.6,351.8z"/>
</g>
</svg>
