<svg id="Layer_1" data-name="Layer 1" xmlns="http://www.w3.org/2000/svg" xmlns:xlink="http://www.w3.org/1999/xlink" viewBox="0 0 425.2 425.2"><defs><style>.cls-1{fill:none;}.cls-2{fill:#e1d2f4;}.cls-3{fill:#d5cce2;}.cls-4{fill:#e3707f;}.cls-5{fill:#edc483;}.cls-6{fill:#6e3281;}.cls-7{fill:#e5b1b1;}.cls-8{fill:#ffaea6;}.cls-9{fill:#251a51;}.cls-10{fill:#fff;}.cls-11{fill:#7caaff;}.cls-12{fill:#552e3b;}.cls-13,.cls-14{fill:#e08f8d;}.cls-13{stroke:#000;stroke-miterlimit:10;stroke-width:0.26px;}.cls-15{fill:#452775;}.cls-16{fill:#fac28c;}.cls-17{font-size:20.06px;fill:#d4a627;font-family:Gilroy-ExtraBold, Gilroy ExtraBold;font-weight:700;}.cls-18{opacity:0.23;}.cls-19{fill:#d1658f;}.cls-20{fill:#473a60;}.cls-21{fill:#8aa9fc;}.cls-22{fill:#e8947e;}.cls-23{fill:#f2f2f2;}.cls-24{clip-path:url(#clip-path);}.cls-25{fill:#6d1b48;}.cls-26{fill:#871f54;}.cls-27{opacity:0.42;}.cls-28{fill:#4a4182;}.cls-29{fill:#f9c8c7;}</style><clipPath id="clip-path"><path class="cls-1" d="M357,56.44c-26-19.87-61.86-26-92.94-15.85s-56.45,36.28-65.67,67.65c-4.25,14.48-8.07,33-22.78,36.4-8.28,1.9-16.58-2.26-24.47-5.41a111.17,111.17,0,0,0-96.53,7.62A111.16,111.16,0,0,0,1.92,228.1C-1.81,259.84,8.65,292,25.2,319.32c42.13,69.61,123.33,97.13,211.3,97.13,96.59,0,150.22-62.24,176.41-139.28S415.76,112.72,357,56.44"/></clipPath></defs><title>beranda</title><path class="cls-2" d="M346.55,86.14c-23.95-18.35-57.1-24-85.78-14.64s-52.1,33.5-60.61,62.44c-3.93,13.37-7.45,30.48-21,33.6-7.64,1.76-15.3-2.08-22.58-5a102.58,102.58,0,0,0-89.09,7,102.58,102.58,0,0,0-48.62,75c-3.44,29.3,6.21,59,21.48,84.2C79.21,393,155.39,418.35,231.13,418.38c94.43,0,142.87-57.41,167-128.52s2.63-151.78-51.62-203.72"/><path class="cls-3" d="M343.34,382.08c5.2-9.11,7.93-22.17,10-33s-1.66-23.64-11.51-28.63c-5.68-2.88-12.41-2.76-18.7-1.76A73.92,73.92,0,0,0,279.4,343c2.27-9.23,3.52-21.18-4.58-26.16-7.51-4.61-17.12.71-23.76,6.51a134.86,134.86,0,0,0-32.51,42.53,70.48,70.48,0,0,0-118.47,22.68s82.21,41.86,156.89,29C327.49,405.36,343.34,382.08,343.34,382.08Z"/><path class="cls-4" d="M60.64,264.24c-1.31,6.37-2.4,12.75-3.4,19.18a2.37,2.37,0,0,0,2.86,2.86c6-.87,12.07-1.64,18-3a2.18,2.18,0,0,0,1.29-3.18c-3.36-5.87-7.69-14.63-14.14-17.63-2-.93-4.65,1.07-3.26,3.25,1.81,2.81,4.73,4.85,7,7.35a49,49,0,0,1,6.72,9.22L77.54,279c-6.29.54-12.46,1.72-18.68,2.8l3,2.24c.72-6.47,1.34-12.91,1.75-19.4.1-1.66-2.59-2-2.92-.4Z"/><path class="cls-5" d="M257.59,271.7c3.59-8.26,13.69-7.81,17.05.29,1.83,4.4,3,9.2,7.68,11.48,8,3.92,17.28-3,15.52-11.78-.54-2.69-4.54-1.93-4.63.63-.13,3.48-1.73,7.26-5.79,7.28-4.33,0-6-3.79-7.3-7.21-1.57-4.11-3.23-7.94-7.26-10.19-7.57-4.22-16.22.15-18.13,8.29-.38,1.64,2.12,2.9,2.86,1.21Z"/><path class="cls-6" d="M293,91c-1.93-4-1.13-9.07,2.61-11.72,3.56-2.51,7.18-1.36,10.89,0,4.24,1.52,8.49,2.71,12.67.37,7.14-4,7.64-14.74.32-18.83-2.28-1.27-4.88,1.84-2.86,3.7,2.43,2.24,4.37,5.22,2.4,8.56-2.19,3.73-6.27,3-9.69,1.93-4.55-1.45-8.55-3.21-13.34-1.53-8.23,2.88-10.59,12.33-5.7,19.12A1.57,1.57,0,0,0,293,91Z"/><path class="cls-5" d="M161.34,185.81c.83,4.08,5.22,13.29,9.84,14.39,2.42.57,4.14-1,6-2.3,3.54-2.45,7.05-5,10.55-7.45a2.67,2.67,0,0,0,.95-3.59l-9.31-14.33a2.66,2.66,0,0,0-3.6-.94c-3.86,2.73-7.92,5.29-11.52,8.37-2.17,1.85.62,5.26,3,3.88,3.9-2.26,7.5-5.12,11.17-7.72l-3.59-.94,9.31,14.33.94-3.6c-2.1,1.5-4.21,3-6.31,4.5-1.25.9-5.31,4.69-6.72,4.38s-3.61-4.14-4.57-5.3a28.54,28.54,0,0,0-4.67-4.84c-.78-.59-1.67.38-1.51,1.16Z"/><path class="cls-4" d="M282.63,16c.83,4.09,5.21,13.29,9.83,14.39,2.43.58,4.15-1,6-2.3,3.55-2.44,7.05-4.95,10.56-7.44A2.68,2.68,0,0,0,310,17L300.69,2.67a2.66,2.66,0,0,0-3.6-.94c-3.86,2.74-7.91,5.3-11.51,8.37-2.18,1.86.61,5.27,3,3.89,3.9-2.26,7.5-5.12,11.18-7.72l-3.6-.94q4.67,7.15,9.31,14.33l.94-3.6c-2.1,1.5-4.21,3-6.31,4.5-1.25.89-5.31,4.69-6.71,4.38-1.56-.34-3.62-4.14-4.58-5.3a28.54,28.54,0,0,0-4.67-4.84c-.78-.59-1.66.38-1.5,1.15Z"/><path class="cls-7" d="M223.32,169.51s-5.55-5.58-6.3-6.41c-4.36-4.84,0-2.1,1.94-1.56,1.74.47-3.22-11.57-1.62-11.13s3.4,6.29,3.4,6.29-2.11-8.14-.35-6.47,3.41,6.3,3.41,6.3-1.86-8.48-.37-6.72a17.91,17.91,0,0,1,2.55,4.9s-.93-7.34.4-5.32S236.5,168,236.5,168Z"/><path class="cls-8" d="M215,173.23s5.55-5.58,6.3-6.41c4.36-4.84,0-2.1-2-1.56-1.74.48,3.22-11.56,1.63-11.13s-3.41,6.29-3.41,6.29,2.12-8.14.36-6.47-3.42,6.31-3.42,6.31,1.87-8.48.37-6.72a17.76,17.76,0,0,0-2.54,4.89s.93-7.34-.41-5.31-10.12,18.6-10.12,18.6Z"/><path class="cls-9" d="M323.33,200.06a7.29,7.29,0,0,1,10,6.1,18.63,18.63,0,0,1-.62,5.07,9.06,9.06,0,0,0,.11,5.06,3.73,3.73,0,0,0,4,2.49,6.36,6.36,0,0,1,2-.49,1.84,1.84,0,0,1,1.44,2.06,3,3,0,0,1-1.65,2.13,8.79,8.79,0,0,1-2.68.77,12.43,12.43,0,0,1,2.43,3.56,2.13,2.13,0,0,1,.23,1.55,1.57,1.57,0,0,1-1.8.86,4.57,4.57,0,0,1-1.9-1c1,.57.73,2.23-.22,2.89a5.21,5.21,0,0,1-3.34.57c-2.47-.13-5.11-.32-7.11-1.78s-2.9-3.7-3.6-5.95a41.74,41.74,0,0,1-1.87-14.73"/><path class="cls-5" d="M291.85,314.26S295,273,293.62,269.83s-7.31-23.68-7.31-23.68l12.85-20.63,16.63-2.7,12.42,10.75a33,33,0,0,1,11.39,24l1.62,55.07Z"/><path class="cls-10" d="M239.17,113.37l2.48,44.14H266.9l3.82,15.08L275,157.51H311.9c1.9,0,0-57.57,0-57.57Z"/><path class="cls-11" d="M148.24,248.33c-.3-.93,1.49-19.46-19.79-19-19.95.47-33.16,6.46-41.65,15.87L94,274.19l2.55,48.72,56.52-5.2Z"/><path class="cls-11" d="M88.09,243.26S59.93,284.92,62.58,317.8s41.74,1.66,46.05-2a60.77,60.77,0,0,0,8.63-10l-2.6-15.28L88.09,302.85l9.74-19.1Z"/><path class="cls-11" d="M132.81,229.25s25.18-12.81,37.77-24.74,35.06-39,35.06-39L216,174S193,211.63,178.92,227.17c-9.23,10.16-32.28,32-32.28,32Z"/><path class="cls-5" d="M302.83,224s-24.27-12.34-36.4-23.84-35.74-40.88-35.74-40.88l-8,11.5S244.8,207,258.4,222c8.89,9.79,31.1,30.88,31.1,30.88Z"/><path class="cls-12" d="M105.73,220.86c-5.83,2.11-3.78-4.54-4-7.36s0-5.78-1.21-8.36c-.93-2.06-2.7-3.88-2.7-6.13,0-1.72,1-3.25,1.46-4.91.6-2.29,0-4.73.43-7.06a9.16,9.16,0,0,1,9.86-7.33c2.25.29,4.42,1.45,6.66,1.14,2.47-.34,4.33-2.35,6.48-3.61a10.61,10.61,0,0,1,10-.46,8.89,8.89,0,0,1,4.81,8.57,7.68,7.68,0,0,1-6.86,6.74c-2,.11-4-.66-6-1.16s-4.22-.69-5.9.45c-2.12,1.45-3,4.78-5.59,5-1.35.12-2.56-.73-3.8-1.28s-3-.65-3.68.51c-.58,1-.09,2.17,0,3.28.23,2-.25,4.07-2.09,5-.74,5.61,1,11,2.63,16.41"/><path class="cls-8" d="M103.57,187.85l-.89,16.61a4.52,4.52,0,0,0-4.53,4.69c-.09,5.89,4.77,4.82,4.77,4.82s-1.17,11.24,12.32,11.94c15.78.81,12.84-27.29,12.43-40.5Z"/><path class="cls-8" d="M322,188.7l.55,12.49s5-.06,5,4.58c0,5.83-5.48,4.85-5.48,4.85s1.13,11.13-14.14,12c-15.5.93-14.68-20-13.74-34.09a5.8,5.8,0,0,1,6.23-5.42l17.4,1.28A4.47,4.47,0,0,1,322,188.7Z"/><path class="cls-8" d="M124.14,213.27l-.9,20.28a7.86,7.86,0,0,1-11.36,6.68l-.2-.1a7.85,7.85,0,0,1-4.33-7.28c.21-7.12.29-19.4.29-19.4Z"/><path class="cls-13" d="M120.33,211.28s.1.22.45.41a1.24,1.24,0,0,0,1.48-.25,2.23,2.23,0,0,0,.54-1,4.61,4.61,0,0,0,.09-1.31c-.07-1-.14-2-.21-3.12-.14-2.21-.25-4.21-.32-5.66,0-.73,0-1.32-.06-1.72a2.47,2.47,0,0,1,0-.64,2.36,2.36,0,0,1,.1.63c0,.4.1,1,.16,1.71.12,1.45.26,3.45.41,5.66.06,1.11.12,2.16.18,3.13a4.54,4.54,0,0,1-.13,1.39,2.23,2.23,0,0,1-.64,1.06,1.43,1.43,0,0,1-.94.4,1.3,1.3,0,0,1-.74-.21C120.35,211.55,120.32,211.27,120.33,211.28Z"/><path class="cls-13" d="M122,215.2a2,2,0,0,1-1.07.42,4,4,0,0,1-2.73-.48,4.07,4.07,0,0,1-1.76-2.14,2.18,2.18,0,0,1-.16-1.14c.06,0,.09.43.37,1.06a4.21,4.21,0,0,0,1.7,2,4.32,4.32,0,0,0,2.55.53C121.56,215.33,122,215.15,122,215.2Z"/><path class="cls-14" d="M117,211.62c0,.08-.52,0-1,.27s-.68.76-.76.74-.06-.15,0-.36a1.35,1.35,0,0,1,.58-.65,1.44,1.44,0,0,1,.86-.17C116.85,211.49,117,211.58,117,211.62Z"/><path class="cls-14" d="M124.44,224.92a2.54,2.54,0,0,1-.61.38,11.26,11.26,0,0,1-1.8.76,13.88,13.88,0,0,1-12.37-1.74,12.08,12.08,0,0,1-1.52-1.23,2.55,2.55,0,0,1-.48-.53c0-.05.75.69,2.12,1.58A14.43,14.43,0,0,0,122,225.85C123.53,225.38,124.42,224.87,124.44,224.92Z"/><path class="cls-14" d="M101.34,211.45a2.07,2.07,0,0,0,.62-.85,1.63,1.63,0,0,0,0-1.11,1,1,0,0,0-1-.66.59.59,0,0,0-.47.83l-.27.1a12.65,12.65,0,0,1-.3-2.41,12.68,12.68,0,0,1,.58,2.36l.16.78-.42-.68a.88.88,0,0,1,.68-1.28,1.16,1.16,0,0,1,.84.21,1.37,1.37,0,0,1,.46.65,1.79,1.79,0,0,1,0,1.28,1.48,1.48,0,0,1-.54.67C101.46,211.45,101.34,211.47,101.34,211.45Z"/><path class="cls-15" d="M115.32,202.93c-.17,0-.31-.67-.32-1.5s.13-1.5.3-1.5.31.67.32,1.5S115.49,202.92,115.32,202.93Z"/><path class="cls-15" d="M128.1,202.3c-.17,0-.32-.55-.34-1.25s.11-1.26.28-1.26.32.56.34,1.25S128.27,202.3,128.1,202.3Z"/><path class="cls-12" d="M103.51,204.55a4.49,4.49,0,0,0-.25,3.13c.42,1,2,1.46,2.55.56a2.29,2.29,0,0,0,.25-1.22q0-4.31.07-8.63a11.35,11.35,0,0,0,8.78-8.11,7.63,7.63,0,0,0,7.37.24c.94-.49,1.88-1.2,2.93-1.06,1.26.17,2,1.47,3,2.21a3.91,3.91,0,0,0,5.59-1.54c.93-2.09-.32-4.66-2.28-5.85-2.46-1.49-5.57-1.2-8.43-.86l-15.85,1.87a5.48,5.48,0,0,0-2.88.9,5.06,5.06,0,0,0-1.5,2.71,39.09,39.09,0,0,0-1.62,12.26c0,1.27.26,2.75,1.37,3.37"/><path class="cls-12" d="M117.07,197c.08.41-.83.94-2,1.17s-2.22.07-2.3-.34.82-.94,2-1.17S117,196.54,117.07,197Z"/><path class="cls-12" d="M129.64,196.77c0,.43-.82.71-1.76.65s-1.68-.47-1.65-.89.82-.71,1.76-.64S129.67,196.35,129.64,196.77Z"/><polygon class="cls-5" points="90.32 112.23 86.8 156.73 150.04 156.96 150.04 170.2 159.41 156.73 182.31 156.58 185.75 107.58 90.32 112.23"/><path class="cls-16" d="M110.76,261.43s5.92,20.54,6.58,21.36,6.75,1.6,6.75,1.6l.44,1.9-1.37.31a1.28,1.28,0,0,0-1,1.38h0a1.27,1.27,0,0,0,1.34,1.13l1.63-.1,2.32,10.48-7.6,2.62.36,2.07,23.2-2.88-.79-2.45-8.7-.41-1.66-10.71,1-.24a1.56,1.56,0,0,0,1.18-1.88h0a1.58,1.58,0,0,0-1.89-1.19l-.8.19-.29-2.26,5.58-4.79-3.51-20.81-9.94-2.42-5.12,1.18Z"/><path class="cls-16" d="M118.34,242.71s4.23,2.43,4.27,3.42a5.86,5.86,0,0,1-1.15,2.58l.35,1.52,4.25.32.48,2.09-3.23.75.41,2.61-5.17,1.19L118,255h-3.4l-.4-1.71,3.48-1.81-.21-1.3s-2.24-2.14-2.28-2.73A5.53,5.53,0,0,1,118.34,242.71Z"/><path class="cls-16" d="M113.83,265.18s-4.12-4.33-8.74-2-3.17,9.68.52,12.67,12,6.74,12,6.74l-.87-3.75s-8.69-3.12-11-8.1c-.77-1.65-1.09-6.31,3.56-5.4s5.06,4.77,5.06,4.77Z"/><path class="cls-16" d="M131.54,260.35s1.47-5.8,6.65-6,7.51,6.89,5.75,11.3-7.19,11.79-7.19,11.79l-1.09-3.7s6.05-7,5.65-12.47c-.13-1.82-2.13-6-5.74-3s-2.08,6.64-2.08,6.64Z"/><text class="cls-17" transform="translate(120.9 275.96) rotate(-14.79)">1</text><path class="cls-8" d="M113.78,290.7s6.24-6.75,7.47-6.58c1.4.2,1.08-.23,1.61,2.24.42,2,13-2.86,12.4-1.12s-7.16,3.38-7.16,3.38,9.14-1.84,7.18,0-7.18,3.4-7.18,3.4,9.49-1.55,7.46,0a19.74,19.74,0,0,1-5.58,2.51s8.18-.58,5.86.78-21.18,10.06-21.18,10.06Z"/><path class="cls-8" d="M301.86,210.6l.9,20.28a7.86,7.86,0,0,0,11.37,6.68l.19-.1a7.84,7.84,0,0,0,4.33-7.27c-.21-7.13-.29-19.41-.29-19.41Z"/><path class="cls-9" d="M306.07,209.46s-.1.21-.43.39a1.19,1.19,0,0,1-1.42-.24,1.93,1.93,0,0,1-.53-.93,4.34,4.34,0,0,1-.08-1.27c.06-.93.13-1.93.2-3,.13-2.14.24-4.07.3-5.46,0-.7.05-1.27.06-1.66a2.25,2.25,0,0,0,0-.61,2.49,2.49,0,0,0-.09.6c-.05.39-.1,1-.16,1.65-.11,1.4-.25,3.33-.39,5.46-.06,1.06-.12,2.07-.17,3a4.19,4.19,0,0,0,.12,1.34,2.25,2.25,0,0,0,.61,1,1.38,1.38,0,0,0,.91.38,1.34,1.34,0,0,0,.72-.2C306.05,209.71,306.08,209.45,306.07,209.46Z"/><path class="cls-9" d="M304.48,213.24a2.08,2.08,0,0,0,1,.4,3.83,3.83,0,0,0,4.32-2.52A2,2,0,0,0,310,210c-.05,0-.09.41-.35,1a3.94,3.94,0,0,1-4.1,2.4C304.88,213.37,304.5,213.19,304.48,213.24Z"/><path class="cls-9" d="M309.32,209.78c0,.08.51,0,1,.27s.66.73.74.71.06-.15,0-.35a1.34,1.34,0,0,0-.56-.62,1.31,1.31,0,0,0-.82-.16C309.42,209.66,309.31,209.75,309.32,209.78Z"/><path class="cls-14" d="M302.2,220.48a3.26,3.26,0,0,0,.59.25,12,12,0,0,0,1.71.51,18.71,18.71,0,0,0,6.09.41,17.17,17.17,0,0,0,5.7-1.57,11.8,11.8,0,0,0,1.45-.83,4.46,4.46,0,0,0,.46-.35s-.72.46-2,1a17.92,17.92,0,0,1-5.63,1.49,20,20,0,0,1-6-.33C303.07,220.79,302.23,220.45,302.2,220.48Z"/><path class="cls-14" d="M324.36,209.62a2,2,0,0,1-.6-.82,1.5,1.5,0,0,1,0-1.06.93.93,0,0,1,1-.64.57.57,0,0,1,.45.8l.26.1a12.29,12.29,0,0,0,.29-2.33,12.36,12.36,0,0,0-.56,2.28l-.15.75.4-.66a.84.84,0,0,0-.65-1.23,1.09,1.09,0,0,0-.81.21,1.3,1.3,0,0,0-.45.62,1.77,1.77,0,0,0,0,1.23,1.45,1.45,0,0,0,.52.65C324.25,209.62,324.36,209.64,324.36,209.62Z"/><path class="cls-15" d="M310.89,201.41c.17,0,.31-.64.31-1.44s-.12-1.44-.28-1.44-.3.64-.31,1.44S310.73,201.41,310.89,201.41Z"/><path class="cls-15" d="M298.59,200.81c.16,0,.3-.54.32-1.2s-.1-1.22-.27-1.22-.3.54-.32,1.2S298.43,200.81,298.59,200.81Z"/><path class="cls-9" d="M322.27,203a4.41,4.41,0,0,1,.25,3c-.41.95-1.91,1.41-2.47.54a2.22,2.22,0,0,1-.23-1.17c0-2.77-.05-5.54-.07-8.31a11,11,0,0,1-8.46-7.82,7.35,7.35,0,0,1-7.1.23c-.9-.47-1.81-1.16-2.82-1-1.22.16-1.93,1.42-2.93,2.13a3.77,3.77,0,0,1-5.39-1.48c-.89-2,.32-4.49,2.2-5.64,2.38-1.43,5.37-1.15,8.12-.83l15.27,1.81a5.33,5.33,0,0,1,2.78.86,5,5,0,0,1,1.44,2.61,37.73,37.73,0,0,1,1.56,11.81c0,1.22-.25,2.65-1.32,3.25"/><path class="cls-9" d="M312.74,194.73c-.07.14-.41.12-.8.12s-.73,0-.79-.11.27-.43.79-.44S312.81,194.59,312.74,194.73Z"/><path class="cls-9" d="M298.69,194.49c0,.15-.24.22-.44.29s-.4.12-.52,0,0-.42.35-.54S298.74,194.35,298.69,194.49Z"/><g class="cls-18"><path class="cls-19" d="M310,211.72a1,1,0,0,1,.42,1.11,2.21,2.21,0,0,1-1.07,1.44,2.19,2.19,0,0,1-1.77.25,1,1,0,0,1-.77-.91,1.77,1.77,0,0,1,.34-1.07,2.16,2.16,0,0,1,1.74-1A1.81,1.81,0,0,1,310,211.72Z"/></g><path class="cls-20" d="M294.21,274.1c-.15,0-2.1-7.11-4.36-16s-4-16.07-3.81-16.1,2.11,7.1,4.36,16S294.37,274.06,294.21,274.1Z"/><path class="cls-20" d="M319.19,225.67a3.53,3.53,0,0,1,.52,1.09,8.83,8.83,0,0,1,.41,3.29,9.27,9.27,0,0,1-1.6,4.66,9.24,9.24,0,0,1-10.92,3.2,9.32,9.32,0,0,1-3.85-3.07,8.85,8.85,0,0,1-1.43-3,3.67,3.67,0,0,1-.15-1.21,11.68,11.68,0,0,0,1.9,4,9.32,9.32,0,0,0,3.73,2.82,8.89,8.89,0,0,0,10.29-3,9.19,9.19,0,0,0,1.63-4.39A12,12,0,0,0,319.19,225.67Z"/><path class="cls-6" d="M38.46,194.59c-7.21-2.38-10-12.86-1.93-16.18,5-2.07,9.61-.61,13.32-5.55,5.53-7.36,1.37-19.74-7.89-21.64-2.42-.5-4.46,2.42-2.52,4.32,2.3,2.24,5.29,3.94,6.36,7.18a6.53,6.53,0,0,1-4.22,8.55c-2.56.86-5.22.54-7.74,1.73a14,14,0,0,0-5.6,4.87A12.61,12.61,0,0,0,38,197.7c1.86.12,2.05-2.57.42-3.11Z"/><path class="cls-21" d="M138.89,79.52l-.38-.11a2.59,2.59,0,1,0,0,5l.38-.11a2.47,2.47,0,0,0,0-4.77Z"/><path class="cls-21" d="M68.73,81.63c-3.7,3.52-5.19,8.92-1.67,13.21a10.35,10.35,0,0,0,13.86,1.71c9.93-7.5-.29-22.38-11.11-19a2.09,2.09,0,0,0,.56,4.09c2.94.27,6.09.29,8.48,2.33a6,6,0,0,1,.5,8.32c-5.41,6.66-14.74-3.31-9.17-9.19a1,1,0,0,0-1.45-1.45Z"/><path class="cls-4" d="M337.74,117.78c-1.31,6.37-2.4,12.75-3.4,19.18a2.37,2.37,0,0,0,2.86,2.86c6-.88,12.07-1.64,18-3a2.18,2.18,0,0,0,1.29-3.17c-3.35-5.87-7.69-14.64-14.14-17.64-2-.92-4.65,1.08-3.25,3.25,1.8,2.81,4.72,4.86,6.94,7.35a49,49,0,0,1,6.72,9.22l1.87-3.25c-6.29.54-12.46,1.71-18.68,2.79l3,2.25c.72-6.47,1.34-12.91,1.75-19.41a1.49,1.49,0,0,0-2.92-.39Z"/><path class="cls-4" d="M379.25,86.12c5.43,0,5.44-8.44,0-8.44s-5.44,8.44,0,8.44Z"/><path class="cls-21" d="M373.88,187.86c-3.64,0-6.5.52-8.86,3.56a10.28,10.28,0,0,0-1.61,9.5,11.83,11.83,0,0,0,16.91,6.56c6.23-3.6,7.9-11.56,4.62-17.77-3.83-7.25-13-9.1-19.8-5-2.87,1.75-.36,5.81,2.59,4.44,3.85-1.77,8.76-1.77,11.91,1.34s3.5,8,.2,11.22c-3,2.88-7.58,3.09-10.4-.14-3.16-3.61-.8-11,4.44-11.37,1.5-.11,1.53-2.38,0-2.36Z"/><path class="cls-22" d="M212.16,128a94.29,94.29,0,0,0,2.94-19.46c.07-2.42-3.79-3-4.28-.58a94.48,94.48,0,0,0-1.54,19.65,1.47,1.47,0,0,0,2.88.39Z"/><path class="cls-22" d="M203.65,284a95,95,0,0,0,2.94-19.46c.07-2.42-3.8-3-4.29-.58a94.47,94.47,0,0,0-1.53,19.65,1.47,1.47,0,0,0,2.88.39Z"/><path class="cls-4" d="M147.36,35.48A95.07,95.07,0,0,0,150.3,16c.07-2.42-3.79-3-4.29-.58a95.1,95.1,0,0,0-1.53,19.65,1.47,1.47,0,0,0,2.88.39Z"/><path class="cls-22" d="M265.9,69.63a3.44,3.44,0,0,0-.75-1.31,4.5,4.5,0,0,0-.79-.56,2.68,2.68,0,0,0-3.18.41,2.71,2.71,0,0,0-.41,3.18A2.83,2.83,0,0,0,265,72.42a2.63,2.63,0,0,0,.95-2.79Z"/><path class="cls-4" d="M16.6,119.24a1.22,1.22,0,0,0,0-2.43,1.22,1.22,0,0,0,0,2.43Z"/><path class="cls-22" d="M68.42,203.61l-.23.14a2.66,2.66,0,0,0,0,4.53l.23.15a2.79,2.79,0,1,0,0-4.82Z"/><path class="cls-6" d="M212.84,219.88l-.05.11a3,3,0,0,0,3.66,3.66l.12,0a3.18,3.18,0,0,0,2.11-2.12,3,3,0,0,0-3.73-3.73,3.16,3.16,0,0,0-2.11,2.12Z"/><path class="cls-22" d="M326.72,169.46c4.43,0,4.43-6.88,0-6.88s-4.43,6.88,0,6.88Z"/><path class="cls-22" d="M383.33,122.88a1.78,1.78,0,0,0,0-3.56,1.78,1.78,0,0,0,0,3.56Z"/><path class="cls-5" d="M191.4,73.33c4.74.21,9.26-1.66,13.73-3.06s9.37-2.56,13.69-4.67c3-1.44.79-5.66-2.13-5.06-5.07,1.05-10,3.39-14.85,5.19-4,1.48-8,2.73-11.31,5.51-.86.73-.11,2.05.87,2.09Z"/><path class="cls-23" d="M98.31,128.77c12.59.77,25.36.26,38,.27s25.31.06,38,.13a.89.89,0,0,0,0-1.78q-19,.1-38,.13c-12.61,0-25.39-.5-38,.27a.49.49,0,0,0,0,1Z"/><path class="cls-23" d="M98,135.44c12.59.76,25.36.26,38,.27s25.32,0,38,.12a.89.89,0,0,0,0-1.77q-19,.1-38,.12c-12.6,0-25.38-.49-38,.28a.49.49,0,0,0,0,1Z"/><path class="cls-23" d="M96.56,141.36c14.82,1,29.92.26,44.78.4a.89.89,0,0,0,0-1.78c-14.86.14-30-.63-44.78.4a.49.49,0,0,0,0,1Z"/><polygon class="cls-5" points="273.72 115.39 278.62 125.32 288.78 122.96 280.61 131.45 284.48 141.17 275.4 135.24 268.67 140.29 270.19 131.45 263.13 126.63 272.18 125.32 273.72 115.39"/><g class="cls-24"><polyline class="cls-25" points="342.9 506.27 367.5 504.72 324.01 350.87 311.69 399.3 341.22 506.27"/><path class="cls-26" d="M336.92,309.59c-19.46,72.59-46.93,199-46.93,199l-27-1.9c8.77-35.49,30.42-176.12,33.17-194.86Z"/><g class="cls-27"><path class="cls-28" d="M289.63,423.83c.38.08.45,1.34.14,2.81s-.86,2.61-1.25,2.53-.45-1.34-.15-2.81S289.24,423.75,289.63,423.83Z"/><path class="cls-28" d="M291.86,413.14c.39.08.45,1.34.14,2.82s-.87,2.6-1.26,2.52-.45-1.34-.14-2.82S291.47,413.06,291.86,413.14Z"/><path class="cls-28" d="M294.13,402.45c.38.09.44,1.35.13,2.82s-.88,2.61-1.27,2.52-.45-1.34-.13-2.82S293.74,402.37,294.13,402.45Z"/><path class="cls-28" d="M296.42,391.78c.39.08.44,1.34.12,2.82s-.88,2.6-1.27,2.51-.44-1.34-.12-2.82S296,391.69,296.42,391.78Z"/><path class="cls-28" d="M298.75,381.1c.38.09.43,1.35.11,2.82s-.89,2.6-1.28,2.52-.44-1.35-.12-2.82S298.36,381,298.75,381.1Z"/><path class="cls-28" d="M301.1,370.44c.39.09.44,1.35.11,2.82s-.9,2.6-1.29,2.51-.43-1.35-.11-2.82S300.72,370.36,301.1,370.44Z"/><path class="cls-28" d="M303.49,359.78c.38.09.43,1.35.1,2.82s-.91,2.6-1.3,2.51-.43-1.35-.1-2.82S303.1,359.7,303.49,359.78Z"/><path class="cls-28" d="M305.9,349.13c.39.09.43,1.35.1,2.82s-.92,2.6-1.31,2.51-.42-1.35-.09-2.82S305.52,349.05,305.9,349.13Z"/><path class="cls-28" d="M308.35,338.49c.39.09.42,1.35.08,2.82s-.92,2.59-1.31,2.5-.42-1.35-.08-2.82S308,338.4,308.35,338.49Z"/><path class="cls-28" d="M310.83,327.85c.38.09.42,1.36.07,2.83s-.93,2.58-1.31,2.49-.42-1.35-.08-2.82S310.44,327.76,310.83,327.85Z"/><path class="cls-28" d="M313.34,317.22c.38.1.41,1.36.06,2.83s-.94,2.58-1.32,2.49-.42-1.36-.07-2.82S313,317.13,313.34,317.22Z"/><path class="cls-28" d="M315.24,309.24c.38.1.55.77.38,1.51s-.64,1.26-1,1.17-.55-.77-.38-1.51S314.86,309.15,315.24,309.24Z"/></g><path class="cls-28" d="M327.49,356.17c.2.06-.52,2.94-1.73,7.56s-2.86,11-4.68,18.06-3.48,13.46-4.79,18.06-2.22,7.42-2.41,7.37.38-3,1.43-7.62,2.57-11.09,4.38-18.16,3.64-13.43,5.1-18S327.31,356.12,327.49,356.17Z"/><g class="cls-27"><path class="cls-28" d="M323.12,387.11c-.37.12-1.07-.94-1.55-2.38s-.58-2.7-.21-2.83,1.08.94,1.56,2.37S323.5,387,323.12,387.11Z"/><path class="cls-28" d="M326.64,397.52c-.38.12-1.08-.94-1.56-2.38s-.58-2.7-.2-2.83,1.07.94,1.56,2.38S327,397.39,326.64,397.52Z"/><path class="cls-28" d="M330.15,407.93c-.37.13-1.07-.94-1.56-2.37s-.57-2.71-.2-2.84,1.07.94,1.56,2.38S330.52,407.8,330.15,407.93Z"/><path class="cls-28" d="M333.66,418.34c-.37.13-1.07-.93-1.55-2.37s-.58-2.71-.2-2.83,1.07.93,1.55,2.37S334,418.22,333.66,418.34Z"/><path class="cls-28" d="M337.18,428.75c-.38.13-1.07-.93-1.56-2.37s-.57-2.71-.2-2.83,1.07.93,1.56,2.37S337.55,428.63,337.18,428.75Z"/></g><path class="cls-9" d="M100.22,320.74c.54,3.39,6.52,116.32,13.54,189.69h27.9s-13.79-169.32-10.53-169.61c3.77-.32,35.57,169.61,35.57,169.61h26.63L152.81,315.82Z"/><path class="cls-28" d="M126.82,503.35a8.87,8.87,0,0,1-.33-1.82c-.17-1.2-.4-3-.68-5.25-.56-4.56-1.28-11.18-2.11-19.36-1.67-16.36-3.65-39-5.31-64s-2.7-47.74-3.21-64.17c-.26-8.22-.42-14.87-.46-19.47,0-2.3,0-4.09,0-5.3a8.69,8.69,0,0,1,.09-1.84A8.51,8.51,0,0,1,115,324c.08,1.2.18,3,.29,5.28.22,4.62.53,11.25.92,19.45.77,16.41,2,39.09,3.62,64.12s3.49,47.65,4.9,64c.7,8.17,1.26,14.79,1.66,19.39.19,2.29.33,4.07.41,5.28A9.26,9.26,0,0,1,126.82,503.35Z"/><path class="cls-28" d="M177.3,504.37a9.18,9.18,0,0,1-.5-1.83c-.28-1.2-.67-3-1.16-5.3-1-4.6-2.32-11.29-3.9-19.56-3.18-16.54-7.25-39.45-11.84-64.73s-9-48.13-12.48-64.6c-.83-4.13-1.66-7.85-2.35-11.12s-1.31-6.07-1.81-8.38-.87-4.09-1.11-5.31a9.61,9.61,0,0,1-.3-1.87,8.68,8.68,0,0,1,.58,1.8c.33,1.2.79,3,1.37,5.25s1.29,5.08,2,8.34,1.66,7,2.56,11.07c3.71,16.44,8.31,39.26,12.89,64.56s8.51,48.22,11.43,64.81c1.46,8.27,2.64,15,3.45,19.64.41,2.32.71,4.12.9,5.35A9.35,9.35,0,0,1,177.3,504.37Z"/><path class="cls-28" d="M109.09,322.64c.16-.06.69.81.91,2.41a10,10,0,0,1-5.91,10.31c-1.49.63-2.51.61-2.54.44s.84-.55,2.07-1.34A11.24,11.24,0,0,0,109,325.1C109,323.64,108.88,322.7,109.09,322.64Z"/><path class="cls-28" d="M134.38,338.48c.08,0,.09.4-.33.89a2.69,2.69,0,0,1-2.52.73,2.49,2.49,0,0,1-1.62-1.17,5.55,5.55,0,0,1-.63-2c-.24-1.29-.47-2.71-.7-4.2-.9-6-1.32-10.84-.93-10.9s1.44,4.73,2.35,10.69c.22,1.49.42,2.91.58,4.21a4.65,4.65,0,0,0,.37,1.58,1.44,1.44,0,0,0,.85.78,2.3,2.3,0,0,0,1.89-.19C134.1,338.69,134.28,338.43,134.38,338.48Z"/><path class="cls-28" d="M156.55,333.06c0,.17-.93.36-2.41.06a9.29,9.29,0,0,1-2.48-.9,11.57,11.57,0,0,1-2.61-1.92,11.85,11.85,0,0,1-1.93-2.59,9.35,9.35,0,0,1-.92-2.47c-.31-1.48-.13-2.41,0-2.41s.41.85.92,2.11a13.1,13.1,0,0,0,7.27,7.22C155.69,332.66,156.56,332.84,156.55,333.06Z"/></g><path class="cls-29" d="M325.11,349.38s-4.8,5.14-5.45,5.9c-3.76,4.44,0,1.87,1.78,1.34,1.54-.47-2.57,10.41-1.15,10s2.87-5.71,2.87-5.71-1.67,7.33-.14,5.79,2.87-5.73,2.87-5.73-1.43,7.63-.14,6a16.09,16.09,0,0,0,2.14-4.45s-.63,6.59.51,4.74,8.52-16.88,8.52-16.88Z"/><path class="cls-5" d="M317.46,249.45s18.74,30.87,16.36,48.72c-1.81,13.6-11.93,51.92-11.93,51.92l15.41,5.62s13-40.35,13.71-63.48-19.27-55.42-19.27-55.42l-14.28,12.64"/><path class="cls-20" d="M333.09,238.47a9.06,9.06,0,0,0-3.34,0,9.86,9.86,0,0,0-3.58,1.52,11.92,11.92,0,0,0-3.51,3.75,13.22,13.22,0,0,0-1.73,6,23.52,23.52,0,0,0,.76,7.18c1.24,5,3.62,10.15,5.95,15.62s4.38,10.84,5.15,16a49.62,49.62,0,0,1,0,13.73,90.09,90.09,0,0,1-1.64,9.1c-.26,1.06-.46,1.88-.61,2.44a8.63,8.63,0,0,1-.25.84,4.88,4.88,0,0,1,.14-.87c.12-.61.29-1.43.5-2.46.41-2.14,1-5.23,1.46-9.1a50.65,50.65,0,0,0-.16-13.59c-.79-5.08-2.82-10.4-5.16-15.86S322.41,262,321.18,257a23.73,23.73,0,0,1-.73-7.33,13.56,13.56,0,0,1,1.86-6.14,12.28,12.28,0,0,1,3.68-3.82,9.86,9.86,0,0,1,3.73-1.47,7.65,7.65,0,0,1,2.52,0A4.63,4.63,0,0,1,333.09,238.47Z"/><path class="cls-20" d="M280.92,226.93a4.51,4.51,0,0,1,.18-2.19c.26-1.17.59-2.1.75-2.06a4.41,4.41,0,0,1-.19,2.18C281.41,226,281.08,227,280.92,226.93Z"/><path class="cls-20" d="M290,228.77c-.16,0-.33-.6-.38-1.36s0-1.4.2-1.41.32.6.37,1.37S290.13,228.76,290,228.77Z"/><path class="cls-20" d="M293.11,240.22c-.12.11-.79-.47-1.51-1.29s-1.19-1.56-1.08-1.66.8.47,1.51,1.29S293.23,240.12,293.11,240.22Z"/><path class="cls-20" d="M298.08,238.19c-.15,0-.12-.81.09-1.73s.49-1.63.64-1.6.12.81-.08,1.73S298.23,238.22,298.08,238.19Z"/><path class="cls-20" d="M299.57,253.52c-.14.08-.83-.89-1.54-2.17a6.25,6.25,0,0,1-1-2.45c.14-.07.83.9,1.55,2.17A6.38,6.38,0,0,1,299.57,253.52Z"/><path class="cls-20" d="M308.6,251.85c-.15,0-.07-.82.18-1.74s.59-1.63.74-1.59.07.82-.18,1.74S308.75,251.89,308.6,251.85Z"/><path class="cls-20" d="M298.84,267.74c-.12.1-.88-.56-1.7-1.47s-1.38-1.75-1.26-1.86.87.56,1.69,1.48S299,267.63,298.84,267.74Z"/><path class="cls-20" d="M304,245.21c-.15-.06,0-.8.28-1.67s.68-1.53.82-1.47,0,.8-.28,1.66S304.16,245.26,304,245.21Z"/><path class="cls-20" d="M305.3,263.49c-.13.09-.81-.62-1.52-1.58s-1.19-1.83-1.07-1.93.81.62,1.53,1.59S305.43,263.4,305.3,263.49Z"/><path class="cls-20" d="M317,257.61c.14.08-.18.88-.7,1.79s-1.06,1.58-1.19,1.5.17-.88.7-1.79S316.84,257.53,317,257.61Z"/><path class="cls-20" d="M318.4,241.68c.1.12-.35.68-1,1.24s-1.28.92-1.39.8.36-.67,1-1.23S318.3,241.56,318.4,241.68Z"/><path class="cls-20" d="M326.36,235.23c-.09.13-.78-.18-1.55-.69s-1.31-1-1.22-1.16.78.17,1.54.68S326.45,235.09,326.36,235.23Z"/><path class="cls-20" d="M321.16,273.64c-.15-.07,0-.66.29-1.32s.67-1.15.81-1.08,0,.65-.29,1.32S321.3,273.7,321.16,273.64Z"/><path class="cls-20" d="M314.35,275.49c-.14.09-.78-.71-1.45-1.78s-1.09-2-.95-2.09.78.71,1.44,1.79S314.48,275.41,314.35,275.49Z"/><path class="cls-20" d="M301.42,282.51c-.14.08-.67-.65-1.18-1.62s-.81-1.81-.67-1.89.67.66,1.18,1.63S301.56,282.44,301.42,282.51Z"/><path class="cls-20" d="M305.84,273.09c.14.06-.09.89-.53,1.85s-.9,1.68-1,1.61.09-.89.52-1.85S305.69,273,305.84,273.09Z"/><path class="cls-20" d="M298.94,295c-.12.1-.7-.36-1.3-1s-1-1.3-.88-1.41.7.36,1.3,1S299.06,294.85,298.94,295Z"/><path class="cls-20" d="M309,289.71c.12.11-.4.9-1.17,1.76s-1.48,1.49-1.6,1.39.41-.9,1.17-1.76S308.88,289.61,309,289.71Z"/><path class="cls-20" d="M302.32,289.18c-.12.1-.73-.43-1.35-1.19s-1-1.45-.9-1.55.72.43,1.34,1.19S302.44,289.08,302.32,289.18Z"/><path class="cls-20" d="M304.76,302.82c-.14.07-.5-.4-.8-1.05s-.42-1.22-.27-1.28.5.4.79,1S304.9,302.75,304.76,302.82Z"/><path class="cls-20" d="M299,306.53c0,.16-.76.4-1.65.85s-1.57.92-1.68.8.44-.83,1.43-1.31S299,306.38,299,306.53Z"/><path class="cls-20" d="M322.47,297.84c-.08.13-1.32-.63-2.34-2.08a4.92,4.92,0,0,1-1.16-2.9c.16-.06.67,1.22,1.63,2.57S322.58,297.71,322.47,297.84Z"/><path class="cls-20" d="M328.93,302.26c-.13-.1.51-1.13,1.43-2.3s1.77-2,1.89-1.95a6.63,6.63,0,0,1-1.44,2.3C329.89,301.49,329.05,302.36,328.93,302.26Z"/><path class="cls-20" d="M316.19,302.09c-.12.1-.89-.61-1.9-1.41s-1.87-1.4-1.79-1.55,1.1.26,2.15,1.1S316.31,302,316.19,302.09Z"/><path class="cls-20" d="M317.67,306.45a13.94,13.94,0,0,1-4,.45,13.76,13.76,0,0,1-4-.13,14.54,14.54,0,0,1,4-.44A14,14,0,0,1,317.67,306.45Z"/><path class="cls-20" d="M326.82,290.32a6.09,6.09,0,0,1,.93-2.45c.65-1.28,1.29-2.26,1.43-2.19a6.16,6.16,0,0,1-.92,2.45C327.6,289.41,327,290.39,326.82,290.32Z"/><path class="cls-20" d="M318.41,282.7a10.51,10.51,0,0,1-3.32-.84,10.32,10.32,0,0,1-3.14-1.38,10.51,10.51,0,0,1,3.32.84A10.32,10.32,0,0,1,318.41,282.7Z"/><path class="cls-20" d="M325.92,255.71a12.77,12.77,0,0,1,1.81-5,6.43,6.43,0,0,1-.64,2.6A6.35,6.35,0,0,1,325.92,255.71Z"/><path class="cls-20" d="M336.32,252.41c-.11.1-.79-.47-1.5-1.29s-1.2-1.56-1.08-1.66.79.47,1.51,1.29S336.44,252.31,336.32,252.41Z"/><path class="cls-20" d="M333.83,260.45c-.12.11-.92-.58-1.8-1.54s-1.5-1.82-1.39-1.92.93.58,1.81,1.54S334,260.35,333.83,260.45Z"/><path class="cls-20" d="M339.83,266.26c-.15,0-.07-.93.19-2s.58-1.91.74-1.88.07.94-.19,2S340,266.3,339.83,266.26Z"/><path class="cls-20" d="M332.82,272.17c-.1.12-.85-.32-1.66-1s-1.4-1.3-1.3-1.42.84.31,1.66,1S332.92,272.05,332.82,272.17Z"/><path class="cls-20" d="M343.34,279.37c-.14.07-.67-.83-1.18-2s-.81-2.17-.66-2.23.67.83,1.18,2S343.49,279.31,343.34,279.37Z"/><path class="cls-20" d="M339.83,284.54c-.11.12-.86-.45-1.68-1.27s-1.38-1.57-1.27-1.68.86.46,1.68,1.27S340,284.43,339.83,284.54Z"/><path class="cls-20" d="M346.67,290.08c.09.13-.42.65-1.13,1.16s-1.37.82-1.46.69.41-.65,1.13-1.16S346.58,290,346.67,290.08Z"/><path class="cls-20" d="M338.39,297.64c-.14.08-.79-.81-1.45-2a5.63,5.63,0,0,1-.95-2.26c.14-.08.79.81,1.45,2A5.64,5.64,0,0,1,338.39,297.64Z"/><path class="cls-20" d="M346.69,304.48a8.62,8.62,0,0,1-1.56-5.9,16,16,0,0,1,.8,2.95A15.5,15.5,0,0,1,346.69,304.48Z"/><path class="cls-20" d="M342.25,308.57c.12.1-.49.94-1.57,1.58s-2.11.75-2.14.6.85-.5,1.85-1.1S342.13,308.46,342.25,308.57Z"/><path class="cls-20" d="M335.77,307.08c-.15,0-.4-.52-.56-1.24s-.15-1.32,0-1.35.4.52.55,1.23S335.93,307,335.77,307.08Z"/><path class="cls-20" d="M335.22,323.88c-.16,0-.45-.68-.65-1.6s-.25-1.69-.09-1.72.44.68.65,1.6S335.37,323.85,335.22,323.88Z"/><path class="cls-20" d="M342.44,322.77c-.15.05-.61-.9-1-2.13a5,5,0,0,1-.47-2.3c.15,0,.61.9,1,2.12A5,5,0,0,1,342.44,322.77Z"/><path class="cls-20" d="M336,332.75a12,12,0,0,1-2.77-.13,11.34,11.34,0,0,1-2.76-.24,5.07,5.07,0,0,1,2.8-.33A5,5,0,0,1,336,332.75Z"/><path class="cls-20" d="M339.8,334c-.16,0-.24-.8-.2-1.77s.22-1.75.38-1.74.25.8.2,1.77S340,334,339.8,334Z"/><path class="cls-20" d="M332.08,340.69c0,.15-1,.11-2.08-.09s-2-.5-2-.65,1-.12,2.08.09S332.11,340.53,332.08,340.69Z"/><path class="cls-20" d="M338,344.16c.11.11-.67,1.1-1.75,2.21s-2.05,1.93-2.16,1.82.67-1.1,1.75-2.21S337.84,344.05,338,344.16Z"/><path class="cls-20" d="M328.57,345.85c0,.16-1,.49-2.25.75a5.26,5.26,0,0,1-2.37.18c0-.16,1-.49,2.25-.74A5.19,5.19,0,0,1,328.57,345.85Z"/><path class="cls-20" d="M281.47,237.64a4.84,4.84,0,0,1,0-2.26c.15-1.22.4-2.2.56-2.18s.16,1,0,2.26S281.63,237.66,281.47,237.64Z"/><path class="cls-20" d="M276.68,231.72c-.08.14-1.15-.37-2.24-1.31s-1.76-1.91-1.64-2,.95.67,2,1.58S276.76,231.59,276.68,231.72Z"/><path class="cls-20" d="M275.38,221a5.07,5.07,0,0,1,0-2.34,5.18,5.18,0,0,1,.56-2.27,4.93,4.93,0,0,1,0,2.34C275.79,220,275.54,221,275.38,221Z"/><path class="cls-20" d="M268.18,220.28c-.1.13-.89-.29-1.89-.74s-1.84-.77-1.8-.93,1-.07,2,.41S268.27,220.15,268.18,220.28Z"/><path class="cls-20" d="M285.14,217.51c-.16,0-.33-.65-.38-1.46s0-1.49.2-1.5.32.65.37,1.46S285.3,217.5,285.14,217.51Z"/><path class="cls-20" d="M292,220.83c-.11.12-.82-.38-1.71-.93s-1.67-1-1.61-1.1.95,0,1.91.61S292.11,220.72,292,220.83Z"/><path class="cls-20" d="M269.66,210.67a4.31,4.31,0,0,1,0-2.61,4.21,4.21,0,0,1,1.07-2.38,10.5,10.5,0,0,1-.51,2.5A10.13,10.13,0,0,1,269.66,210.67Z"/><path class="cls-20" d="M265.92,212.06c-.06.15-1.1-.16-2.32-.69s-2.14-1.08-2.08-1.23a5.37,5.37,0,0,1,2.31.7C265.05,211.37,266,211.92,265.92,212.06Z"/><path class="cls-20" d="M253.73,207.71c-.16,0-.13-.92.06-2s.47-1.92.63-1.9.13.92-.07,2S253.88,207.74,253.73,207.71Z"/><path class="cls-20" d="M259.5,198.3c-.05.15-.78.07-1.65-.19s-1.53-.58-1.49-.73.78-.07,1.65.18S259.54,198.15,259.5,198.3Z"/><path class="cls-20" d="M247.66,197.74a9.67,9.67,0,0,1,.65-3.22,9.88,9.88,0,0,1,1.19-3.06,9.19,9.19,0,0,1-.64,3.22A9.48,9.48,0,0,1,247.66,197.74Z"/><path class="cls-20" d="M246.18,192.42c-.09.13-.9-.26-1.82-.87s-1.59-1.21-1.5-1.34.9.25,1.82.87S246.27,192.29,246.18,192.42Z"/><path class="cls-20" d="M248.08,183.88c-.14.09-.84-.74-1.58-1.84s-1.24-2.07-1.11-2.16.84.74,1.58,1.84S248.21,183.79,248.08,183.88Z"/><path class="cls-20" d="M239.18,185a4,4,0,0,1-2.36-1.28c-1.12-1-1.65-2.16-1.51-2.23s.84.85,1.9,1.8S239.26,184.85,239.18,185Z"/><path class="cls-20" d="M243.62,183.52c-.11.12-.82-.36-1.58-1.08s-1.3-1.38-1.19-1.5.81.37,1.58,1.08S243.72,183.41,243.62,183.52Z"/><path class="cls-20" d="M237.9,176.14c-.15,0-.15-1,.39-2.11s1.34-1.71,1.44-1.59-.44.85-.93,1.84S238.06,176.16,237.9,176.14Z"/><path class="cls-20" d="M230.65,174.63c-.13-.08.3-1,1-2s1.31-1.77,1.44-1.68-.3,1-1,2S230.78,174.72,230.65,174.63Z"/><path class="cls-20" d="M230.5,172.44c0,.16-.95.11-2-.38s-1.65-1.16-1.54-1.28.84.32,1.78.77S230.54,172.28,230.5,172.44Z"/><path class="cls-20" d="M230.87,167.09c-.15,0-.2-.94-.1-2.06s.32-2,.47-2,.21.93.1,2.05S231,167.1,230.87,167.09Z"/><path class="cls-20" d="M122.28,229.2s.15,0,.42.11a5.63,5.63,0,0,1,1.08.56,7.19,7.19,0,0,1,2.8,3.5,6.86,6.86,0,0,1,.39,3.12,7.48,7.48,0,0,1-1.25,3.38,6.93,6.93,0,0,1-3.09,2.53,7.52,7.52,0,0,1-4.27.42,7.33,7.33,0,0,1-2.35-.91l.36,0a5.26,5.26,0,0,1-3.52,1.61,5.81,5.81,0,0,1-3.47-.87,7.61,7.61,0,0,1-3.31-4.8,10,10,0,0,1-.08-3.91,4.37,4.37,0,0,1,.36-1.37s-.07.5-.16,1.4a10.94,10.94,0,0,0,.25,3.79,7.35,7.35,0,0,0,3.21,4.46,5.3,5.3,0,0,0,3.16.76,4.79,4.79,0,0,0,3.14-1.45l.16-.18.2.13a6.85,6.85,0,0,0,6.1.45,6.4,6.4,0,0,0,2.87-2.31,7,7,0,0,0,1.22-3.14,6.39,6.39,0,0,0-.31-2.93,7.27,7.27,0,0,0-2.53-3.44C122.82,229.44,122.26,229.25,122.28,229.2Z"/><path class="cls-20" d="M213.08,179.13a40.17,40.17,0,0,1-10.45-10.35c.13-.1,2.27,2.4,5.15,5.25S213.18,179,213.08,179.13Z"/><path class="cls-20" d="M212.51,173c.12.1,0,.45-.28.77s-.59.51-.71.41,0-.45.27-.77S212.39,172.86,212.51,173Z"/><path class="cls-20" d="M113.66,291.55a7.85,7.85,0,0,1-1.21.72c-.79.43-1.94,1-3.38,1.74-2.88,1.44-6.89,3.35-11.38,5.32s-8.62,3.64-11.62,4.79c-1.5.57-2.73,1-3.58,1.31a5.71,5.71,0,0,1-1.34.4,7.82,7.82,0,0,1,1.26-.61l3.51-1.48c3-1.24,7-3,11.54-4.93s8.52-3.82,11.43-5.16l3.46-1.58A6.21,6.21,0,0,1,113.66,291.55Z"/><path class="cls-20" d="M115,309.34a82.64,82.64,0,0,1-1.22-9.48,77.52,77.52,0,0,1-.66-9.55,84.29,84.29,0,0,1,1.23,9.49A78.48,78.48,0,0,1,115,309.34Z"/><path class="cls-20" d="M115,309.34a4.4,4.4,0,0,1-.76.91c-.53.55-1.32,1.32-2.35,2.22-2,1.8-5,4.14-8.33,6.6s-6.44,4.58-8.7,6.1c-1.13.75-2,1.35-2.7,1.75a4.55,4.55,0,0,1-1,.58,4.49,4.49,0,0,1,.91-.76l2.59-1.91,8.59-6.23c3.34-2.45,6.32-4.72,8.41-6.44S115,309.28,115,309.34Z"/><path class="cls-20" d="M94.29,269.55a4.86,4.86,0,0,1,.07,1.19V274c0,2.74,0,6.52.1,10.7s.27,8,.4,10.7l.15,3.24a4.53,4.53,0,0,1,0,1.2,5.46,5.46,0,0,1-.2-1.18c-.1-.76-.21-1.87-.33-3.24-.24-2.73-.47-6.52-.57-10.71s0-8,.07-10.72c.05-1.37.11-2.48.18-3.25A4.7,4.7,0,0,1,94.29,269.55Z"/></svg>