<svg xmlns="http://www.w3.org/2000/svg" xmlns:xlink="http://www.w3.org/1999/xlink" viewBox="0 0 425.2 425.2"><defs><style>.cls-1{fill:#ede6f5;}.cls-2{fill:#968abc;}.cls-3,.cls-9{fill:#fff;}.cls-3{opacity:0.57;}.cls-4{fill:#6e3281;}.cls-5{fill:#edc483;}.cls-6{fill:#8aa9fc;}.cls-7{fill:#e3707f;}.cls-8{fill:#e8947e;}.cls-10{fill:url(#Degradado_sin_nombre_6);}.cls-11{fill:url(#Degradado_sin_nombre_22);}.cls-12{fill:#7b72a0;}.cls-13{fill:#ffdca9;}.cls-14,.cls-15{fill:#d2a133;}.cls-15{opacity:0.45;}.cls-16{fill:#473a60;}.cls-17{fill:#ddd2f3;}</style><linearGradient id="Degradado_sin_nombre_6" x1="267.59" y1="285.36" x2="276.32" y2="315.37" gradientTransform="translate(-32.65 -29.13) rotate(-4.24)" gradientUnits="userSpaceOnUse"><stop offset="0.05" stop-color="#6bc1cd"/><stop offset="1" stop-color="#a8eba4"/></linearGradient><linearGradient id="Degradado_sin_nombre_22" x1="172.72" y1="243.71" x2="225.62" y2="243.71" gradientUnits="userSpaceOnUse"><stop offset="0" stop-color="#e58f7e"/><stop offset="0.14" stop-color="#e4857e"/><stop offset="0.7" stop-color="#e0637f"/><stop offset="1" stop-color="#de567f"/></linearGradient></defs><title>forgot</title><g id="Layer_2" data-name="Layer 2"><path class="cls-1" d="M273.06,380.78C321.35,362.24,359.4,327,377.88,275.45c10.53-29.34,21.33-60.57,12.63-90.5-11.54-39.66-52.69-67.9-94-66.37S217.08,150,203.67,189c-8.62,25.06-11.79,57.84-36.66,67-20.28,7.48-42.47-6.79-64-4.4C76.76,254.55,58.82,283.78,62.21,310S85.64,358,109,370.37c14.44,7.68,30.11,12.39,46.12,15.93a209.68,209.68,0,0,0,71.28,3.7C240.65,388.22,260.87,385.45,273.06,380.78Z"/><path class="cls-2" d="M137.39,192.64,141,356.21l225.13-7.1,2.92-189a13.28,13.28,0,0,0-15.2-13.35L151.08,176.43A16,16,0,0,0,137.39,192.64Z"/><path class="cls-1" d="M147.41,187.81,152.2,346l200.46-7.84s1.31-178.67,2.61-178.67S147.41,187.81,147.41,187.81Z"/><polygon class="cls-3" points="147.8 200.78 355.28 172.35 355.27 159.49 147.41 187.81 147.8 200.78"/><polygon class="cls-1" points="102.96 117.09 98.52 155.05 114.67 153.43 132.84 157.07 128.4 117.09 102.96 117.09"/><polygon class="cls-1" points="123.69 114.47 124.72 103.69 150.16 103.69 154.6 143.66 134.08 139.56 131.18 114.99 123.69 114.47"/><path class="cls-1" d="M108.83,117.92c-.14-2.7,1.11-7.9,6.81-8.2a6,6,0,0,1,4.67,1.61c2.39,2.36,2.23,6.41,2.23,6.58l-1.49-.06s.13-3.58-1.79-5.47a4.4,4.4,0,0,0-3.54-1.17c-5.66.3-5.42,6.38-5.4,6.63Z"/><path class="cls-1" d="M130.54,104.1c-.14-2.71,1.11-7.9,6.81-8.21A5.92,5.92,0,0,1,142,97.51c2.39,2.35,2.23,6.41,2.22,6.58l-1.48-.06s.12-3.58-1.79-5.47a4.43,4.43,0,0,0-3.55-1.18c-5.63.3-5.41,6.39-5.4,6.65Z"/><path class="cls-4" d="M266.72,147.63c.34-3.36.26-7,2.87-9.52s6.52-2.69,9.73-1.12c4.54,2.22,8.23,4.67,13.53,3.23,8.29-2.26,14-14.94,5.81-20.68-2.23-1.56-4.45,1-4.11,3.16.47,3,1.9,5.35.15,8.25-2,3.33-5.7,3.59-9,2.12-4.39-2-7.92-4.24-13-3.13-7.8,1.71-14.65,11.72-8.67,18.78,1,1.14,2.53.11,2.65-1.09Z"/><path class="cls-5" d="M298.62,21.32c.31,3.23,2.05,6.1,3.84,8.76,1.19,1.77,2.61,4.24,4.73,5,2.29.79,3.91-.37,5.72-1.59,3.44-2.3,6.79-4.73,10.16-7.13a3.1,3.1,0,0,0,1.09-4.16Q320,15.72,315.77,9.26C314.94,8,313,7.18,311.61,8.17c-3.51,2.48-7.32,4.77-10.47,7.69-2.45,2.26.66,5.93,3.44,4.47,3.57-1.88,6.81-4.57,10.1-6.9l-4.16-1.1,8.39,12.92L320,21.08q-2.85,2-5.69,4.06c-.82.59-4.86,4.19-5.66,4s-3.13-3.9-3.79-4.66a18.57,18.57,0,0,0-4.47-4.2,1.18,1.18,0,0,0-1.77,1Z"/><path class="cls-6" d="M257.7,65.34c-4.5,4.3-6.27,10.92-2,16.13a12.59,12.59,0,0,0,16.87,2c12.14-9.2-.43-27-13.56-23.13-2.69.8-2,4.51.64,4.71,3.67.29,7.61.36,10.57,2.92a7.5,7.5,0,0,1,.63,10.49c-6.79,8.36-18.55-4.07-11.49-11.5a1.18,1.18,0,0,0-1.67-1.67Z"/><path class="cls-6" d="M407.57,96c-4.5,4.29-6.28,10.91-2,16.12a12.57,12.57,0,0,0,16.86,2c12.14-9.2-.42-27-13.55-23.13a2.41,2.41,0,0,0,.63,4.71c3.68.29,7.61.36,10.58,2.92a7.51,7.51,0,0,1,.63,10.49c-6.79,8.36-18.56-4.07-11.49-11.5A1.18,1.18,0,0,0,407.57,96Z"/><path class="cls-7" d="M334.56,106.43c-1.57,7.87-2.89,15.74-4.12,23.66a2.73,2.73,0,0,0,3.29,3.3c7.45-1.08,14.87-2,22.21-3.73a2.51,2.51,0,0,0,1.48-3.65c-4.12-7.24-9.46-17.94-17.38-21.67-2.28-1.07-5.35,1.25-3.74,3.74,2.23,3.44,5.8,6,8.53,9a61.59,61.59,0,0,1,8.3,11.42l2.15-3.74c-7.73.7-15.32,2.11-23,3.45l3.39,2.58c.89-8,1.68-15.92,2.22-23.92.13-1.91-3-2.35-3.36-.46Z"/><path class="cls-8" d="M355.76,58.59a125.1,125.1,0,0,0-23.89,3.82c-2.62.74-2.23,5.27.67,4.93a125,125,0,0,0,23.67-5.43c1.72-.56,1.54-3.46-.45-3.32Z"/><path class="cls-5" d="M387.15,131.13a121.38,121.38,0,0,0,9.28,22.35c1.37,2.42,5.56.8,4.59-1.93a121,121,0,0,0-10.78-21.72c-1-1.59-3.69-.57-3.09,1.3Z"/><path class="cls-4" d="M391.42,63.67a3.32,3.32,0,0,0-1.48-1.46,3.08,3.08,0,0,0-3.69.47,3.13,3.13,0,0,0-.47,3.69,3.48,3.48,0,0,0,1.45,1.49,3.32,3.32,0,0,0,2,.36,2.92,2.92,0,0,0,1.76-.84,3.73,3.73,0,0,0,.78-1.35,3.23,3.23,0,0,0-.31-2.36Z"/><polygon class="cls-9" points="246.33 211.21 246.33 223.68 334.36 216.88 334.36 204.24 246.33 211.21"/><polygon class="cls-9" points="246.33 229.49 246.33 240.98 314.75 236.4 314.75 225.29 246.33 229.49"/><polygon class="cls-10" points="246.75 255.88 247.65 268.05 281.77 265.52 281.46 252.75 246.75 255.88"/><path class="cls-2" d="M156.24,193.66a1.77,1.77,0,1,1-1.77-1.77A1.78,1.78,0,0,1,156.24,193.66Z"/><path class="cls-2" d="M162.2,192.73a1.77,1.77,0,1,1-1.77-1.78A1.77,1.77,0,0,1,162.2,192.73Z"/><circle class="cls-2" cx="166.62" cy="191.89" r="1.77"/><path class="cls-11" d="M186.51,219.24s1.51,9.22,10.47,9.54c8.51.31,8.51-10.77,8.51-10.77l20.13,10.46L222.54,241l-8.31-3.58,2.49,30.77-33.9,1.25-.61-29.86-5.2,4.16-4.29-11.25Z"/><polygon class="cls-12" points="0 369.16 0 375.45 169.84 372.3 366.15 349.11 0 369.16"/><polygon class="cls-2" points="366.15 349.11 161.07 366.37 0 369.16 141.03 356.21 366.15 349.11"/><rect class="cls-13" x="319.49" y="289.98" width="101.73" height="69.15" rx="5.58" ry="5.58"/><path class="cls-14" d="M346.29,309.11a8.17,8.17,0,1,1-8.17-8.17A8.17,8.17,0,0,1,346.29,309.11Z"/><path class="cls-15" d="M354.76,309.11a8.18,8.18,0,1,1-8.17-8.17A8.17,8.17,0,0,1,354.76,309.11Z"/><polygon class="cls-14" points="319.58 332.29 421.31 332.29 421.31 345.07 319.58 342.75 319.58 332.29"/><polygon class="cls-2" points="183.07 289.98 183.07 327.05 220.01 324.56 218.77 287.56 183.07 289.98"/><polygon class="cls-2" points="228.28 288.43 228.28 325.5 265.22 323.01 263.98 286.01 228.28 288.43"/><polygon class="cls-2" points="273.73 286.57 273.73 323.64 310.67 321.14 309.43 284.15 273.73 286.57"/><path class="cls-16" d="M86.44,143.82c-.38-.25.13-1.62,1.13-3.07s2.1-2.39,2.47-2.13-.14,1.64-1.12,3.07S86.82,144.07,86.44,143.82Z"/><path class="cls-16" d="M80.09,154.73c-.41-.2-.06-1.62.78-3.17s1.84-2.61,2.23-2.38.05,1.65-.78,3.17S80.5,154.93,80.09,154.73Z"/><path class="cls-16" d="M75.36,166.43c-.44-.13-.31-1.58.28-3.25s1.42-2.87,1.84-2.69.29,1.62-.29,3.24S75.79,166.56,75.36,166.43Z"/><path class="cls-16" d="M73,178.81c-.45,0-.71-1.49-.47-3.25s.89-3.09,1.34-3,.52,1.53.29,3.23S73.41,178.84,73,178.81Z"/><path class="cls-16" d="M73.49,191.4c-.45.09-1.07-1.27-1.26-3s.14-3.22.59-3.24.87,1.37,1.05,3.07S73.94,191.32,73.49,191.4Z"/><path class="cls-16" d="M77.45,203.35c-.4.22-1.41-.89-2.1-2.54s-.77-3.15-.34-3.28,1.2,1.07,1.86,2.64S77.85,203.14,77.45,203.35Z"/><path class="cls-16" d="M85.28,213.16c-.28.36-1.67-.25-2.93-1.55s-1.86-2.68-1.5-3,1.49.6,2.67,1.8S85.55,212.8,85.28,213.16Z"/><path class="cls-16" d="M96.82,217.73c0,.44-1.51.83-3.31.41s-3-1.34-2.83-1.74,1.57-.21,3.19.14S96.81,217.26,96.82,217.73Z"/><path class="cls-16" d="M108.1,212.86c.34.29-.38,1.68-1.91,2.75s-3.07,1.27-3.23.86,1-1.27,2.29-2.21S107.75,212.56,108.1,212.86Z"/><path class="cls-16" d="M110.34,201.17c.39-.22,1.44,1,1.65,2.94s-.54,3.35-1,3.23-.48-1.48-.66-3.05S109.93,201.37,110.34,201.17Z"/><path class="cls-16" d="M100.64,193.77c.07-.44,1.64-.53,3.33.24s2.67,2,2.39,2.34-1.57-.17-3.06-.84S100.56,194.23,100.64,193.77Z"/><path class="cls-16" d="M88.84,196.82c-.3-.33.59-1.61,2.23-2.48s3.21-.9,3.31-.46-1.09,1.12-2.53,1.91S89.15,197.17,88.84,196.82Z"/><path class="cls-16" d="M82.43,207.47c-.44-.09-.48-1.62.2-3.31s1.79-2.77,2.16-2.53,0,1.59-.63,3.14S82.88,207.57,82.43,207.47Z"/><path class="cls-16" d="M82.89,220c-.42.14-1.21-1.15-1.52-2.93s0-3.27.46-3.28.87,1.34,1.16,3S83.33,219.82,82.89,220Z"/><path class="cls-16" d="M88.49,231.23c-.37.26-1.51-.7-2.43-2.23s-1.24-3-.83-3.19,1.35.88,2.24,2.34S88.86,231,88.49,231.23Z"/><path class="cls-16" d="M96.81,240.71c-.3.33-1.61-.37-2.85-1.64s-1.9-2.59-1.56-2.89,1.54.52,2.74,1.75S97.12,240.37,96.81,240.71Z"/><path class="cls-16" d="M106.92,248.24c-.22.39-1.65,0-3.13-1s-2.4-2.14-2.13-2.5,1.61.18,3,1.13S107.15,247.84,106.92,248.24Z"/><path class="cls-16" d="M118.49,253.23c-.12.44-1.61.41-3.28-.2s-2.84-1.52-2.66-1.93,1.61-.19,3.22.39S118.61,252.79,118.49,253.23Z"/><path class="cls-16" d="M131,255c0,.46-1.44.84-3.22.71s-3.15-.71-3.08-1.15,1.5-.61,3.2-.49S131,254.56,131,255Z"/><path class="cls-16" d="M143.42,253.22c.14.43-1.14,1.21-2.88,1.59s-3.23.21-3.28-.24,1.26-1,2.93-1.36S143.28,252.78,143.42,253.22Z"/><path class="cls-16" d="M154.73,247.72c.27.36-.69,1.52-2.23,2.43s-3,1.19-3.2.78.9-1.33,2.36-2.2S154.46,247.35,154.73,247.72Z"/><path class="cls-16" d="M170.63,118.8c0,.46-1.36.87-3.07,1s-3.13.05-3.21-.4,1.28-1.06,3-1.24S170.62,118.35,170.63,118.8Z"/><path class="cls-16" d="M183.2,119.75c-.09.45-1.53.53-3.23.31s-3.06-.69-3-1.15,1.49-.72,3.25-.48S183.29,119.31,183.2,119.75Z"/><path class="cls-16" d="M195.24,123.5c-.19.41-1.61.18-3.21-.42s-2.84-1.35-2.7-1.79,1.61-.37,3.27.25S195.43,123.08,195.24,123.5Z"/><path class="cls-16" d="M206.16,129.82c-.28.36-1.61-.19-3-1.13s-2.47-1.94-2.24-2.34,1.66,0,3.14,1S206.43,129.46,206.16,129.82Z"/><path class="cls-16" d="M215.31,138.48c-.36.29-1.51-.56-2.69-1.81s-1.94-2.47-1.63-2.8,1.62.38,2.83,1.68S215.66,138.19,215.31,138.48Z"/><path class="cls-16" d="M222.11,149.09c-.41.2-1.34-.9-2.18-2.4s-1.28-2.86-.9-3.11,1.47.76,2.34,2.31S222.52,148.9,222.11,149.09Z"/><path class="cls-16" d="M226.3,161c-.45.1-1.11-1.18-1.59-2.83s-.6-3.09-.17-3.24,1.26,1.07,1.75,2.78S226.74,160.89,226.3,161Z"/><path class="cls-16" d="M227.75,173.52c-.46,0-.82-1.4-.93-3.11s.1-3.14.55-3.2,1,1.33,1.1,3.1S228.2,173.52,227.75,173.52Z"/><path class="cls-16" d="M226.34,186c-.44-.11-.47-1.54-.19-3.23s.8-3,1.26-3,.67,1.52.37,3.27S226.78,186.15,226.34,186Z"/><path class="cls-17" d="M111,128.13c0,.28-.65,13.32-.65,13.32H121l-1.49-13.32Z"/><path class="cls-17" d="M135.1,115.23c0,.28,1.37,13.32,1.37,13.32h8.59l-1.49-13.32Z"/></g></svg>