<svg id="Layer_1" data-name="Layer 1" xmlns="http://www.w3.org/2000/svg" xmlns:xlink="http://www.w3.org/1999/xlink" viewBox="0 0 425.2 425.2"><defs><style>.cls-1{fill:none;}.cls-2{fill:#66d7d1;}.cls-3{fill:url(#New_Pattern);}.cls-4{fill:#fed766;}.cls-5{fill:#ff7180;}.cls-6{fill:#ffaea6;}.cls-7{fill:#6f35a4;}.cls-8{fill:#9b7ede;}.cls-9{fill:#fff;}</style><pattern id="New_Pattern" data-name="New Pattern" width="14" height="19.5" patternTransform="translate(0 -1) scale(0.25)" patternUnits="userSpaceOnUse" viewBox="0 0 14 19.5"><rect class="cls-1" width="14" height="19.5"/><circle class="cls-2" cx="14" cy="19.5" r="2"/><circle class="cls-2" cy="19.5" r="2"/><circle class="cls-2" cx="7" cy="9.75" r="2"/><circle class="cls-2" cx="14" r="2"/><circle class="cls-2" r="2"/></pattern></defs><title>gantipassword</title><path class="cls-3" d="M365.88,352.5C401,315.3,421.48,261,422,209.81c.22-22.14-3.44-45-15.5-63.61s-33.85-31.9-55.84-29.3c-21.55,2.55-39.23,19.14-60.6,22.92-26.39,4.66-52.07-11.08-71.84-29.17S180.89,71,156.69,59.49C124.69,44.29,84.78,50.1,56,70.78S9.4,125.36,4.51,160.45s2.41,71.17,16.65,103.61,35.21,61.53,58.25,88.44"/><path class="cls-4" d="M381.61,147.21c.83,9.56.27,17.72-2.69,26.85a28.51,28.51,0,0,1-4.34,8.3l-6.81-5,4.43,7.8a22.35,22.35,0,0,1-13.75,6.9,33.66,33.66,0,0,1,23.16-44.81Z"/><path class="cls-5" d="M302.83,135.94l8.86,1.23-8.18,2.34c.18.81.39,1.61.62,2.38,1.82,6.11,4.83,12,9.48,16.38s12.2,7.34,18.55,6.69a38.51,38.51,0,0,0-30.8-43.24C301.78,126.14,302.07,131.21,302.83,135.94Z"/><path d="M345,255.75c-4.24-21.08-12.64-39.81-25-55.68l1.54-1.2a132.51,132.51,0,0,1,24.06,50.6,167.28,167.28,0,0,0-30.23-110.35L317,138A169,169,0,0,1,346.9,255.68Z"/><path d="M352.15,262.21l-1.95,0c.53-30.89,2.4-66.38,17.93-96.55l1.74.89C356.07,193.32,352.81,224.16,352.15,262.21Z"/><ellipse class="cls-2" cx="347.59" cy="303.92" rx="55.65" ry="48.57"/><rect class="cls-2" x="335.8" y="244.97" width="23.58" height="21.22" transform="translate(695.18 511.17) rotate(180)"/><polygon class="cls-6" points="158.65 198.46 215.67 196.78 201.99 123.71 162.56 124.87 162.09 133.53 160.69 160.16 158.65 198.46"/><path d="M160.68,160.16A44.93,44.93,0,0,0,198,138.49c-11.57-1.46-23.06-3.36-34.63-4.82-.43,0-.86-.11-1.3-.14Z"/><path class="cls-6" d="M131.51,110.07a44.47,44.47,0,0,0,23.67,32.5,45.41,45.41,0,0,0,40.28-.15,46.37,46.37,0,0,0,24.18-32.29c2.92,5.41,8.86,7.14,14.88,5.92s11-6,13.11-11.78a18.85,18.85,0,0,0-.2-13.69,15.87,15.87,0,0,0-10.1-9.06c-4.31-1.2-9.45-.76-12.83,2.12l-.46.42a53.24,53.24,0,0,0-.7-9.44,51.31,51.31,0,0,0-10.4-23.78A45.36,45.36,0,0,0,182.5,34a36.86,36.86,0,0,0-4.21-.19q-.56,0-1.11,0a40.85,40.85,0,0,0-6.6.78h0c-.25,0-.49.1-.74.15A39,39,0,0,0,150,45.71,44.08,44.08,0,0,0,142.81,56c-.88,1.7-1.68,3.46-2.41,5.25-.18.41-.34.82-.5,1.24-.71,1.8-1.35,3.63-1.94,5.48-1,3.13-1.89,6.32-2.72,9.46C132.42,88.09,129.86,99.16,131.51,110.07Z"/><path d="M228.87,103.82l-1.82-.58,1.23-12.39,1.95.2-.92,9.22a9.79,9.79,0,0,1,3.65-2,9.9,9.9,0,0,1,7.34.73l-.91,1.73a7.88,7.88,0,0,0-10.52,3.08Z"/><path d="M165.32,108.3a4,4,0,0,1-1.89-.47,3.79,3.79,0,0,1-2-2.2,8.4,8.4,0,0,1,.09-3.72l3.13-17.07,1.92.35-3.13,17.07a6.81,6.81,0,0,0-.12,2.86,2,2,0,0,0,1,1,2,2,0,0,0,1.62.14l.67,1.83A3.64,3.64,0,0,1,165.32,108.3Z"/><path d="M171.36,117a8.72,8.72,0,0,1-1.14-.07l.25-1.94a7.29,7.29,0,0,0,8.22-7l1.95,0a9.24,9.24,0,0,1-9.28,9Z"/><path d="M180.91,88.21c0,1.5.89,2.7,1.9,2.67s1.78-1.27,1.74-2.78-.9-2.71-1.9-2.68S180.86,86.7,180.91,88.21Z"/><path d="M149.27,86.1c0,1.51.9,2.71,1.9,2.68S153,87.5,152.91,86s-.89-2.7-1.9-2.67S149.23,84.59,149.27,86.1Z"/><path d="M148.39,77.94a10.62,10.62,0,0,1-3-.15c-1.67-.56-1.58-1.82,0-2.59a16.64,16.64,0,0,1,6-1c1.31,0,3.23-.09,4.3.52a1.45,1.45,0,0,1,.41,2.42C154.39,78.87,150.78,77.93,148.39,77.94Z"/><path d="M186.73,80.17a10.65,10.65,0,0,0,3.05.22c1.72-.36,1.78-1.63.26-2.58a16.78,16.78,0,0,0-5.8-1.73c-1.29-.21-3.2-.47-4.33,0a1.45,1.45,0,0,0-.69,2.35C180.66,80.38,184.37,79.88,186.73,80.17Z"/><path d="M237.8,55a16.38,16.38,0,0,1-17.64,3.33,18.38,18.38,0,0,1-4.47-30.68,16.82,16.82,0,0,1,16.81-2.74C243.32,29.37,245.81,46.86,237.8,55Z"/><path class="cls-4" d="M292.14,54.54A16.16,16.16,0,1,0,279,73.23,16.15,16.15,0,0,0,292.14,54.54Z"/><path d="M295.34,102.15a22.78,22.78,0,1,1,5.46-.66h0A23.1,23.1,0,0,1,295.34,102.15Zm0-43.57a20.8,20.8,0,1,0,20.21,15.85A20.64,20.64,0,0,0,295.38,58.58Z"/><path d="M71.58,147l-1.08-1.21,11.42-44.42,1.72-.35,30,38.81-.65,1.56Zm11.74-43.21L72.76,144.82l38.29-5.19Z"/><path class="cls-7" d="M276.72,259s-28.05-33-29.7-33.55-52.79-5.5-52.79-5.5S225.57,382.2,298.71,347c65.57-31.55-25.48-167.44-35.56-170.88s-52.31-4.28-52.31-4.28-27.17,25.41-51,2.67c0,0-41.46-.19-49.71,6.41S46.29,352.5,46.29,352.5h234"/><path class="cls-6" d="M188.47,180.53a13.5,13.5,0,0,1-.37-4.14,4.6,4.6,0,0,1,2-3.49c1.85-1.08,4.31-.17,5.82,1.35,2.11,2.12,3,5.13,4,8s2.38,5.77,5,7.18a9,9,0,0,0,7.81-.1,13.14,13.14,0,0,0,7.56-12.65,10,10,0,0,0-4-7.55c-2.44-1.66-5.52-1-8.38-.27-2.3.61-4.54.5-5.47-.95s-.71-3.38.31-5.37a10.6,10.6,0,0,1,4.89-4.44,16.29,16.29,0,0,1,23.46,15.09c4-9.27,10.51-22.14,15.28-20.63,5.73,1.8,1.09,21.52-2.61,34.4,3.88-9.32,11.26-24.53,17.26-22.27,9.11,3.45-13.84,62.63-13.84,62.63l-4.25,11L194.23,222C193,215.36,189.74,187.13,188.47,180.53Z"/><path d="M189.13,191.79c-.76-5.79-1.28-9.31-1.62-11.08a14.61,14.61,0,0,1-.38-4.44,5.57,5.57,0,0,1,2.5-4.21l1,1.68a3.64,3.64,0,0,0-1.55,2.76,12.58,12.58,0,0,0,.36,3.84c.34,1.81.87,5.37,1.64,11.2Z"/><path d="M244.69,187.19l-1.88-.54c8.37-29.12,4.61-32.78,3.25-33.2l.59-1.87C254.24,154,247.05,179,244.69,187.19Z"/><path d="M232.06,173.17l-1.95,0a15.32,15.32,0,0,0-22.06-14.2,9.7,9.7,0,0,0-4.45,4c-.53,1-1.28,3-.36,4.41l-1.64,1.05c-1.08-1.67-1-3.92.26-6.35a11.54,11.54,0,0,1,5.33-4.87,17.27,17.27,0,0,1,24.87,16Z"/><path d="M243.83,238.59l-1.82-.7,4.25-11c.05-.13,5-12.9,9.32-26.73,7.54-24.08,7-31.39,6-33.6a1.78,1.78,0,0,0-.93-1l.69-1.83a3.65,3.65,0,0,1,2,2.06c4.59,10.29-14.48,59.73-15.3,61.83Z"/><path d="M224.3,215.45l-2,0a19.63,19.63,0,0,0-13-18.14l.61-1.86A21.37,21.37,0,0,1,224.3,215.45Z"/><path class="cls-7" d="M276.72,259s-28.05-33-29.7-33.55-52.79-5.5-52.79-5.5S225.57,382.2,298.71,347c65.57-31.55-25.48-167.44-35.56-170.88"/><path d="M278.43,353a41.05,41.05,0,0,1-18.63-4.54c-19.22-9.66-36.27-34.21-50.66-73a395.63,395.63,0,0,1-15.87-55.31l1-1.16c8.56.83,51.34,5,53,5.55s19.11,20.88,29.7,33.33l10.46-3.57,1.28,1.07-2.14,13.9-1.93-.3,1.89-12.3L277,259.93l-1.06-.29c-10.37-12.2-27.37-31.86-29.32-33.26-2.13-.46-31.17-3.37-51.2-5.32,2.51,12,23.1,104.44,65.23,125.62,11.83,5.94,24.49,5.75,37.61-.56l.85,1.76A47.59,47.59,0,0,1,278.43,353Z"/><path d="M139.9,62.49c21.37,2.41,37.26-13.05,37.26-13.05C186.78,79.37,224,84.06,224,84.06a53.24,53.24,0,0,0-.7-9.44,51.31,51.31,0,0,0-10.4-23.78A45.36,45.36,0,0,0,182.5,34a36.86,36.86,0,0,0-4.21-.19q-.56,0-1.11,0a40.85,40.85,0,0,0-6.6.78h0c-.25,0-.49.1-.74.15A39,39,0,0,0,150,45.71,44.08,44.08,0,0,0,142.81,56c-.88,1.7-1.68,3.46-2.41,5.25C140.22,61.66,140.06,62.07,139.9,62.49Z"/><rect class="cls-4" x="21.76" y="203.91" width="99.87" height="125.07" transform="translate(143.4 532.89) rotate(180)"/><rect class="cls-8" x="21.76" y="203.91" width="99.87" height="12.93" transform="translate(143.4 420.75) rotate(180)"/><path class="cls-9" d="M40.76,304.08l-.16-1.95A40.85,40.85,0,0,0,77.74,266.8a22.11,22.11,0,0,1-15.35-13.61,13,13,0,0,1,.45-10,6.71,6.71,0,0,1,4.36-3.48c5.15-1.25,9.54,3.89,11.2,9.62a42.58,42.58,0,0,1,1.48,15.94,18.4,18.4,0,0,0,3.15.21,20,20,0,0,0,18.21-13.74l1.87.58a22,22,0,0,1-20,15.11,19.41,19.41,0,0,1-3.41-.22,42.8,42.8,0,0,1-38.9,36.9Zm27.78-62.6a4,4,0,0,0-.88.09,4.76,4.76,0,0,0-3.1,2.52,11.06,11.06,0,0,0-.33,8.44A20.08,20.08,0,0,0,78,264.85a41,41,0,0,0-1.43-15C74.7,243.56,71,241.48,68.54,241.48Z"/><path class="cls-9" d="M106.17,338.43a67.75,67.75,0,0,0,8.58,14.07H189c4.58-5.81,9.19-11.84,11.14-19,2-7.32.48-16.16-5.64-20.66a14.19,14.19,0,0,0-22.58,10.92c-1-11.67-5.31-23.33-13.56-31.64s-20.75-12.76-32.09-9.85c-11,2.82-19.61,12.21-22.94,23S101.55,328.1,106.17,338.43Z"/><path d="M223.45,353c-.17-.19-17.32-18.53-29-15.24-4.83,1.36-8.15,6.37-9.87,14.9l-1.89.11c-.12-.37-12.34-37.07-38-35.06l-.15-1.94c22.68-1.75,35.25,24.31,38.92,33.36,2.05-7.41,5.58-11.87,10.52-13.25,12.81-3.6,30.21,15,30.95,15.79Z"/></svg>