<?xml version="1.0" encoding="utf-8"?>
<!-- Generator: Adobe Illustrator 22.0.0, SVG Export Plug-In . SVG Version: 6.00 Build 0)  -->
<svg version="1.1" xmlns="http://www.w3.org/2000/svg" xmlns:xlink="http://www.w3.org/1999/xlink" x="0px" y="0px"
	 viewBox="0 0 1121 851.8" style="enable-background:new 0 0 1121 851.8;" xml:space="preserve">
<style type="text/css">
	.st0{fill:#E1D2F4;}
	.st1{fill:#FF7180;}
	.st2{fill:#7CAAFF;}
	.st3{fill:#7E2E83;}
	.st4{fill:#FAC480;}
	.st5{fill:#241352;}
	.st6{fill:#FFAEA6;}
	.st7{fill:#E5E1EA;}
	.st8{opacity:0.18;}
	.st9{opacity:0.13;}
	.st10{fill:#6F35A4;}
	.st11{fill:#FF947E;}
	.st12{fill:#FBF1FC;}
	.st13{opacity:0.44;}
	.st14{fill:url(#SVGID_1_);}
	.st15{fill:url(#SVGID_2_);}
</style>
<g id="_x38_13c2686-e70f-4fb0-bf6b-a2eb7b1db384">
</g>
<g id="Layer_2">
	<g>
		<g>
			<ellipse class="st0" cx="709.8" cy="238.2" rx="210.9" ry="213.6"/>
			<g>
				<path class="st1" d="M730.1,32.2c6.4-1.9,13.3-2.8,19.9-1.4c6.6,1.4,12.8,5.3,16.1,11.2c3.8,6.8,3.4,15,3,22.8
					c-1.2,19.4-2.3,38.9-3.5,58.3c-0.3,5.4-0.6,11,1.5,16c2.1,5,7.3,9.1,12.5,8c2.7-0.6,4.9-2.3,7.4-3.4c2.5-1,5.9-1.1,7.5,1.2
					c0.9,1.3,1,3.1,0.8,4.7c-0.8,7.2-5.2,13.9-11.4,17.4c3.7-1.8,8.3,2,8.3,6.1c0.1,4.1-3.2,7.7-7,9.2c-3.8,1.5-8,1.5-12.1,1.4
					c3.4,0.1,5.9,3.7,5.6,7.1c-0.3,3.4-3,6.2-6.1,7.5c-3.1,1.3-6.6,1.4-9.9,1.1c-7.1-0.7-14.2-3-19.8-7.5
					c-9.8-7.8-13.7-21.2-13.9-33.8c-0.1-12.6,3-25,4.7-37.5c4-29,0.7-58.5-2.6-87.6c0.8-0.2,1.6-0.5,2.4-0.7"/>
			</g>
			<g>
				<path class="st2" d="M768.3,465.8c-7.8,7.6-10.7,19.3-3.3,28.4c7,8.6,20.5,10.4,29.2,3.5c21.1-16.5-0.9-46.8-23.6-40.6
					c-4.2,1.2-3.2,7.2,1,7.5c6.6,0.4,13.8,0.6,19.1,5.4c5.7,5.1,5.8,13.6,1.1,19.5c-12.4,15.4-33.9-7.3-20.9-21.1
					C772.6,466.7,770,464.1,768.3,465.8L768.3,465.8z"/>
			</g>
			<g>
				<path class="st3" d="M527.6,381.9c-2.9-3.2-6.2-5.6-7.7-9.8c-2.9-8.4,2.7-12.6,9.3-15.8c6.7-3.2,12.2-6.9,14.1-14.6
					c3.1-12-7-26.9-19.9-23.3c-4.2,1.2-2.9,6.6-0.1,8.2c4,2.3,9.4,3.7,10,9.2c0.9,7.5-6.4,9.6-11.4,12.3c-5.5,2.9-9.6,7.3-11.4,13.4
					c-3,10.5,3.2,24.8,15.3,24.2C527.7,385.7,528.9,383.2,527.6,381.9L527.6,381.9z"/>
			</g>
			<g>
				<path class="st4" d="M487.8,510.7c1.1,7,8.2,21.7,15.7,23.8c4,1.1,7-1.6,10.1-3.8c5.7-3.9,11.2-8,16.8-12c2-1.5,3.2-4.3,1.7-6.7
					c-4.9-7.7-9.9-15.4-14.8-23.1c-1.3-2.1-4.4-3.3-6.6-1.7c-6.2,4.4-12.9,8.5-18.4,13.7c-3.8,3.6,1,9.4,5.4,7.1
					c6.3-3.4,12-8.2,17.9-12.4c-2.2-0.6-4.4-1.2-6.6-1.7c4.9,7.7,9.9,15.4,14.8,23.1c0.6-2.2,1.1-4.4,1.7-6.7
					c-3.4,2.4-6.7,4.8-10.1,7.3c-1.9,1.4-8.2,7.4-10.4,7.2c-1.9-0.2-5.9-7-7-8.4c-2.4-2.9-4.6-5.6-7.7-7.7
					C489,507.6,487.6,509.3,487.8,510.7L487.8,510.7z"/>
			</g>
			<g>
				<path class="st4" d="M829.5,193.9c1.1,7,8.2,21.7,15.7,23.8c4,1.1,7-1.6,10.1-3.8c5.7-3.9,11.2-8,16.8-12c2-1.5,3.2-4.3,1.7-6.7
					c-4.9-7.7-9.9-15.4-14.8-23.1c-1.3-2.1-4.4-3.3-6.6-1.7c-6.2,4.4-12.9,8.5-18.4,13.7c-3.8,3.6,1,9.4,5.4,7.1
					c6.3-3.4,12-8.2,17.9-12.4c-2.2-0.6-4.4-1.2-6.6-1.7c4.9,7.7,9.9,15.4,14.8,23.1c0.6-2.2,1.1-4.4,1.7-6.7
					c-3.4,2.4-6.7,4.8-10.1,7.3c-1.9,1.4-8.2,7.4-10.4,7.2c-1.9-0.2-5.9-7-7-8.4c-2.4-2.9-4.6-5.6-7.7-7.7
					C830.7,190.8,829.2,192.5,829.5,193.9L829.5,193.9z"/>
			</g>
			<g>
				<path class="st1" d="M858.9,319.6c-12.9,6.1-25.5,12.5-38.2,19c-3,1.6-3.5,4.8-1.2,7.3c9.3,9.7,18.4,19.4,28.3,28.4
					c1.9,1.7,5,0.7,6-1.5c6.2-13.6,15.5-32.2,13-47.7c-0.7-3.9-6.6-5.7-8.2-1.3c-2.5,6.9-2.5,14.6-4.1,21.7
					c-1.8,8.3-4.2,16.5-7.9,24.2c2.2-0.2,4.5-0.5,6.7-0.7c-9.1-10.4-18.9-20-28.7-29.6c-0.1,2.3-0.1,4.5-0.2,6.8
					c12.4-7,24.6-14.2,36.7-21.7C863.9,322.8,861.6,318.3,858.9,319.6L858.9,319.6z"/>
			</g>
			<g>
				<path class="st1" d="M620.5,499.3c9.3-10.5,18.8-22.2,26.1-34.3c2.3-3.8-3.4-8.2-6.3-4.7c-9,10.8-17.1,23.5-24,35.8
					C614.8,498.7,618.4,501.6,620.5,499.3L620.5,499.3z"/>
			</g>
			<g>
				<path class="st5" d="M933,125.2c-0.2-0.2-0.5-0.4-0.7-0.6c-3.1-2.8-8.3-3.4-11.3,0c-3.1,3.4-3,8.1,0,11.5
					c0.2,0.2,0.4,0.5,0.6,0.7c2.8,3.2,8.6,3.1,11.4,0C935.8,133.6,936.4,128.2,933,125.2L933,125.2z"/>
			</g>
			<g>
				<path class="st5" d="M566.4,429.8c-0.2-0.2-0.5-0.4-0.7-0.6c-3.1-2.8-8.3-3.4-11.3,0c-3.1,3.4-3,8.1,0,11.5
					c0.2,0.2,0.4,0.5,0.6,0.7c2.8,3.2,8.6,3.1,11.4,0C569.2,438.3,569.8,432.9,566.4,429.8L566.4,429.8z"/>
			</g>
			<path class="st6" d="M673.3,171.6l-139.9,53.1l13.4-57.2l-36.4-9.4c0,0-39.1,111.9-12,114.9c47.6,5.2,119.6-13.8,119.6-13.8
				L673.3,171.6z"/>
			<path class="st5" d="M624.7,299.9L625,412c36.4,45.4,163.3-13.3,163.3-13.3l1.5-45.8l2.9-109.2c-2.9-43.5-42.8-64.8-42.8-64.8
				c-16.5-8.3-41.6-13-64.3-11.9c-23.6,1.2-29.5,12.6-39.2,34.5C638.6,219.1,624.7,235.7,624.7,299.9z"/>
			<path class="st6" d="M744.3,61.4l-1.7,22.4c0,0,18.8,2.6,13.5,19.9c-5.4,17.4-18.2,9.8-18.2,9.8s-3.2,44.5-48.3,30.4
				c-35.9-11.2-33.7-58.3-29.1-98.3c1.8-15.5,16.3-26.2,31.4-23.2l27.1,5.3C734.6,30.8,745.5,45.3,744.3,61.4z"/>
			<path class="st6" d="M742.6,102.4L730.5,168c-2.7,14.8-17.1,24.2-31.5,20.7l0,0c-13.4-3.2-21.9-16.5-19.5-30.2l6.6-37.6
				L742.6,102.4z"/>
			<g>
				<g>
					<g>
						<path class="st5" d="M692.8,103.1c0.1,0,0.1,0.2,0,0.5c-0.1,0.3-0.4,0.8-1.1,1.1c-0.7,0.3-1.7,0.2-2.5-0.4
							c-0.4-0.3-0.8-0.7-1.1-1.1c-0.3-0.5-0.5-1-0.7-1.5c-0.8-2.2-0.7-4.8-0.5-7.4c0.1-2.7,0.2-5.6,0.4-8.7
							c0.8-12.4,2-22.4,2.7-22.4c0.7,0,0.7,10.1-0.1,22.5c-0.2,3.1-0.4,6-0.6,8.7c-0.2,2.7-0.5,5-0.1,6.8c0.2,0.9,0.5,1.5,1,2
							c0.4,0.4,1,0.6,1.4,0.6c0.4,0,0.7-0.3,0.9-0.4C692.5,103.2,692.7,103.1,692.8,103.1z"/>
					</g>
				</g>
			</g>
			<g>
				<g>
					<g>
						<path class="st5" d="M678.2,139.4c0.2-0.3,2.4,1.1,6.1,2.7c3.7,1.6,9.1,3.3,15.2,3.5c6.1,0.1,11.6-1.3,15.4-2.8
							c3.8-1.5,6-2.8,6.2-2.5c0.2,0.2-1.7,2.2-5.5,4.2c-3.7,2-9.6,3.9-16.2,3.7c-6.6-0.1-12.3-2.3-16-4.4
							C679.7,141.6,678,139.6,678.2,139.4z"/>
					</g>
				</g>
			</g>
			<g>
				<g>
					<g>
						<path class="st5" d="M687,112.3c0.3-0.3,1.3,0.7,3.2,1.5c1.8,0.8,4.7,1.4,7.5,0.5c2.8-0.9,4.8-3.1,5.8-4.8
							c1.1-1.8,1.4-3.1,1.8-3.1c0.3,0,0.7,1.5-0.1,3.8c-0.4,1.1-1.1,2.4-2.2,3.6c-1.1,1.2-2.6,2.3-4.5,2.9c-1.8,0.6-3.7,0.6-5.3,0.3
							c-1.6-0.3-2.9-1-3.9-1.7C687.3,114,686.7,112.5,687,112.3z"/>
					</g>
				</g>
			</g>
			<g>
				<g>
					<g>
						<path class="st5" d="M744,105.9c0-0.4,1.1-0.6,2.3-1.4c0.6-0.4,1.1-1,1.2-1.7c0.1-0.4,0.1-0.7,0-1c-0.1-0.3-0.2-0.4-0.5-0.5
							c-0.2-0.1-0.4-0.1-0.6-0.1c-0.2,0-0.2,0.1-0.3,0.1l-4.3,3.1l2.1-4.2c1.7-3.5,3.3-6,3.9-5.7c0.5,0.2-0.2,3.1-1.6,6.7l-2.2-1.1
							c0.4-0.7,1.1-1.2,1.8-1.3c0.7-0.2,1.4-0.1,2.1,0.1c0.5,0.2,0.9,0.5,1.3,0.9c0.4,0.4,0.6,0.9,0.7,1.3c0.3,0.9,0.2,1.8-0.1,2.5
							c-0.3,0.7-0.7,1.3-1.2,1.8c-0.5,0.4-1,0.7-1.5,0.9c-1,0.3-1.8,0.3-2.3,0.2C744.3,106.3,744,106.1,744,105.9z"/>
					</g>
				</g>
			</g>
			<g>
				<g>
					<g>
						<path class="st5" d="M709.3,61.8c-0.1-0.3,0.4-0.8,1.3-1.1c0.9-0.3,2.4-0.4,3.8,0c1.5,0.4,2.7,1.2,3.3,1.9
							c0.7,0.8,0.8,1.4,0.6,1.7c-0.5,0.5-2.3-0.5-4.6-1.1C711.6,62.4,709.6,62.5,709.3,61.8z"/>
					</g>
				</g>
			</g>
			<g>
				<g>
					<g>
						<path class="st5" d="M670.4,55.5c-0.1-0.3,0.3-0.9,1.3-1.3c1-0.5,2.4-0.8,4.1-0.6c1.6,0.1,3,0.7,3.9,1.4
							c0.9,0.6,1.2,1.2,1,1.5c-0.4,0.6-2.5-0.1-5.2-0.3C672.9,55.8,670.7,56.2,670.4,55.5z"/>
					</g>
				</g>
			</g>
			<g>
				<path class="st1" d="M742.6,83.8c-12.6-12.4-16.3-33.1-19.7-50.5c-11.6,8.6-27.7,10.7-41.1,5.4c-4.2,5-9.2,9.4-14.6,12.9
					c-1.6,1-3.4,2-5.2,1.5c-2.1-0.6-3-3.1-3.6-5.3c-1.6-7-1.7-14.4,0.7-21.1s7.4-12.6,14-15.2c7-2.8,14.9-1.6,22.3,0.4
					c11,2.9,21.6,7.3,31.4,13.1c9.6,5.7,18.9,13.3,22.9,23.8c4.1,10.5,4.1,30.9-5.8,36.2"/>
			</g>
			<path class="st5" d="M668.4,171.2c12.2-4.9-81.5,30.3-81.5,30.3l9.5,64.9l35.6-11.8L668.4,171.2z"/>
			<path class="st6" d="M544.1,171.2c0,0,24.4-34.6,20.1-34.6c-4.4,0-6.6,6.5-15.1,11c0,0,13.5-43.3,9.3-42.4
				c-4.2,0.9-14.2,28.7-14.8,28.6c-0.7,0,8.6-31.1,5.1-31.5c-3.5-0.4-12,28.6-12,28.6s5.8-27.5,2.1-28.1c-3.7-0.6-9.1,24.7-9.1,24.7
				s4.3-21.3,1-21.8c-2-0.3-20.5,52.5-20.5,52.5C510.8,158.2,544.1,171.2,544.1,171.2"/>
			<g>
				<g>
					<g>
						<path class="st5" d="M733.1,294.4c-0.2,0-0.5-1.8-1.1-5c-0.5-3.3-1.2-8-1.9-13.8c-1.5-11.7-3.4-27.9-5.3-45.8
							c-0.4-4.5-0.7-9,0-13.4c0.3-2.2,0.9-4.3,1.7-6.3c0.8-2,1.9-3.8,3.1-5.4c2.5-3.3,5.6-5.7,8.7-7.5c3.1-1.8,6.3-2.8,9.3-3.4
							c5.9-1.2,10.8-0.9,14.1-0.5c3.3,0.4,5.1,1,5,1.1c0,0.2-1.9,0-5.1-0.1c-3.3-0.1-8-0.2-13.6,1.2c-2.8,0.7-5.7,1.8-8.6,3.5
							c-2.9,1.7-5.6,4-7.9,7c-2.2,3-3.7,6.6-4.2,10.7c-0.6,4-0.3,8.4,0.1,12.8c1.9,17.9,3.5,34.1,4.6,45.9
							c0.5,5.9,0.9,10.6,1.1,13.9S733.3,294.4,733.1,294.4z"/>
					</g>
				</g>
			</g>
			<g>
				<g>
					<g>
						<path class="st5" d="M729.8,290.3c0.1-0.7,17.1,0.5,38.1,2.8c21,2.2,37.9,4.6,37.8,5.4c-0.1,0.7-17.1-0.5-38.1-2.8
							C746.6,293.4,729.7,291,729.8,290.3z"/>
					</g>
				</g>
			</g>
			<polygon class="st3" points="619,5.5 619,79.7 570,79.7 568.5,107.9 539.7,78.1 431.8,78.1 441.3,0 			"/>
			<g>
				<g>
					<path class="st7" d="M602.3,26.7c-24-1.2-48.3-0.4-72.4-0.4c-11.9,0-23.8,0-35.7,0c-12.2,0-24.5-0.7-36.7,0.1
						c-0.9,0.1-0.9,1.4,0,1.4c11.8,0.8,23.9,0.2,35.7,0.1c12.2,0,24.5,0,36.7,0c24.1,0,48.4,0.8,72.4-0.4
						C602.8,27.5,602.8,26.8,602.3,26.7L602.3,26.7z"/>
				</g>
			</g>
			<g>
				<g>
					<path class="st7" d="M602.3,41c-24-1.2-48.3-0.4-72.4-0.4c-11.9,0-23.8,0-35.7,0c-12.2,0-24.5-0.7-36.7,0.1
						c-0.9,0.1-0.9,1.4,0,1.4c11.8,0.8,23.9,0.2,35.7,0.1c12.2,0,24.5,0,36.7,0c24.1,0,48.4,0.8,72.4-0.4
						C602.8,41.8,602.8,41,602.3,41L602.3,41z"/>
				</g>
			</g>
			<g>
				<g>
					<path class="st7" d="M602.3,56c-14.7-0.9-29.7-0.4-44.5-0.4c-5.6,0-11.2,0-16.7,0c-9.2,0-18.7-0.8-27.8,0.1
						c-0.9,0.1-0.9,1.3,0,1.4c8.9,0.9,18.2,0.1,27.2,0.1c5.8,0,11.5,0,17.3,0c14.8,0,29.7,0.6,44.5-0.4
						C602.8,56.8,602.8,56,602.3,56L602.3,56z"/>
				</g>
			</g>
			<g>
				<g>
					<g>
						<path class="st5" d="M674.4,75.6c-0.7,0.3-1.6-0.4-2.6-1.2c-0.9-0.9-1.6-1.8-1.4-2.5c0.1-0.3,0.6-0.5,1.2-0.4
							c0.6,0.1,1.3,0.4,2,1c0.6,0.6,1,1.3,1.1,1.9C674.9,75,674.7,75.5,674.4,75.6z"/>
					</g>
				</g>
			</g>
			<g>
				<g>
					<g>
						<path class="st5" d="M712,80c-0.7,0.3-1.8-0.9-2.9-2.4c-1.1-1.5-1.9-2.9-1.4-3.5c0.5-0.5,2.2,0.2,3.5,1.9
							C712.5,77.9,712.7,79.7,712,80z"/>
					</g>
				</g>
			</g>
			<g class="st8">
				<g>
					<g>
						<path class="st5" d="M703.4,112.6c1.1,3.4,0.1,6.8-2.2,7.5c-2.3,0.7-5-1.5-6.1-4.9c-1.1-3.4-0.1-6.8,2.2-7.5
							C699.6,107,702.3,109.2,703.4,112.6z"/>
					</g>
				</g>
			</g>
			<g class="st9">
				<g>
					<g>
						<path class="st5" d="M726.1,88.9c0,3.6-4.6,6.5-10.3,6.6c-5.7,0-10.3-2.8-10.3-6.4c0-3.6,4.6-6.5,10.3-6.6
							C721.4,82.4,726.1,85.3,726.1,88.9z"/>
					</g>
				</g>
			</g>
			<g class="st9">
				<g>
					<g>
						<path class="st5" d="M683.7,91.9c0,3.6-4.6,6.5-10.3,6.6c-5.7,0-10.3-2.8-10.3-6.4c0-3.6,4.6-6.5,10.3-6.6
							C679,85.4,683.6,88.3,683.7,91.9z"/>
					</g>
				</g>
			</g>
			<g>
				<g>
					<g>
						<path class="st10" d="M745.1,53.5c-0.1-0.1,0-0.5,0.1-1.1c0.1-0.6,0.1-1.4-0.3-2.4c-0.3-1.1-1-2.2-1.8-3.6
							c-0.8-1.4-1.6-3-2.5-4.6c-3.4-6.6-5.7-12.2-5.1-12.6c0.6-0.3,3.9,4.8,7.4,11.4c0.9,1.7,1.6,3.3,2.3,4.7
							c0.7,1.4,1.3,2.9,1.5,4.3c0.2,1.3-0.1,2.6-0.6,3.2C745.7,53.5,745.2,53.6,745.1,53.5z"/>
					</g>
				</g>
			</g>
			<polygon class="st2" points="635.8,267.9 627.5,379.7 742.5,395.3 734.7,266.3 			"/>
			<polyline class="st2" points="644.9,192.2 644.9,280.8 658.4,275.7 658.4,174.7 644.9,178.9 			"/>
			<path class="st2" d="M751.5,179.8c0,0-51.9,6.8-36.6,92.7l13,1.4c0,0-14.7-80.7,34.1-86.5L751.5,179.8z"/>
			<g>
				<path class="st6" d="M736.2,279.5c0,0,17.7,105.8-7.3,103.2c-82.3-8.6-131.2-9.7-131.2-9.7l-13.6,28.7
					c-0.3,4.9,155.8,50.1,180.8,35.2c17.7-10.6,45.9-39,33.1-124l-3-28.5L736.2,279.5z"/>
			</g>
			<path class="st5" d="M781.9,209.4c0,0,19.2,18.7,23.5,89.2l-74.3-8.3C731.1,290.3,718.7,170.1,781.9,209.4z"/>
			<path class="st6" d="M606.4,373c0,0-40.3-12.8-38.9-8.6c1.4,4.2,8.2,4.4,15.1,11.1c0,0-45,0.5-42.8,4.2
				c2.2,3.8,31.5,4.7,31.6,5.3c0.2,0.6-32,1.4-31.3,4.9c0.7,3.5,30.7,2.6,30.7,2.6s-27.7,3-27.2,6.7c0.6,3.7,26.1,1,26.1,1
				s-21.4,2.5-20.9,5.9c0.3,2.1,62.7,2.5,62.8,4.1C611.7,411.2,606.4,373,606.4,373"/>
			<g>
				<g>
					<g>
						<path class="st5" d="M657.7,268.5c0.2,0,0.4,0.4,0.7,1.3c0.3,0.9,0.6,2.1,0.7,3.8c0.1,0.8,0.1,1.7-0.1,2.7
							c-0.1,1-0.4,2.1-1,3.1c-0.5,1-1.3,2.1-2.4,2.9c-1.1,0.8-2.5,1.4-4,1.4c-1.5,0-2.9-0.5-4-1.3c-1.1-0.7-2-1.7-2.6-2.6
							c-1.3-2-1.7-4-1.8-5.7c-0.1-1.6,0-2.9,0.1-3.8c0.1-0.9,0.3-1.4,0.5-1.4c0.2,0,0.4,0.5,0.5,1.3c0.2,0.9,0.4,2.1,0.7,3.6
							c0.3,1.4,0.9,3.2,2,4.6c1.1,1.4,2.8,2.7,4.6,2.7c1.8,0,3.4-1.3,4.3-2.9c0.9-1.5,1.2-3.3,1.3-4.8c0.1-1.5,0.1-2.8,0.1-3.6
							C657.4,269.1,657.5,268.6,657.7,268.5z"/>
					</g>
				</g>
			</g>
			<g>
				<g>
					<g>
						<path class="st5" d="M649.6,270.3c0.2,0.3,0,0.9,0.2,1.6c0.1,0.3,0.4,0.7,0.6,0.7c0.2,0.1,0.4,0,0.8-0.2
							c0.3-0.2,0.4-0.5,0.5-0.7c0-0.2-0.2-0.6-0.4-0.8c-0.5-0.5-1.1-0.5-1.3-0.8c-0.1-0.1,0-0.4,0.3-0.7c0.3-0.2,1-0.4,1.8-0.2
							c0.7,0.2,1.6,0.8,2,2c0.2,0.6,0.2,1.3-0.1,1.9c-0.3,0.6-0.7,1.1-1.2,1.5c-0.5,0.4-1.2,0.6-1.8,0.6c-0.7,0-1.3-0.3-1.8-0.7
							c-0.9-0.8-1.1-1.9-1-2.6c0.1-0.8,0.5-1.3,0.9-1.5C649.2,270.1,649.5,270.2,649.6,270.3z"/>
					</g>
				</g>
			</g>
			<g>
				<g>
					<g>
						<path class="st5" d="M726.7,266.7c0.2-0.1,0.4,0.2,0.7,0.8c0.3,0.6,0.4,1.5,0.2,2.6c-0.2,1.1-0.7,2.4-1.7,3.6
							c-1,1.1-2.6,2.1-4.5,2.2c-1.9,0.1-3.6-0.8-4.7-1.8c-1.1-1.1-1.8-2.3-2-3.4c-0.3-1.1-0.2-2,0-2.6c0.2-0.6,0.5-0.9,0.6-0.8
							c0.4,0.1,0.3,1.3,1.1,2.8c0.4,0.8,1,1.6,1.8,2.2c0.8,0.7,1.9,1.1,3,1c1.1-0.1,2.1-0.6,2.9-1.3c0.8-0.7,1.3-1.6,1.7-2.4
							C726.5,268,726.3,266.8,726.7,266.7z"/>
					</g>
				</g>
			</g>
			<g>
				<g>
					<g>
						<path class="st5" d="M718.3,263.6c-0.1-0.1,0-0.4,0.3-0.7c0.3-0.3,1-0.6,1.8-0.5c0.8,0,1.9,0.3,2.7,1.3
							c0.4,0.5,0.7,1.2,0.7,1.9c0,0.7-0.2,1.4-0.6,2c-0.4,0.6-0.9,1.1-1.6,1.4c-0.7,0.3-1.5,0.3-2.3-0.1c-0.7-0.4-1.1-1-1.3-1.5
							c-0.2-0.5-0.2-1-0.1-1.5c0.1-0.9,0.7-1.5,1.2-1.7c0.5-0.2,0.8,0,0.8,0.2c0,0.2-0.1,0.4-0.2,0.6c-0.1,0.2-0.1,0.5,0,0.9
							c0.1,0.4,0.4,0.8,0.5,0.7c0.1,0,0.2,0,0.3-0.1c0.1-0.1,0.3-0.2,0.4-0.4c0.1-0.2,0.2-0.5,0.2-0.6c0-0.2,0-0.3-0.1-0.5
							c-0.2-0.4-0.6-0.7-1-0.9C719.3,263.8,718.5,263.9,718.3,263.6z"/>
					</g>
				</g>
			</g>
			<g>
				<g>
					<g>
						<path class="st5" d="M715.6,318.9c-0.7-0.1-0.8-2.4-0.8-5c0.1-2.6,0.3-4.8,1.1-4.9c0.7-0.1,1.6,2.1,1.5,5
							C717.3,316.9,716.3,319,715.6,318.9z"/>
					</g>
					<g>
						<path class="st5" d="M706.6,336.4c-0.5-0.5,0.6-2.4,2.1-4.6c1.5-2.1,3-3.8,3.6-3.5c0.6,0.3,0.2,2.7-1.5,5
							C709.2,335.7,707.1,336.9,706.6,336.4z"/>
					</g>
					<g>
						<path class="st5" d="M689.3,345.5c-0.1-0.7,1.9-1.6,4.4-2.4c2.5-0.8,4.6-1.3,5-0.7c0.4,0.6-1.4,2.3-4.2,3.2
							C691.8,346.5,689.4,346.2,689.3,345.5z"/>
					</g>
					<g>
						<path class="st5" d="M669.8,343c0.3-0.7,2.5-0.2,5,0.5c2.5,0.7,4.6,1.5,4.5,2.2c-0.1,0.7-2.5,1-5.2,0.3
							C671.4,345.2,669.5,343.7,669.8,343z"/>
					</g>
					<g>
						<path class="st5" d="M655.5,329.6c0.6-0.3,2.2,1.3,3.8,3.4c1.6,2.1,2.8,4,2.3,4.5c-0.5,0.5-2.6-0.6-4.4-2.9
							C655.5,332.3,654.9,329.9,655.5,329.6z"/>
					</g>
					<g>
						<path class="st5" d="M651.2,310.4c0.7,0.1,1.1,2.3,1.3,4.9c0.2,2.6,0.2,4.8-0.5,5c-0.7,0.2-1.8-1.9-2-4.8
							C649.7,312.6,650.5,310.4,651.2,310.4z"/>
					</g>
					<g>
						<path class="st5" d="M667.8,307.2c0,0.7-2.3,1.2-5,1.1c-2.8-0.1-5-0.8-4.9-1.5c0-0.7,2.3-1.2,5-1.1
							C665.6,305.8,667.8,306.5,667.8,307.2z"/>
					</g>
					<g>
						<path class="st5" d="M687.7,307.9c0,0.7-2.3,1.2-5,1.1c-2.8-0.1-5-0.8-4.9-1.5c0-0.7,2.3-1.2,5-1.1
							C685.5,306.6,687.7,307.2,687.7,307.9z"/>
					</g>
					<g>
						<path class="st5" d="M707.6,308.7c0,0.7-2.3,1.2-5,1.1c-2.8-0.1-5-0.8-4.9-1.5c0-0.7,2.3-1.2,5-1.1
							C705.5,307.3,707.7,308,707.6,308.7z"/>
					</g>
				</g>
			</g>
		</g>
		<g>
			<path class="st11" d="M715.7,533c3.1-13.8,5.5-28.7,6.1-42.9c0.2-4.4-6.9-5.5-7.7-1.1c-2.6,14-3.5,29-3.6,43.2
				C710.5,535.3,715,536,715.7,533L715.7,533z"/>
		</g>
		<g>
			<path class="st5" d="M787.6,580.5c-0.2-0.2-0.5-0.4-0.7-0.6c-3.1-2.8-8.3-3.4-11.3,0c-3.1,3.4-3,8.1,0,11.5
				c0.2,0.2,0.4,0.5,0.6,0.7c2.8,3.2,8.6,3.1,11.4,0C790.4,589,791,583.5,787.6,580.5L787.6,580.5z"/>
		</g>
		<g>
			<ellipse class="st0" cx="414.9" cy="638.2" rx="210.9" ry="213.6"/>
			<path class="st6" d="M447,566.2l139.9,53.1l-13.4-57.2l36.4-9.4c0,0,39.1,111.9,12,114.9c-47.6,5.2-119.6-13.8-119.6-13.8
				L447,566.2z"/>
			<path class="st10" d="M495.5,694.5l-0.3,112.1c-36.4,45.4-163.3-13.3-163.3-13.3l-1.5-45.8l-2.9-109.2
				c2.9-43.5,42.8-64.8,42.8-64.8c16.5-8.3,41.6-13,64.3-11.9c23.6,1.2,29.5,12.6,39.2,34.5C481.7,613.7,495.5,630.2,495.5,694.5z"
				/>
			<g>
				<path class="st6" d="M384,674.1c0,0-17.7,105.8,7.3,103.2c82.3-8.6,131.2-9.7,131.2-9.7l13.6,28.7
					c0.3,4.9-155.8,50.1-180.8,35.2c-17.7-10.6-45.9-39-33.1-124l3-28.5L384,674.1z"/>
			</g>
			<path class="st10" d="M338.7,603.9c0,0-19.2,18.7-23.5,89.2l74.3-8.3C389.5,684.8,401.9,564.6,338.7,603.9z"/>
			<path class="st6" d="M375.9,456l1.7,22.4c0,0-18.8,2.6-13.5,19.9c5.4,17.4,18.2,9.8,18.2,9.8s3.2,44.5,48.3,30.4
				c35.9-11.2,33.7-58.3,29.1-98.3c-1.8-15.5-16.3-26.2-31.4-23.2l-27.1,5.3C385.6,425.4,374.7,439.9,375.9,456z"/>
			<path class="st6" d="M377.6,497l12.1,65.5c2.7,14.8,17.1,24.2,31.5,20.7l0,0c13.4-3.2,21.9-16.5,19.5-30.2l-6.6-37.6L377.6,497z"
				/>
			<g>
				<g>
					<g>
						<path class="st5" d="M427.4,497.7c0.1,0,0.2,0.1,0.4,0.3c0.2,0.2,0.5,0.4,0.9,0.4c0.4,0,0.9-0.1,1.4-0.6c0.5-0.4,0.8-1.1,1-2
							c0.4-1.8,0.2-4.1-0.1-6.8c-0.2-2.7-0.5-5.6-0.6-8.7c-0.8-12.4-0.8-22.5-0.1-22.5c0.7,0,1.9,10,2.7,22.4
							c0.2,3.1,0.3,6.1,0.4,8.7c0.1,2.7,0.2,5.3-0.5,7.4c-0.2,0.5-0.4,1-0.7,1.5c-0.3,0.5-0.7,0.8-1.1,1.1c-0.8,0.6-1.8,0.7-2.5,0.4
							c-0.7-0.3-1-0.8-1.1-1.1C427.3,497.9,427.4,497.7,427.4,497.7z"/>
					</g>
				</g>
			</g>
			<g>
				<g>
					<g>
						<path class="st5" d="M442.1,533.9c0.2,0.2-1.6,2.2-5.3,4.4c-3.7,2.2-9.4,4.3-16,4.4c-6.6,0.1-12.4-1.7-16.2-3.7
							c-3.8-2-5.6-3.9-5.5-4.2c0.2-0.3,2.4,1,6.2,2.5c3.8,1.5,9.2,2.9,15.4,2.8c6.1-0.1,11.5-1.8,15.2-3.5
							C439.7,535.1,441.8,533.6,442.1,533.9z"/>
					</g>
				</g>
			</g>
			<g>
				<g>
					<g>
						<path class="st5" d="M433.3,506.9c0.3,0.2-0.3,1.6-2.3,3.1c-1,0.7-2.3,1.3-3.9,1.7c-1.6,0.3-3.5,0.3-5.3-0.3
							c-1.8-0.6-3.4-1.7-4.5-2.9c-1.1-1.2-1.8-2.5-2.2-3.6c-0.8-2.3-0.4-3.8-0.1-3.8c0.4,0,0.7,1.3,1.8,3.1c1,1.7,3,3.9,5.8,4.8
							c2.8,0.9,5.7,0.3,7.5-0.5C431.9,507.6,433,506.7,433.3,506.9z"/>
					</g>
				</g>
			</g>
			<g>
				<g>
					<g>
						<path class="st5" d="M376.2,500.5c0,0.2-0.3,0.4-0.8,0.5c-0.5,0.1-1.3,0.1-2.3-0.2c-0.5-0.2-1-0.4-1.5-0.9
							c-0.5-0.4-0.9-1-1.2-1.8c-0.3-0.7-0.4-1.6-0.1-2.5c0.1-0.4,0.4-0.9,0.7-1.3c0.4-0.4,0.8-0.7,1.3-0.9c0.7-0.3,1.4-0.3,2.1-0.1
							c0.7,0.2,1.4,0.7,1.8,1.3l-2.2,1.1c-1.4-3.7-2.1-6.5-1.6-6.7c0.5-0.2,2.1,2.2,3.9,5.7l2.1,4.2l-4.3-3.1
							c-0.1,0-0.1-0.1-0.3-0.1c-0.1,0-0.4,0-0.6,0.1c-0.3,0.1-0.4,0.2-0.5,0.5c-0.1,0.3-0.1,0.6,0,1c0.2,0.7,0.6,1.3,1.2,1.7
							C375.1,499.9,376.2,500.1,376.2,500.5z"/>
					</g>
				</g>
			</g>
			<g>
				<g>
					<g>
						<path class="st5" d="M410.9,456.3c-0.2,0.7-2.3,0.7-4.5,1.3c-2.3,0.6-4,1.6-4.6,1.1c-0.2-0.2-0.1-0.9,0.6-1.7
							c0.7-0.8,1.8-1.6,3.3-1.9c1.5-0.4,2.9-0.3,3.8,0C410.5,455.5,411,456,410.9,456.3z"/>
					</g>
				</g>
			</g>
			<g>
				<g>
					<g>
						<path class="st5" d="M449.8,450.1c-0.3,0.7-2.5,0.3-5.1,0.6c-2.6,0.2-4.8,0.9-5.2,0.3c-0.2-0.3,0.2-0.9,1-1.5
							c0.9-0.6,2.3-1.2,3.9-1.4c1.6-0.1,3.1,0.2,4.1,0.6C449.5,449.2,450,449.8,449.8,450.1z"/>
					</g>
				</g>
			</g>
			<g>
				<path class="st5" d="M377.6,478.4c12.6-12.4,16.3-33.1,19.7-50.5c11.6,8.6,27.7,10.7,41.1,5.4c4.2,5,9.2,9.4,14.6,12.9
					c1.6,1,3.4,2,5.2,1.5c2.1-0.6,3-3.1,3.6-5.3c1.6-7,1.7-14.4-0.7-21.1c-2.4-6.7-7.4-12.6-14-15.2c-7-2.8-14.9-1.6-22.3,0.4
					c-11,2.9-21.6,7.3-31.4,13.1c-9.6,5.7-18.9,13.3-22.9,23.8c-4.1,10.5-4.1,30.9,5.8,36.2"/>
			</g>
			<path class="st10" d="M451.9,565.7c-12.2-4.9,81.5,30.3,81.5,30.3l-9.5,64.9l-35.6-11.8L451.9,565.7z"/>
			<path class="st6" d="M513.8,767.6c0,0,40.3-12.8,38.9-8.6c-1.4,4.2-8.2,4.4-15.1,11.1c0,0,45,0.5,42.8,4.2
				c-2.2,3.8-31.5,4.7-31.6,5.3c-0.2,0.6,32,1.4,31.3,4.9c-0.7,3.5-30.7,2.6-30.7,2.6s27.7,3,27.2,6.7c-0.6,3.7-26.1,1-26.1,1
				s21.4,2.5,20.9,5.9c-0.3,2.1-62.7,2.5-62.8,4.1C508.5,805.8,513.8,767.6,513.8,767.6"/>
			<path class="st6" d="M576.2,565.7c0,0-24.4-34.6-20.1-34.6c4.4,0,6.6,6.5,15.1,11c0,0-13.5-43.3-9.3-42.4
				c4.2,0.9,14.2,28.7,14.8,28.6c0.7,0-8.6-31.1-5.1-31.5c3.5-0.4,12,28.6,12,28.6s-5.8-27.5-2.1-28.1c3.7-0.6,9.1,24.7,9.1,24.7
				s-4.3-21.3-1-21.8c2-0.3,20.5,52.5,20.5,52.5C609.4,552.7,576.2,565.7,576.2,565.7"/>
			<g>
				<g>
					<g>
						<path class="st12" d="M350.7,660.9c0.2,0,0.4,0.4,0.7,1.2c0.2,0.8,0.6,2,0.5,3.6c0,0.8-0.1,1.7-0.5,2.7c-0.4,1-1.1,1.9-2,2.6
							c-0.9,0.7-2.4,1.3-3.9,0.9c-1.5-0.3-2.6-1.3-3.4-2.2c-0.8-0.9-1.4-1.7-2.1-2.2c-0.6-0.5-1.4-0.8-2.2-1c-1.6-0.3-3,0.3-3.9,1.1
							c-0.9,0.8-1.4,1.8-1.7,2.6c-0.3,0.7-0.4,1.2-0.5,1.2c-0.2,0-0.4-0.4-0.4-1.4c0-0.9,0.2-2.3,1.3-3.7c0.5-0.7,1.3-1.3,2.3-1.7
							c1-0.4,2.1-0.6,3.3-0.5c1.2,0.1,2.4,0.5,3.4,1.3c1,0.8,1.7,1.7,2.4,2.5c1.4,1.6,2.6,1.9,3.9,1c0.6-0.4,1.1-1,1.5-1.6
							c0.3-0.6,0.5-1.3,0.7-2c0.2-1.3,0.2-2.5,0.3-3.3C350.5,661.4,350.6,660.9,350.7,660.9z"/>
					</g>
				</g>
			</g>
			<g>
				<g>
					<g>
						<path class="st12" d="M372.7,641.7c-0.1-0.1,0.1-0.6,0.7-1.2c0.6-0.6,1.4-1.6,2.8-2.4c0.7-0.4,1.5-0.8,2.6-0.9
							c1-0.1,2.2,0,3.3,0.5c1.1,0.5,2.3,1.4,2.7,2.9c0.5,1.4,0.2,2.8-0.1,4c-0.3,1.2-0.7,2.1-0.8,3c-0.1,0.8,0,1.6,0.3,2.4
							c0.6,1.5,1.8,2.4,3,2.8c1.2,0.4,2.3,0.3,3,0.1c0.8-0.1,1.2-0.3,1.3-0.2c0.1,0.1-0.1,0.6-0.9,1.1c-0.8,0.5-2.1,1-3.8,0.7
							c-0.8-0.1-1.8-0.5-2.6-1.1c-0.8-0.6-1.6-1.5-2.1-2.5c-0.5-1-0.8-2.3-0.7-3.6c0.1-1.3,0.5-2.4,0.8-3.4c0.6-2.1,0.2-3.3-1.1-4
							c-0.6-0.3-1.4-0.5-2.1-0.5c-0.7,0-1.4,0.2-2,0.4c-1.2,0.5-2.2,1.1-3,1.5C373.3,641.7,372.8,641.8,372.7,641.7z"/>
					</g>
				</g>
			</g>
			<g>
				<g>
					<g>
						<path class="st12" d="M371.2,593.8c-0.1-0.1,0.1-0.6,0.7-1.2c0.6-0.6,1.4-1.6,2.8-2.4c0.7-0.4,1.5-0.8,2.6-0.9
							c1-0.1,2.2,0,3.3,0.5c1.1,0.5,2.3,1.4,2.7,2.9c0.5,1.4,0.2,2.8-0.1,4c-0.3,1.2-0.7,2.1-0.8,3c-0.1,0.8,0,1.6,0.3,2.4
							c0.6,1.5,1.8,2.4,3,2.8c1.2,0.4,2.3,0.3,3,0.1c0.8-0.1,1.2-0.3,1.3-0.2c0.1,0.1-0.1,0.6-0.9,1.1c-0.8,0.5-2.1,1-3.8,0.7
							c-0.8-0.1-1.8-0.5-2.6-1.1c-0.8-0.6-1.6-1.5-2.1-2.5c-0.5-1-0.8-2.3-0.7-3.6c0.1-1.3,0.5-2.4,0.8-3.4c0.6-2.1,0.2-3.3-1.1-4
							c-0.6-0.3-1.4-0.5-2.1-0.5c-0.7,0-1.4,0.2-2,0.4c-1.2,0.5-2.2,1.1-3,1.5C371.8,593.8,371.4,594,371.2,593.8z"/>
					</g>
				</g>
			</g>
			<g>
				<g>
					<g>
						<path class="st12" d="M418.1,656.2c-0.1,0.1-0.6-0.1-1.3-0.6c-0.7-0.5-1.7-1.3-2.6-2.6c-0.5-0.7-0.9-1.5-1.1-2.5
							c-0.2-1-0.2-2.1,0.1-3.3c0.3-1.1,1.2-2.4,2.5-3c1.4-0.6,2.8-0.5,4-0.3c1.2,0.2,2.2,0.5,3,0.5c0.8,0,1.6-0.2,2.3-0.5
							c1.4-0.7,2.2-2,2.5-3.2c0.3-1.2,0.1-2.3-0.1-3.1c-0.2-0.7-0.4-1.2-0.3-1.3c0.1-0.1,0.6,0.1,1.2,0.8c0.5,0.7,1.1,2,1.1,3.7
							c0,1.7-1,3.9-3.1,5.1c-1,0.6-2.2,1-3.6,1c-1.3,0-2.4-0.3-3.5-0.5c-2.1-0.5-3.2,0.1-3.8,1.5c-0.3,0.7-0.3,1.5-0.3,2.2
							c0.1,0.7,0.3,1.4,0.6,2c0.6,1.2,1.3,2.2,1.7,2.9C418,655.6,418.3,656,418.1,656.2z"/>
					</g>
				</g>
			</g>
			<g>
				<g>
					<g>
						<path class="st12" d="M450.1,706.2c0.1,0.1-0.2,0.6-0.7,1.2c-0.6,0.6-1.5,1.4-3,2.2c-0.7,0.3-1.6,0.7-2.7,0.7
							c-1,0.1-2.2-0.1-3.3-0.7c-1.1-0.5-2.1-1.6-2.5-3.1c-0.4-1.4,0-2.9,0.4-4c0.4-1.1,0.8-2.1,1-2.9c0.2-0.8,0.1-1.6-0.1-2.4
							c-0.5-1.5-1.6-2.6-2.7-3c-1.2-0.5-2.3-0.4-3-0.3c-0.8,0.1-1.2,0.2-1.3,0.1c-0.1-0.1,0.2-0.6,1-1c0.8-0.4,2.2-0.8,3.9-0.5
							c0.8,0.2,1.7,0.6,2.6,1.3c0.8,0.7,1.5,1.6,1.9,2.7c0.4,1.1,0.6,2.4,0.4,3.7c-0.2,1.3-0.7,2.3-1.1,3.3c-0.8,2-0.5,3.2,0.8,4.1
							c0.6,0.4,1.4,0.6,2.1,0.6c0.7,0,1.4-0.1,2-0.3c1.3-0.4,2.3-1,3.1-1.3C449.5,706.2,450,706.1,450.1,706.2z"/>
					</g>
				</g>
			</g>
			<g>
				<g>
					<g>
						<path class="st12" d="M487.7,627.3c0.1,0.1-0.2,0.6-0.7,1.2c-0.6,0.6-1.5,1.4-3,2.2c-0.7,0.3-1.6,0.7-2.7,0.7
							c-1,0.1-2.2-0.1-3.3-0.7c-1.1-0.5-2.1-1.6-2.5-3.1c-0.4-1.4,0-2.9,0.4-4c0.4-1.1,0.8-2.1,1-2.9c0.2-0.8,0.1-1.6-0.1-2.4
							c-0.5-1.5-1.6-2.6-2.7-3c-1.2-0.5-2.3-0.4-3-0.3c-0.8,0.1-1.2,0.2-1.3,0.1c-0.1-0.1,0.2-0.6,1-1c0.8-0.4,2.2-0.8,3.9-0.5
							c0.8,0.2,1.7,0.6,2.6,1.3c0.8,0.7,1.5,1.6,1.9,2.7c0.4,1.1,0.6,2.4,0.4,3.7c-0.2,1.3-0.7,2.3-1.1,3.3c-0.8,2-0.5,3.2,0.8,4.1
							c0.6,0.4,1.4,0.6,2.1,0.6c0.7,0,1.4-0.1,2-0.3c1.3-0.4,2.3-1,3.1-1.3C487.2,627.3,487.6,627.1,487.7,627.3z"/>
					</g>
				</g>
			</g>
			<g>
				<g>
					<g>
						<path class="st12" d="M513.4,615.3c0.1-0.1,0.6,0,1.3,0.3c0.8,0.4,1.9,1,3,2.1c0.6,0.6,1.1,1.3,1.6,2.3c0.4,1,0.6,2.1,0.5,3.3
							c-0.1,1.2-0.7,2.6-1.9,3.4c-1.2,0.9-2.7,1-3.9,1c-1.2,0-2.2-0.1-3.1,0c-0.8,0.1-1.5,0.5-2.2,1c-1.2,1-1.8,2.4-1.8,3.6
							c0,1.3,0.4,2.3,0.7,3c0.3,0.7,0.6,1.1,0.5,1.2c-0.1,0.1-0.6,0-1.3-0.6c-0.7-0.6-1.5-1.8-1.7-3.5c-0.3-1.7,0.3-4,2.1-5.6
							c0.9-0.8,2-1.4,3.3-1.7c1.3-0.2,2.5-0.1,3.5-0.1c2.1,0.1,3.2-0.7,3.5-2.2c0.1-0.7,0.1-1.5-0.1-2.2c-0.2-0.6-0.6-1.3-0.9-1.8
							c-0.8-1.1-1.7-1.9-2.2-2.5C513.6,615.8,513.3,615.4,513.4,615.3z"/>
					</g>
				</g>
			</g>
			<g>
				<g>
					<g>
						<path class="st12" d="M409.5,747.1c0.1,0.1-0.2,0.6-0.7,1.2c-0.6,0.6-1.5,1.4-3,2.2c-0.7,0.3-1.6,0.7-2.7,0.7
							c-1,0.1-2.2-0.1-3.3-0.7c-1.1-0.5-2.1-1.6-2.5-3.1c-0.4-1.4,0-2.9,0.4-4c0.4-1.1,0.8-2.1,1-2.9c0.2-0.8,0.1-1.6-0.1-2.4
							c-0.5-1.5-1.6-2.6-2.7-3c-1.2-0.5-2.3-0.4-3-0.3c-0.8,0.1-1.2,0.2-1.3,0.1c-0.1-0.1,0.2-0.6,1-1c0.8-0.4,2.2-0.8,3.9-0.5
							c0.8,0.2,1.7,0.6,2.6,1.3c0.8,0.7,1.5,1.6,1.9,2.7c0.4,1.1,0.6,2.4,0.4,3.7c-0.2,1.3-0.7,2.3-1.1,3.3c-0.8,2-0.5,3.2,0.8,4.1
							c0.6,0.4,1.4,0.6,2.1,0.6c0.7,0,1.4-0.1,2-0.3c1.3-0.4,2.3-1,3.1-1.3C409,747.1,409.4,746.9,409.5,747.1z"/>
					</g>
				</g>
			</g>
			<g>
				<g>
					<g>
						<path class="st12" d="M465.2,671.1c-0.1,0.1-0.6-0.1-1.2-0.7c-0.6-0.6-1.5-1.5-2.3-2.9c-0.4-0.7-0.7-1.6-0.8-2.6
							c-0.1-1,0-2.2,0.5-3.3c0.5-1.1,1.4-2.3,2.9-2.7c1.4-0.5,2.9-0.2,4,0.2c1.1,0.4,2.1,0.8,2.9,0.9c0.8,0.1,1.6,0,2.3-0.3
							c1.5-0.6,2.4-1.7,2.8-2.9c0.4-1.2,0.3-2.3,0.2-3.1c-0.1-0.8-0.3-1.2-0.1-1.3c0.1-0.1,0.6,0.2,1.1,1c0.5,0.8,0.9,2.1,0.6,3.8
							c-0.2,1.7-1.5,3.7-3.6,4.7c-1.1,0.5-2.3,0.8-3.7,0.6c-1.3-0.2-2.4-0.6-3.4-0.9c-2-0.7-3.2-0.3-3.9,1.1
							c-0.3,0.7-0.5,1.4-0.5,2.1c0,0.7,0.2,1.4,0.4,2c0.4,1.3,1,2.3,1.4,3C465.2,670.5,465.4,671,465.2,671.1z"/>
					</g>
				</g>
			</g>
			<g>
				<g>
					<g>
						<path class="st12" d="M475.2,711.9c-0.1,0.1-0.6-0.1-1.2-0.7c-0.6-0.6-1.5-1.5-2.3-2.9c-0.4-0.7-0.7-1.6-0.8-2.6
							c-0.1-1,0-2.2,0.5-3.3c0.5-1.1,1.4-2.3,2.9-2.7c1.4-0.5,2.9-0.2,4,0.2c1.1,0.4,2.1,0.8,2.9,0.9c0.8,0.1,1.6,0,2.3-0.3
							c1.5-0.6,2.4-1.7,2.8-2.9c0.4-1.2,0.3-2.3,0.2-3.1c-0.1-0.8-0.3-1.2-0.1-1.3c0.1-0.1,0.6,0.2,1.1,1c0.5,0.8,0.9,2.1,0.6,3.8
							c-0.2,1.7-1.5,3.7-3.6,4.7c-1.1,0.5-2.3,0.8-3.7,0.6c-1.3-0.2-2.4-0.6-3.4-0.9c-2-0.7-3.2-0.3-3.9,1.1
							c-0.3,0.7-0.5,1.4-0.5,2.1c0,0.7,0.2,1.4,0.4,2c0.4,1.3,1,2.3,1.4,3C475.2,711.3,475.4,711.8,475.2,711.9z"/>
					</g>
				</g>
			</g>
			<g>
				<g>
					<g>
						<path class="st12" d="M394.6,694.5c-0.2,0-0.3-0.5-0.4-1.3c-0.1-0.8-0.1-2.1,0.3-3.7c0.2-0.8,0.5-1.6,1.1-2.5
							c0.6-0.8,1.5-1.6,2.6-2.1c1.1-0.5,2.6-0.7,4-0.1c1.4,0.6,2.2,1.8,2.8,2.9c0.6,1,1,2,1.6,2.7c0.5,0.7,1.2,1.1,1.9,1.4
							c1.5,0.6,3,0.4,4-0.2c1.1-0.6,1.8-1.5,2.2-2.1c0.4-0.6,0.6-1.1,0.8-1.1c0.2,0,0.3,0.5,0.1,1.4c-0.2,0.9-0.7,2.2-2.1,3.3
							c-0.7,0.5-1.6,1-2.6,1.2c-1,0.2-2.2,0.2-3.3-0.2c-1.1-0.4-2.2-1.1-3.1-2.1c-0.8-1-1.3-2.1-1.8-3c-1-1.9-2.2-2.4-3.6-1.9
							c-0.7,0.3-1.3,0.7-1.8,1.2c-0.5,0.5-0.8,1.2-1.1,1.8c-0.5,1.2-0.8,2.4-1,3.2C395,694,394.8,694.5,394.6,694.5z"/>
					</g>
				</g>
			</g>
			<g>
				<g>
					<g>
						<path class="st12" d="M467.4,744.9c-0.2,0-0.3-0.5-0.4-1.3c-0.1-0.8-0.1-2.1,0.3-3.7c0.2-0.8,0.5-1.6,1.1-2.5
							c0.6-0.8,1.5-1.6,2.6-2.1c1.1-0.5,2.6-0.7,4-0.1c1.4,0.6,2.2,1.8,2.8,2.9c0.6,1,1,2,1.6,2.7c0.5,0.7,1.2,1.1,1.9,1.4
							c1.5,0.6,3,0.4,4-0.2c1.1-0.6,1.8-1.5,2.2-2.1c0.4-0.6,0.6-1.1,0.8-1.1c0.2,0,0.3,0.5,0.1,1.4c-0.2,0.9-0.7,2.2-2.1,3.3
							c-0.7,0.5-1.6,1-2.6,1.2c-1,0.2-2.2,0.2-3.3-0.2c-1.1-0.4-2.2-1.1-3.1-2.1c-0.8-1-1.3-2.1-1.8-3c-1-1.9-2.2-2.4-3.6-1.9
							c-0.7,0.3-1.3,0.7-1.8,1.2c-0.5,0.5-0.8,1.2-1.1,1.8c-0.5,1.2-0.8,2.4-1,3.2C467.8,744.5,467.6,744.9,467.4,744.9z"/>
					</g>
				</g>
			</g>
			<g>
				<g>
					<g>
						<path class="st12" d="M465.3,592.2c-0.2,0-0.3-0.5-0.4-1.3c-0.1-0.8-0.1-2.1,0.3-3.7c0.2-0.8,0.5-1.6,1.1-2.5
							c0.6-0.8,1.5-1.6,2.6-2.1c1.1-0.5,2.6-0.7,4-0.1c1.4,0.6,2.2,1.8,2.8,2.9c0.6,1,1,2,1.6,2.7c0.5,0.6,1.2,1.1,1.9,1.4
							c1.5,0.6,3,0.4,4-0.2c1.1-0.6,1.8-1.5,2.2-2.1c0.4-0.6,0.6-1.1,0.8-1.1c0.2,0,0.3,0.5,0.1,1.4c-0.2,0.9-0.7,2.2-2.1,3.3
							c-0.7,0.5-1.6,1-2.6,1.2c-1,0.2-2.2,0.2-3.3-0.2c-1.1-0.4-2.2-1.1-3.1-2.1c-0.8-1-1.3-2.1-1.8-3c-1-1.9-2.2-2.4-3.6-1.9
							c-0.7,0.3-1.3,0.7-1.8,1.2c-0.5,0.5-0.8,1.2-1.1,1.8c-0.5,1.2-0.8,2.4-1,3.2C465.7,591.8,465.5,592.2,465.3,592.2z"/>
					</g>
				</g>
			</g>
			<g>
				<g>
					<g>
						<path class="st12" d="M441.5,765.2c-0.1,0.2-0.6,0.1-1.4-0.2c-0.8-0.3-2-0.7-3.3-1.7c-0.6-0.5-1.3-1.1-1.8-2.1
							c-0.5-0.9-0.9-2-0.9-3.2c0-1.2,0.4-2.6,1.5-3.7c1.1-1,2.6-1.3,3.7-1.5c1.2-0.1,2.2-0.2,3-0.4c0.8-0.2,1.5-0.7,2-1.2
							c1.1-1.1,1.5-2.6,1.4-3.8c-0.1-1.3-0.6-2.2-1.1-2.9c-0.4-0.6-0.7-1-0.6-1.2c0.1-0.1,0.6-0.1,1.4,0.4c0.7,0.5,1.7,1.6,2.1,3.2
							c0.5,1.6,0.2,4-1.4,5.8c-0.8,0.9-1.8,1.7-3.1,2.1c-1.2,0.4-2.4,0.4-3.5,0.6c-2.1,0.2-3.1,1.1-3.2,2.6
							c-0.1,0.7,0.1,1.5,0.4,2.1c0.3,0.6,0.7,1.2,1.2,1.7c0.9,1,1.9,1.7,2.5,2.2C441.3,764.6,441.6,765,441.5,765.2z"/>
					</g>
				</g>
			</g>
			<g>
				<g>
					<g>
						<path class="st12" d="M355.2,615.3c0.2-0.1,0.5,0.2,1.1,0.8c0.6,0.6,1.3,1.6,2,3.1c0.3,0.8,0.6,1.6,0.6,2.7
							c0,1-0.2,2.1-0.8,3.2c-0.6,1-1.6,2.1-3.1,2.4c-1.5,0.3-2.9-0.1-4-0.6c-1.1-0.5-2-1-2.8-1.2c-0.8-0.2-1.6-0.2-2.4,0
							c-1.5,0.4-2.6,1.5-3.1,2.6c-0.5,1.2-0.6,2.3-0.5,3c0,0.8,0.1,1.2,0,1.3c-0.1,0.1-0.6-0.2-1-1.1c-0.4-0.8-0.7-2.2-0.3-3.9
							c0.2-0.8,0.6-1.7,1.3-2.5c0.7-0.8,1.6-1.4,2.7-1.8c1.1-0.4,2.4-0.5,3.7-0.2c1.3,0.3,2.3,0.9,3.3,1.3c1.9,0.9,3.1,0.6,4-0.7
							c0.4-0.6,0.6-1.4,0.7-2.1c0.1-0.7,0-1.4-0.2-2.1c-0.3-1.3-0.8-2.4-1.1-3.2C355.1,615.8,355,615.3,355.2,615.3z"/>
					</g>
				</g>
			</g>
			<g>
				<g>
					<g>
						<path class="st12" d="M438.5,600.1c0.2-0.1,0.5,0.2,1.1,0.8c0.6,0.6,1.3,1.6,2,3.1c0.3,0.8,0.6,1.6,0.6,2.7
							c0,1-0.2,2.1-0.8,3.2c-0.6,1-1.6,2.1-3.1,2.4c-1.5,0.3-2.9-0.1-4-0.6c-1.1-0.5-2-1-2.8-1.2c-0.8-0.2-1.6-0.2-2.4,0
							c-1.5,0.4-2.6,1.5-3.1,2.6c-0.5,1.2-0.6,2.3-0.5,3c0,0.8,0.1,1.2,0,1.3c-0.1,0.1-0.6-0.2-1-1.1c-0.4-0.8-0.7-2.2-0.3-3.9
							c0.2-0.8,0.6-1.7,1.3-2.5c0.7-0.8,1.6-1.4,2.7-1.8c1.1-0.4,2.4-0.5,3.7-0.2c1.3,0.3,2.3,0.9,3.3,1.3c1.9,0.9,3.1,0.6,4-0.7
							c0.4-0.6,0.6-1.4,0.7-2.1c0.1-0.7,0-1.4-0.2-2.1c-0.3-1.3-0.8-2.4-1.1-3.2C438.5,600.7,438.4,600.2,438.5,600.1z"/>
					</g>
				</g>
			</g>
			<g>
				<g>
					<g>
						<path class="st5" d="M387.1,689c-0.2,0-0.2-1.9,0-5.1c0.2-3.3,0.6-8.1,1.1-13.9c1-11.7,2.7-28,4.6-45.9
							c0.4-4.4,0.7-8.8,0.1-12.8c-0.5-4-2-7.7-4.2-10.7c-2.2-3-5-5.3-7.9-7c-2.9-1.7-5.8-2.8-8.6-3.5c-5.6-1.4-10.4-1.3-13.6-1.2
							c-3.3,0.1-5.1,0.3-5.1,0.1c0-0.2,1.7-0.7,5-1.1c3.3-0.4,8.2-0.8,14.1,0.5c3,0.6,6.2,1.7,9.3,3.4c3.1,1.8,6.2,4.2,8.7,7.5
							c1.2,1.6,2.3,3.4,3.1,5.4c0.8,2,1.4,4.1,1.7,6.3c0.7,4.4,0.4,8.9,0,13.4c-1.9,17.9-3.8,34.1-5.3,45.8
							c-0.8,5.9-1.4,10.6-1.9,13.8C387.7,687.2,387.3,689,387.1,689z"/>
					</g>
				</g>
			</g>
			<g>
				<g>
					<g>
						<path class="st5" d="M390.4,684.9c0.1,0.7-16.8,3.1-37.8,5.4c-21,2.2-38,3.5-38.1,2.8c-0.1-0.7,16.8-3.1,37.8-5.4
							C373.3,685.4,390.4,684.2,390.4,684.9z"/>
					</g>
				</g>
			</g>
			<g>
				<path class="st3" d="M571.6,715.2c0.6-4.3,0.5-8.4,2.9-12.2c4.7-7.5,11.5-5.7,18-2.3c6.6,3.4,12.9,5.4,20.1,2.2
					c11.3-4.9,16.6-22.1,5.8-30.2c-3.5-2.6-6.9,1.7-6.4,5c0.7,4.6,2.9,9.7-1,13.7c-5.2,5.3-11.4,0.9-16.6-1.5
					c-5.6-2.6-11.6-3.1-17.5-0.8c-10,4.1-17.3,17.9-9.3,27.2C568.6,717.6,571.3,717,571.6,715.2L571.6,715.2z"/>
			</g>
			<g>
				<path class="st1" d="M648.2,552c-7.8,7.6-10.7,19.3-3.3,28.4c7,8.6,20.5,10.4,29.2,3.5c21.1-16.5-0.9-46.8-23.6-40.6
					c-4.2,1.2-3.2,7.2,1,7.5c6.6,0.4,13.8,0.6,19.1,5.4c5.7,5.1,5.8,13.6,1.1,19.5c-12.4,15.4-33.9-7.3-20.9-21.1
					C652.5,552.9,649.9,550.3,648.2,552L648.2,552z"/>
			</g>
			<g>
				<path class="st2" d="M320.8,536.9c-7.8,7.6-10.7,19.3-3.3,28.4c7,8.6,20.5,10.4,29.2,3.6c21.1-16.5-0.9-46.8-23.6-40.6
					c-4.2,1.2-3.2,7.2,1,7.5c6.6,0.4,13.8,0.6,19.1,5.4c5.7,5.1,5.8,13.6,1.1,19.5c-12.4,15.4-33.9-7.3-20.9-21.1
					C325,537.8,322.5,535.3,320.8,536.9L320.8,536.9z"/>
			</g>
			<g>
				<path class="st1" d="M207.9,727c5.4,20.1,11.3,40.1,17.4,60c1.5,4.8,5.9,6.3,10,3.5c16-11,32-21.8,47.1-34
					c2.9-2.3,2.3-7.1-0.6-9.1c-17.7-12.3-41.7-30.5-64.2-30.6c-5.7,0-9.7,8.1-3.9,11.5c9.1,5.3,20,7.2,29.7,11.3
					c11.2,4.7,22.3,10.2,32.2,17.4c0.2-3.3,0.4-6.6,0.7-9.9c-16.9,10.6-32.9,22.4-49,34.2c3.2,0.6,6.3,1.3,9.5,1.9
					c-6.9-19.7-13.9-39.2-21.5-58.6C213.6,720.4,206.7,722.7,207.9,727L207.9,727z"/>
			</g>
			<g>
				<path class="st4" d="M671.9,642.3c13.9,2,28.5,3.3,42.6,2.8c5.2-0.2,5-7.4,0-8c-13.7-1.4-28.1-1.1-41.9-0.1
					C669.9,637.2,668.8,641.9,671.9,642.3L671.9,642.3z"/>
			</g>
			<g>
				<path class="st4" d="M203.2,642.3c13.9,2,28.5,3.3,42.6,2.8c5.2-0.2,5-7.4,0-8c-13.7-1.4-28.1-1.1-41.9-0.1
					C201.2,637.2,200.1,641.9,203.2,642.3L203.2,642.3z"/>
			</g>
			<g>
				<path class="st5" d="M296.3,619.2c-0.2-0.2-0.5-0.4-0.7-0.6c-3.1-2.8-8.3-3.4-11.3,0c-3.1,3.4-3,8.1,0,11.5
					c0.2,0.2,0.4,0.5,0.6,0.7c2.8,3.2,8.6,3.1,11.4,0C299.1,627.7,299.7,622.3,296.3,619.2L296.3,619.2z"/>
			</g>
			<g>
				<g>
					<g>
						<path class="st5" d="M495.5,685.6c-0.4,0-0.6-3.1-1-8.1c-0.4-5.1-0.9-12-1.5-19.6c-0.5-7.7-0.8-14.6-0.7-19.7
							c0.1-5.1,0.5-8.2,0.8-8.2c0.4,0,0.6,3.1,1,8.1c0.4,5.1,0.9,12,1.5,19.6c0.5,7.7,0.8,14.6,0.7,19.7
							C496.2,682.5,495.8,685.7,495.5,685.6z"/>
					</g>
				</g>
			</g>
			<polygon class="st5" points="575.2,569.4 612,559 614.2,565.7 577.1,577.3 			"/>
			<path class="st7" d="M598.7,567.9c0,2.6-2,4.6-4.6,4.6c-2.5,0-4.6-2.1-4.6-4.6c0-2.6,2-4.6,4.6-4.6
				C596.7,563.2,598.7,565.3,598.7,567.9z"/>
			<g>
				<g>
					<g>
						<path class="st5" d="M449.8,465.8c-0.6,0.4-1.8-0.3-3-1.6c-1.2-1.3-1.7-2.9-1-3.3c0.6-0.4,1.8,0.3,3,1.6
							C450,463.8,450.5,465.4,449.8,465.8z"/>
					</g>
				</g>
			</g>
			<g>
				<g>
					<g>
						<path class="st5" d="M416.4,470.6c-0.6,0.4-1.8-0.3-3-1.6c-1.2-1.3-1.7-2.9-1-3.3c0.6-0.4,1.8,0.3,3,1.6
							C416.5,468.6,417,470.2,416.4,470.6z"/>
					</g>
				</g>
			</g>
		</g>
	</g>
	<g class="st13">
		<linearGradient id="SVGID_1_" gradientUnits="userSpaceOnUse" x1="8.5315" y1="217.9304" x2="442.3452" y2="217.9304">
			<stop  offset="0" style="stop-color:#FD8F7E"/>
			<stop  offset="0.1512" style="stop-color:#FD847E"/>
			<stop  offset="0.7019" style="stop-color:#FD6280"/>
			<stop  offset="1" style="stop-color:#FD5580"/>
		</linearGradient>
		<path class="st14" d="M118.7,400.7C65.6,382.8,19.5,338.3,10.1,283c-9.4-55.3,25.4-117.6,80.2-129.6c25.9-5.7,53.9-0.6,78.6-10.1
			c46.7-17.9,62.5-78.7,105.7-104c41.5-24.4,98.5-6.8,129.5,30.1c31,36.9,40,87.9,38.1,136c-2.8,70.7-32.8,147-97,176.9
			C291,407.6,176.7,414.7,118.7,400.7"/>
	</g>
	<g class="st13">
		<linearGradient id="SVGID_2_" gradientUnits="userSpaceOnUse" x1="739.3441" y1="674.1054" x2="1098.1235" y2="674.1054">
			<stop  offset="5.004130e-02" style="stop-color:#A568FA"/>
			<stop  offset="1" style="stop-color:#00D8FB"/>
		</linearGradient>
		<path class="st15" d="M830.5,825.3c-44-14.8-82.1-51.6-89.9-97.4c-7.8-45.7,21-97.3,66.3-107.2c21.4-4.7,44.5-0.5,65-8.4
			c38.6-14.8,51.7-65.1,87.4-86c34.4-20.2,81.5-5.6,107.1,24.9c25.6,30.5,33.1,72.7,31.5,112.5c-2.3,58.5-27.2,121.6-80.2,146.3
			C973,831,878.4,836.9,830.5,825.3"/>
	</g>
</g>
</svg>
