<svg xmlns="http://www.w3.org/2000/svg" viewBox="0 0 425.2 425.2"><defs><style>.cls-1{fill:#e1d2f4;}.cls-2{fill:#9b7ede;}.cls-3{fill:#66d7d1;}.cls-4{fill:#fff;}.cls-5{fill:#ffaea6;}.cls-6{fill:#241352;}.cls-7{fill:#f8c49e;}.cls-8{fill:#ff7180;}.cls-9{fill:#fac480;}.cls-10{fill:#fc7753;}.cls-11{fill:#7caaff;}.cls-12{fill:#fed766;}</style></defs><title>password</title><g id="Layer_2" data-name="Layer 2"><path class="cls-1" d="M361.3,351.18C395.55,314.93,415.49,262,416,212.1c.22-21.58-3.35-43.91-15.11-62s-33-31.08-54.43-28.55c-21,2.49-38.24,18.66-59.06,22.34-25.72,4.54-50.76-10.8-70-28.43S181,76.8,157.4,65.59c-31.19-14.83-70.1-9.16-98.14,11S13.83,129.79,9.07,164s2.34,69.37,16.23,101,34.31,60,56.78,86.2"/><rect class="cls-2" x="136.15" y="142.04" width="78.44" height="78"/><rect class="cls-3" x="136.15" y="142.04" width="78.44" height="8.47"/><path class="cls-4" d="M196.92,210.35a27,27,0,0,1-24.42-21.44,18,18,0,0,1-14.69-28.13l1.59,1.06A16.14,16.14,0,0,0,172.16,187a27,27,0,0,1,0-7.87c.6-3.89,2.86-8.65,7.22-9.29a7.24,7.24,0,0,1,7.42,4.49,9.29,9.29,0,0,1-1.09,8.59,13.67,13.67,0,0,1-6.9,5,17.15,17.15,0,0,1-4.4.91,25.1,25.1,0,0,0,22.62,19.58Zm-16.66-38.66a3.69,3.69,0,0,0-.58,0c-3.33.48-5.1,4.45-5.61,7.69a25.28,25.28,0,0,0,0,7.57,15.85,15.85,0,0,0,4.13-.82,11.87,11.87,0,0,0,5.95-4.31,7.37,7.37,0,0,0,.91-6.8A5.46,5.46,0,0,0,180.26,171.69Z"/><polygon class="cls-5" points="212.84 213.21 269.22 206.4 249.06 135.2 210.07 139.91 210.39 148.53 211.4 175.06 212.84 213.21"/><path class="cls-6" d="M211.4,175.06a44.73,44.73,0,0,0,35.06-24.85c-11.6-.4-23.17-1.24-34.77-1.65-.43,0-.86,0-1.3,0Z"/><path class="cls-5" d="M290.9,107.45a15.75,15.75,0,0,1-8.47,13.31c-4.93,2.49-12.56,2.52-17.1-.62a46.33,46.33,0,0,1-12.76,27.45,44.11,44.11,0,0,1-8.29,6.75l-.19.11a45.44,45.44,0,0,1-33.25,5.63,42,42,0,0,1-6.48-2A44.31,44.31,0,0,1,178,128c-2.62-10.67-1.09-21.87.75-32.69,1.43-8.44,3.16-17.11,6.83-24.75.11-.24.23-.48.34-.71a41.88,41.88,0,0,1,4.63-7.33q.25-.3.51-.63a39.76,39.76,0,0,1,25.34-13.57,38.79,38.79,0,0,1,5.28-.33A45.23,45.23,0,0,1,253.34,62a47.58,47.58,0,0,1,5.15,6.36,53.15,53.15,0,0,1,8.85,25.56,16,16,0,0,1,15.89-.22c.32.19.63.39.93.59A15.81,15.81,0,0,1,290.9,107.45Z"/><path class="cls-6" d="M272.42,112.74l-1.82-.4.1-12.39,1.91,0-.08,9.27a9.71,9.71,0,0,1,3.46-2.33,9.83,9.83,0,0,1,7.33.06l-.73,1.76a7.86,7.86,0,0,0-10.17,4Z"/><path class="cls-6" d="M211,123.23a4,4,0,0,1-1.55-.31,3.75,3.75,0,0,1-2.13-2,8.28,8.28,0,0,1-.25-3.69l1.56-17.2,1.9.17-1.56,17.2a6.63,6.63,0,0,0,.13,2.85,2,2,0,0,0,1.06.9,2,2,0,0,0,1.64,0l.81,1.72A3.75,3.75,0,0,1,211,123.23Z"/><path class="cls-6" d="M217.28,131.35H217l.07-1.91a7.27,7.27,0,0,0,7.54-7.74l1.9-.13a9.18,9.18,0,0,1-9.18,9.78Z"/><path class="cls-6" d="M225,101.91c.18,1.49,1.13,2.6,2.13,2.48s1.65-1.43,1.47-2.92-1.13-2.6-2.13-2.48S224.77,100.42,225,101.91Z"/><path class="cls-6" d="M193.4,102.68c.18,1.49,1.13,2.6,2.12,2.48s1.66-1.43,1.48-2.92-1.13-2.6-2.13-2.48S193.22,101.19,193.4,102.68Z"/><path class="cls-6" d="M229.59,93.23a7,7,0,0,0,2.78-.17c1.55-.72,1.54-2.36.11-3.36s-3.63-1.24-5.36-1.35c-1.17-.08-2.92-.13-3.92.66a2.34,2.34,0,0,0-.52,3.12C224.09,94.41,227.43,93.21,229.59,93.23Z"/><path class="cls-6" d="M192.53,95a6.75,6.75,0,0,1-2.79.08c-1.6-.57-1.74-2.21-.41-3.33s3.5-1.56,5.21-1.83c1.17-.18,2.9-.4,4,.3a2.34,2.34,0,0,1,.8,3.06C198.11,95.71,194.68,94.82,192.53,95Z"/><path class="cls-7" d="M41.93,92.16c-6.24,1-4.44,22.24-2.56,36.22"/><path class="cls-5" d="M39.37,128.38c-2.62-10.29-8-27.27-14.56-25.83-10,2.19,5.72,81,5.72,81l60.39-32C83.2,135.05,94.59,119,87.57,116.4S74,130.82,74,130.82,67,93.68,59,95.08c-4,.7-3.94,14.71-3.57,22.71C52,106.71,46.25,91.47,41.93,92.16"/><path class="cls-6" d="M54.75,122c-.81-17.89.56-27.28,4.08-27.89L59.16,96c-1.76.3-3.3,8.55-2.5,25.93Z"/><path class="cls-6" d="M38.42,128.51c-3.21-23.87-2.07-36.42,3.36-37.29l.31,1.88c-1.5.24-6,3.48-1.78,35.15Z"/><path class="cls-6" d="M59.42,156.81A23.26,23.26,0,0,1,69.91,136.5l1,1.6a21.29,21.29,0,0,0-9.61,18.62Z"/><rect class="cls-6" x="34.75" y="134.09" width="27.15" height="1.9" transform="translate(-41.99 23.62) rotate(-19.34)"/><path class="cls-8" d="M380.57,351s-40.09-151.93-60.52-161.36-58.18-10-58.18-10-42.35,38.44-50,2.19c0,0-30.67,1.48-43.24,7.24-12.83,5.88-46,19.21-46,19.21L90.92,151.57l-60.39,32S43.68,342.66,156.59,292.33V351Z"/><path class="cls-6" d="M291.54,197l-1.28-.93,2-43.74,1.54-.7L330.9,181l-.26,1.64Zm2.56-42.73-1.88,40.45,36.17-13.31Z"/><path class="cls-6" d="M221.82,333.32A86.28,86.28,0,0,1,211,351.15H116.84c-5.8-7.36-11.64-15-14.11-24-2.54-9.28-.61-20.49,7.14-26.19a18,18,0,0,1,28.63,13.84c1.26-14.79,6.73-29.57,17.19-40.1s26.29-16.17,40.67-12.48c13.89,3.57,24.85,15.47,29.08,29.18S227.68,320.22,221.82,333.32Z"/><path class="cls-4" d="M148.08,351.48l-1.39-1.3a108.08,108.08,0,0,1,14-12.31C171.58,330,180.74,327,188,329c6.74,1.9,11.5,8.15,14.17,18.62a110.36,110.36,0,0,1,11.75-22.27c11.49-16.47,25.55-24.56,40.64-23.38l-.15,1.9c-34.9-2.72-51.38,46.89-51.54,47.39l-1.84-.1c-2.34-11.62-6.9-18.46-13.54-20.32C171.52,326.4,148.32,351.23,148.08,351.48Z"/><path class="cls-6" d="M267.34,93.89c-5.47-.84-9.84-5.46-12.26-10.45s-3.14-10.61-3.65-16.14c1.45,1.19,3.64,1.11,5.52,1.1.51,0,1,0,1.54-.07A53.15,53.15,0,0,1,267.34,93.89Z"/><path class="cls-6" d="M182,61.37A6.79,6.79,0,0,0,179.69,69a9.16,9.16,0,0,0,6.05,5.54,14.38,14.38,0,0,0,8.39-.25,20.29,20.29,0,0,0,10.68-7.83c1,4.22,4.77,8.19,9.06,8.76a11,11,0,0,0,10.86-5.58"/><path class="cls-9" d="M262.88,76.26,190.46,62.62a.21.21,0,0,1,0-.06q.25-.3.51-.63a39.76,39.76,0,0,1,25.34-13.57,38.79,38.79,0,0,1,5.28-.33A45.23,45.23,0,0,1,253.34,62,49.52,49.52,0,0,1,262.88,76.26Z"/><rect class="cls-8" x="205.41" y="8.1" width="1.9" height="115.03" transform="matrix(0.19, -0.98, 0.98, 0.19, 103.68, 256.26)"/><path class="cls-2" d="M398.43,169c-1.75,9.4-4.47,17.09-9.75,25a28.31,28.31,0,0,1-6.38,6.82l-5.19-6.66,2.17,8.67a22.32,22.32,0,0,1-15,3A33.53,33.53,0,0,1,398.43,169Z"/><path class="cls-10" d="M383.58,152.54l-8.7,1.92,8.32,1.68c-.13.82-.27,1.63-.43,2.41-1.33,6.22-3.85,12.31-8.12,17s-11.54,8.26-17.89,8.11a38.36,38.36,0,0,1,27.16-45.38C383.85,142.72,384,147.78,383.58,152.54Z"/><path class="cls-6" d="M345.85,263.45l-1.88-.08c-2.82-28,5.48-74.34,24.25-103.33l1.6,1c-17.05,26.34-25.36,67.15-24.42,95.08,5.33-24.72,13.85-50,34.89-71.18l1.35,1.35C359,209.12,351.05,236.86,345.85,263.45Z"/><ellipse class="cls-11" cx="346.67" cy="302.62" rx="55.44" ry="48.4"/><rect class="cls-6" x="334.92" y="243.88" width="23.49" height="21.14"/><path class="cls-6" d="M142.21,258a12.44,12.44,0,0,1-.46-24.87h0a12.44,12.44,0,0,1,.92,24.86Zm-.39-23a10.53,10.53,0,1,0,10.92,10.14A10.53,10.53,0,0,0,141.82,235Z"/><path class="cls-12" d="M130.48,104a8.62,8.62,0,1,0,8.93,8.3A8.61,8.61,0,0,0,130.48,104Z"/></g></svg>