<svg xmlns="http://www.w3.org/2000/svg" viewBox="0 0 425.2 425.2"><defs><style>.cls-1{isolation:isolate;}.cls-2{opacity:0.54;}.cls-3{fill:#e1d2f4;}.cls-4{fill:#bdacd8;}.cls-5{opacity:0.15;mix-blend-mode:multiply;}.cls-6,.cls-7{fill:#3b3b3b;}.cls-16,.cls-7{opacity:0.41;}.cls-8{fill:#7caaff;}.cls-9{fill:#241352;}.cls-10{fill:#ffaea6;}.cls-11{fill:#5f2d8f;}.cls-12{fill:#fac480;}.cls-13{fill:#6f35a4;}.cls-14{fill:#9b8abe;}.cls-15,.cls-16{fill:#fff;}.cls-17{fill:#e3b0ec;}.cls-18{fill:#002c68;}.cls-19{opacity:0.28;}.cls-20{opacity:0.12;}.cls-21{fill:#6042dc;}.cls-22{fill:#fbf1fc;}.cls-23{fill:#7e2e83;}.cls-24{fill:#ff7180;}.cls-25{fill:#ff947e;}</style></defs><title>signin</title><g class="cls-1"><g id="Layer_1" data-name="Layer 1"><g class="cls-2"><path class="cls-3" d="M107.65,376C56.74,358.83,12.59,316.18,3.55,263.22S27.9,150.58,80.38,139.1c24.82-5.43,51.6-.58,75.31-9.7,44.71-17.19,59.9-75.35,101.21-99.61,39.8-23.37,94.36-6.51,124,28.86s38.3,84.17,36.48,130.29c-2.67,67.76-31.46,140.83-92.91,169.48-51.79,24.14-161.29,31-216.83,17.57"/></g><path class="cls-4" d="M47.83,366c11.26,17.89,34.44,24.6,55.57,24.17s41.78-6.47,62.88-7.69c33.43-1.94,66.2,8.23,99.06,14.67s68.79,8.74,98.1-7.47c7.18-4,14.1-9.38,17-17.05s.28-17.84-7.29-21c-2.93-1.22-6.19-1.3-9.36-1.36l-211.24-3.92c-35.84-.66-75.35-.05-102.24,23.66"/><g class="cls-5"><path class="cls-6" d="M348.35,154.52c-4.3,4.13-5.94,10.56-1.84,15.51A12,12,0,0,0,362.66,172c11.64-9-.49-25.56-13.05-22.13-2.32.64-1.74,3.95.55,4.08,3.68.21,7.61.35,10.54,2.93a7.64,7.64,0,0,1,.64,10.62c-6.85,8.41-18.74-4-11.55-11.51a1,1,0,0,0-1.44-1.44Z"/><path class="cls-6" d="M68.26,113.69A14,14,0,0,0,48.54,127c.15,3.7,1.63,7.92-.73,10.78-1.82,2.22-5.07,2.42-7.68,3.6A10.8,10.8,0,0,0,35,155.14c1.22,2.68,3.64,5.15,3.18,8.06a6.53,6.53,0,0,1-3.45,4.33c-1.66.95-3.51,1.49-5.23,2.33-6.25,3-10,10.16-9.86,17.11s4,13.56,9.49,17.83a33.68,33.68,0,0,0,19.44,6.62c7,.25,14.26-1.38,19.58-5.89,4-3.38,6.59-8.13,8.51-13a64.9,64.9,0,0,0,4.29-29.28C80,153,76.7,143,76,132.71c-.25-3.45-.2-7-1-10.32s-2.49-6.7-5.45-8.5"/><path class="cls-6" d="M66.68,115A30.77,30.77,0,0,1,87.42,98.57c5.48-1.21,11.49-.8,16.31,2.08s8.14,8.51,7.4,14.07c-.45,3.44-2.32,6.51-3.5,9.77s-1.58,7.24.63,9.93c2,2.4,5.36,3,8.06,4.55a12.09,12.09,0,0,1-1.24,21.56,14.53,14.53,0,0,1,12.47,17.75c-1.34,5.69-6,10.05-10.94,13.13a48.24,48.24,0,0,1-23.07,7.12c-8.62.39-18.17-2.16-22.86-9.41-3.08-4.76-3.55-10.69-3.9-16.35-1-17.08-1.75-34.17-2.47-51.26a29.71,29.71,0,0,1,.42-8.22"/><path class="cls-6" d="M95.69,192.17l77.31,29-7.38-31.23,20.1-5.1s21.63,61,6.61,62.66c-26.29,2.86-66.08-7.55-66.08-7.55Z"/><path class="cls-6" d="M88.93,325.39s93.4-101.95,156.45-79.69,89.67,126.09,89.67,126.09L284.83,371s-39.66-78.42-59-75.38-79.13,77.68-79.13,77.68Z"/><path class="cls-6" d="M118.48,263.5l3.87,59.81c-20.13,24.75-90.22-7.25-90.22-7.25l-.81-25-1.63-59.56c1.61-23.72,23.64-35.36,23.64-35.36,9.11-4.54,23-7.12,35.51-6.5,13.07.64,16.3,6.9,21.68,18.82C114.86,218.08,126.66,233.77,118.48,263.5Z"/><path class="cls-6" d="M45.23,327.33s-10.72,43.63,22,50.5,152.83-9.21,184.13-6.45,120.3,7.94,120.3,7.94l6.52-51.81S239.63,320.87,224,324.76,45.23,327.33,45.23,327.33Z"/><path class="cls-6" d="M60.9,251.05s-9.8,57.73,4,56.31c45.44-4.67,72.5-5.3,72.5-5.3L145,317.7c.18,2.66-86.06,27.35-99.91,19.18-9.79-5.76-25.37-21.28-18.3-67.67l1.67-15.55Z"/><polygon class="cls-6" points="101.9 333.93 101.81 330.06 158.85 322.01 173.99 269.06 237.17 267.53 220.12 324.83 101.9 333.93"/><path class="cls-6" d="M204.43,294.16a4.68,4.68,0,1,1-4.79-4.57A4.67,4.67,0,0,1,204.43,294.16Z"/><path class="cls-7" d="M206.3,294.11a6.55,6.55,0,1,1-6.7-6.39A6.55,6.55,0,0,1,206.3,294.11Z"/><path class="cls-6" d="M35.9,212.76s-10.6,10.17-13,48.69l41-4.54S70.79,191.31,35.9,212.76Z"/><path class="cls-6" d="M337.06,96.94s14.54,32.66,18.6,31,41.61-25,41.61-25-15.39-29.24-18.6-30.94S337.06,96.94,337.06,96.94Z"/><path class="cls-6" d="M378.67,71.93c.19.07-.88,3.42-2.76,8.77s-4.57,12.73-7.62,20.84l-.22.58-.2.55-.58-.1c-8.41-1.37-16-2.68-21.45-3.7s-8.81-1.74-8.78-1.93,3.44.18,8.94,1,13.11,1.91,21.52,3.28l-.78.45L367,101c3.05-8.1,5.89-15.41,8-20.68S378.49,71.86,378.67,71.93Z"/><path class="cls-6" d="M350.88,124.05c-.38-.08.5-5.51,2.29-12s3.77-11.66,4.13-11.54-1,5.42-2.76,11.91S351.27,124.14,350.88,124.05Z"/><path class="cls-6" d="M394.79,96.38c-.06.38-5.3-.12-11.7-1.14s-11.55-2.15-11.49-2.54,5.31.12,11.71,1.14S394.85,96,394.79,96.38Z"/><path class="cls-6" d="M56.45,132l.93,12.22s-10.4,1.41-7.44,10.89S60,160.47,60,160.47s1.78,24.3,26.67,16.6c19.81-6.14,18.6-31.79,16.08-53.66a14.64,14.64,0,0,0-17.36-12.67l-15,2.92A17.37,17.37,0,0,0,56.45,132Z"/><path class="cls-6" d="M57.38,154.4l6.7,35.77a14.35,14.35,0,0,0,17.43,11.31h0A14.35,14.35,0,0,0,92.31,185l-3.64-20.49Z"/><path class="cls-6" d="M84.91,154.8c.09-.06.3.32.75.38s1.12-.42,1.28-1.39a12.41,12.41,0,0,0,0-3.7c-.13-1.46-.25-3.07-.36-4.76-.42-6.77-.44-12.28,0-12.3s1,5.44,1.48,12.21c.1,1.69.18,3.3.24,4.77a11.15,11.15,0,0,1-.31,4.06,2.63,2.63,0,0,1-1,1.43,1.55,1.55,0,0,1-1.37.21,1,1,0,0,1-.61-.61C84.85,154.92,84.87,154.82,84.91,154.8Z"/><path class="cls-6" d="M93,174.57c.11.13-.87,1.22-2.92,2.4a18.89,18.89,0,0,1-17.75.37c-2.1-1.09-3.13-2.13-3-2.27s1.35.55,3.44,1.35a21.77,21.77,0,0,0,16.89-.35C91.67,175.18,92.85,174.39,93,174.57Z"/><path class="cls-6" d="M88.12,159.82c.14.1-.18.9-1.28,1.68a5.84,5.84,0,0,1-8.78-2.82c-.44-1.27-.24-2.11-.06-2.11s.38.72,1,1.68a5.68,5.68,0,0,0,7.38,2.37C87.39,160.19,88,159.68,88.12,159.82Z"/><path class="cls-6" d="M56.59,156.32c0,.17-.6.46-1.69.15A2.41,2.41,0,0,1,53.41,155a2.11,2.11,0,0,1-.06-1.37,1.79,1.79,0,0,1,1.1-1.19,1.91,1.91,0,0,1,1.16-.07,1.62,1.62,0,0,1,1,.73l-1.21.63c-.79-2-1.18-3.54-.88-3.67s1.18,1.19,2.13,3.12l-1.21.63a.5.5,0,0,0-.48,0,.44.44,0,0,0-.27.28.89.89,0,0,0,0,.54,1.53,1.53,0,0,0,.67.92C56,156,56.61,156.11,56.59,156.32Z"/><path class="cls-6" d="M94.88,139.17c-.39.08-.89-.72-1.14-1.8s-.13-2,.25-2.12.9.72,1.14,1.8S95.26,139.08,94.88,139.17Z"/><path class="cls-6" d="M73.8,141.13c-.38.1-.93-.69-1.23-1.77s-.23-2,.14-2.15.93.69,1.24,1.77S74.18,141,73.8,141.13Z"/><path class="cls-6" d="M75.76,132.22c-.12.39-1.24.38-2.48.72s-2.23.87-2.52.6c-.13-.14,0-.5.33-.91a3.93,3.93,0,0,1,3.94-1C75.55,131.77,75.81,132,75.76,132.22Z"/><path class="cls-6" d="M97.28,128.81c-.16.38-1.39.19-2.84.33s-2.63.51-2.85.17c-.1-.16.1-.5.58-.85a4.43,4.43,0,0,1,2.15-.73,4.5,4.5,0,0,1,2.24.35C97.1,128.34,97.35,128.64,97.28,128.81Z"/><path class="cls-6" d="M57.38,144.25c6.94-6.77,9-18.06,10.87-27.57A24.31,24.31,0,0,0,91,119.63,36.62,36.62,0,0,0,99,126.7a3.6,3.6,0,0,0,2.86.79c1.17-.35,1.69-1.69,2-2.87a20.46,20.46,0,0,0-.4-11.53,13.82,13.82,0,0,0-7.74-8.29c-3.88-1.51-8.25-.85-12.29.19a68.56,68.56,0,0,0-17.35,7.17c-5.32,3.12-10.42,7.24-12.68,13S51.16,142,56.59,144.91"/><path class="cls-6" d="M85.74,161.15a2.91,2.91,0,0,1-3.56,3.34,2.9,2.9,0,0,1-1.9-4.5,6.5,6.5,0,0,1,1.79-1.91,2.15,2.15,0,0,1,1.59-.56c.46.09.83.52,1.22,1.16A6.77,6.77,0,0,1,85.74,161.15Z"/><path class="cls-6" d="M77.08,149.8c.34,1.93-2,4-5.37,4.12s-5.88-1.67-5.71-3.62,2.58-3.37,5.39-3.5S76.73,147.85,77.08,149.8Z"/><path class="cls-6" d="M103.4,147.65a3,3,0,0,1-1.08,2.72,6.25,6.25,0,0,1-7.39.38,3,3,0,0,1-1.34-2.6c.19-2,2.31-3.37,4.74-3.5S103,145.71,103.4,147.65Z"/><path class="cls-6" d="M57.09,176.62c-.4,0-.62-3.93-.87-8.75s-.43-8.74,0-8.79,1.2,3.83,1.45,8.72S57.48,176.63,57.09,176.62Z"/><path class="cls-6" d="M98.39,191.91c-6.73-2.67,45,16.54,45,16.54l-5.25,35.4-19.68-6.46Z"/><path class="cls-6" d="M67.6,111.84A10.7,10.7,0,0,0,69,103.38c-.6-2.36-2.37-4.69-4.79-4.81a5.25,5.25,0,0,0-3.73,1.54,7.65,7.65,0,0,0,7.28,13"/><path class="cls-6" d="M376.75,338.53s16.83-24.13,14.78-15-19.15,49.73-19.15,49.73Z"/><path class="cls-6" d="M132.64,302.06s22.24-7,21.48-4.68-4.55,2.38-8.34,6.08c0,0,24.86.27,23.67,2.32s-17.38,2.56-17.48,2.91,17.7.78,17.3,2.68-16.94,1.43-16.94,1.43,15.34,1.63,15,3.67-14.45.57-14.45.57,11.83,1.35,11.52,3.2c-.18,1.13-34.63,1.39-34.7,2.22,0,.43,2.92-20.4,2.92-20.4"/><path class="cls-6" d="M167.07,191.91S153.57,173,156,173s3.67,3.57,8.34,6c0,0-7.46-23.61-5.15-23.11s7.82,15.65,8.18,15.63-4.75-17-2.84-17.2,6.61,15.58,6.61,15.58-3.21-15-1.18-15.35,5,13.5,5,13.5-2.39-11.62-.54-11.9c1.12-.17,11.31,28.64,11.31,28.64-.26,0-18.65,7.08-18.65,7.08"/><path class="cls-6" d="M42.53,243.85c.09,0,.23.21.38.66a6.18,6.18,0,0,1,.3,2,3.64,3.64,0,0,1-1.46,2.9,2.7,2.7,0,0,1-2.12.5,3.61,3.61,0,0,1-1.84-1.19,11.73,11.73,0,0,0-1.17-1.22,2.45,2.45,0,0,0-1.19-.52,2.56,2.56,0,0,0-2.14.61c-1,1-1,2.07-1.23,2s-.24-.24-.25-.74a3.18,3.18,0,0,1,.74-2,3.51,3.51,0,0,1,3-1.23,3.75,3.75,0,0,1,1.89.72,10.25,10.25,0,0,1,1.36,1.36c.78.89,1.45,1,2.18.58a2.73,2.73,0,0,0,1.19-1.93,12.8,12.8,0,0,0,.16-1.82C42.38,244.12,42.43,243.86,42.53,243.85Z"/><path class="cls-6" d="M54.68,233.36c-.07-.07.06-.31.36-.67a6.24,6.24,0,0,1,1.56-1.29,3.62,3.62,0,0,1,3.24-.27,2.67,2.67,0,0,1,1.52,1.55,3.6,3.6,0,0,1-.06,2.19,11.52,11.52,0,0,0-.43,1.64,2.43,2.43,0,0,0,.17,1.28,2.58,2.58,0,0,0,1.64,1.51c1.36.4,2.29-.2,2.39,0s-.08.32-.5.59a3.13,3.13,0,0,1-2.1.41,3.48,3.48,0,0,1-2.62-1.95,3.56,3.56,0,0,1-.37-2,10.79,10.79,0,0,1,.45-1.86c.36-1.13.13-1.78-.64-2.17a2.74,2.74,0,0,0-2.26,0,13,13,0,0,0-1.64.82C55,233.34,54.74,233.44,54.68,233.36Z"/><path class="cls-6" d="M53.85,207.24c-.06-.08.07-.31.37-.67a6,6,0,0,1,1.56-1.3A3.64,3.64,0,0,1,59,205a2.66,2.66,0,0,1,1.53,1.55,3.6,3.6,0,0,1-.06,2.19,11.79,11.79,0,0,0-.43,1.63,2.45,2.45,0,0,0,.17,1.29,2.58,2.58,0,0,0,1.64,1.51c1.36.4,2.29-.21,2.39,0s-.08.33-.51.6a3.14,3.14,0,0,1-2.09.41A3.5,3.5,0,0,1,59,212.22a3.56,3.56,0,0,1-.37-2,10.79,10.79,0,0,1,.45-1.86c.36-1.13.13-1.78-.64-2.17a2.78,2.78,0,0,0-2.26,0,13,13,0,0,0-1.64.82C54.17,207.22,53.92,207.32,53.85,207.24Z"/><path class="cls-6" d="M79.76,241.26c-.07.07-.31,0-.7-.31a6.1,6.1,0,0,1-1.43-1.43,3.67,3.67,0,0,1-.54-3.21,2.66,2.66,0,0,1,1.41-1.65,3.63,3.63,0,0,1,2.19-.14,12.09,12.09,0,0,0,1.66.3,2.53,2.53,0,0,0,1.27-.29A2.59,2.59,0,0,0,85,232.77c.28-1.4-.41-2.27-.23-2.39s.34.06.64.46a3.17,3.17,0,0,1,.59,2,3.49,3.49,0,0,1-1.71,2.78,3.73,3.73,0,0,1-2,.54,10.26,10.26,0,0,1-1.9-.29c-1.15-.25-1.78,0-2.1.83A2.81,2.81,0,0,0,78.5,239a15.07,15.07,0,0,0,1,1.56C79.71,241,79.83,241.19,79.76,241.26Z"/><path class="cls-6" d="M97.42,268.58c.06.08-.09.3-.41.64a6.22,6.22,0,0,1-1.65,1.18,3.64,3.64,0,0,1-3.25,0,2.62,2.62,0,0,1-1.4-1.66,3.59,3.59,0,0,1,.21-2.18,12.44,12.44,0,0,0,.56-1.59,2.63,2.63,0,0,0-1.6-2.93c-1.33-.49-2.31,0-2.39-.16s.1-.31.55-.55a3.15,3.15,0,0,1,2.12-.26,3.52,3.52,0,0,1,2.47,2.14,3.65,3.65,0,0,1,.22,2,9.84,9.84,0,0,1-.59,1.83c-.44,1.1-.25,1.76.48,2.2a2.77,2.77,0,0,0,2.26.19,13.88,13.88,0,0,0,1.69-.7C97.11,268.57,97.36,268.5,97.42,268.58Z"/><path class="cls-6" d="M118.22,225.49c0,.08-.09.31-.42.64a6.06,6.06,0,0,1-1.65,1.18,3.63,3.63,0,0,1-3.25,0,2.68,2.68,0,0,1-1.4-1.66,3.51,3.51,0,0,1,.22-2.18,13.37,13.37,0,0,0,.55-1.6,2.39,2.39,0,0,0-.08-1.3,2.58,2.58,0,0,0-1.52-1.63c-1.33-.49-2.3,0-2.39-.15s.11-.32.55-.56A3.1,3.1,0,0,1,111,218a3.47,3.47,0,0,1,2.47,2.13,3.79,3.79,0,0,1,.23,2,11.8,11.8,0,0,1-.59,1.82c-.44,1.1-.26,1.76.47,2.2a2.74,2.74,0,0,0,2.26.19,13.24,13.24,0,0,0,1.69-.7C117.9,225.49,118.16,225.41,118.22,225.49Z"/><path class="cls-6" d="M132.4,218.94c.06-.08.32,0,.74.17a5.87,5.87,0,0,1,1.67,1.15,3.63,3.63,0,0,1,1.12,3.05,2.64,2.64,0,0,1-1.08,1.88,3.67,3.67,0,0,1-2.13.54,11.65,11.65,0,0,0-1.69,0,2.46,2.46,0,0,0-1.19.52,2.57,2.57,0,0,0-1,2c0,1.42.81,2.15.66,2.3s-.34,0-.71-.33a3.19,3.19,0,0,1-1-1.91,3.46,3.46,0,0,1,1.18-3,3.73,3.73,0,0,1,1.82-.9,11.46,11.46,0,0,1,1.91-.06c1.19,0,1.75-.35,1.92-1.19a2.79,2.79,0,0,0-.59-2.19,14.2,14.2,0,0,0-1.23-1.36C132.5,219.23,132.35,219,132.4,218.94Z"/><path class="cls-6" d="M75,290.86c0,.08-.09.3-.42.63A5.93,5.93,0,0,1,73,292.67a3.64,3.64,0,0,1-3.25,0A2.66,2.66,0,0,1,68.29,291a3.66,3.66,0,0,1,.22-2.18,14.22,14.22,0,0,0,.56-1.59,2.62,2.62,0,0,0-1.61-2.93c-1.33-.5-2.3,0-2.39-.16s.11-.32.56-.56a3.18,3.18,0,0,1,2.11-.25,3.52,3.52,0,0,1,2.48,2.14,3.74,3.74,0,0,1,.22,2,11.24,11.24,0,0,1-.59,1.83c-.44,1.1-.26,1.76.48,2.2a2.75,2.75,0,0,0,2.25.19,13.47,13.47,0,0,0,1.7-.7C74.69,290.85,75,290.78,75,290.86Z"/><path class="cls-6" d="M105.78,249.39c-.07.06-.3-.07-.65-.38a6.18,6.18,0,0,1-1.25-1.6,3.66,3.66,0,0,1-.17-3.24,2.7,2.7,0,0,1,1.61-1.48,3.54,3.54,0,0,1,2.18.13,12.38,12.38,0,0,0,1.62.48,2.45,2.45,0,0,0,1.29-.13,2.62,2.62,0,0,0,1.57-1.59c.43-1.35-.14-2.3,0-2.39s.32.09.58.52a3.1,3.1,0,0,1,.34,2.11,3.48,3.48,0,0,1-2,2.56,3.69,3.69,0,0,1-2,.31,11.29,11.29,0,0,1-1.84-.51c-1.12-.39-1.78-.19-2.19.57a2.79,2.79,0,0,0-.09,2.26,15.22,15.22,0,0,0,.77,1.66C105.78,249.08,105.86,249.33,105.78,249.39Z"/><path class="cls-6" d="M111.31,271.67c-.08.06-.31-.07-.66-.39a6.1,6.1,0,0,1-1.24-1.59,3.61,3.61,0,0,1-.17-3.25,2.66,2.66,0,0,1,1.6-1.47,3.66,3.66,0,0,1,2.19.12,12.15,12.15,0,0,0,1.62.49,2.46,2.46,0,0,0,1.29-.13,2.62,2.62,0,0,0,1.56-1.59c.44-1.35-.14-2.3.06-2.4s.32.1.58.53a3.22,3.22,0,0,1,.34,2.11,3.53,3.53,0,0,1-2,2.56,3.7,3.7,0,0,1-2,.3,10.49,10.49,0,0,1-1.85-.51c-1.12-.39-1.77-.18-2.18.57a2.74,2.74,0,0,0-.09,2.27,13.54,13.54,0,0,0,.77,1.66C111.3,271.36,111.39,271.61,111.31,271.67Z"/><path class="cls-6" d="M66.77,262.17c-.1,0-.18-.26-.23-.73a5.87,5.87,0,0,1,.15-2,3.6,3.6,0,0,1,2.06-2.51,2.64,2.64,0,0,1,2.17,0,3.56,3.56,0,0,1,1.54,1.56,11.51,11.51,0,0,0,.87,1.45,2.53,2.53,0,0,0,1,.77,2.59,2.59,0,0,0,2.23-.13c1.23-.7,1.44-1.79,1.65-1.73s.18.28.08.78a3.2,3.2,0,0,1-1.16,1.79,3.53,3.53,0,0,1-3.23.53,3.7,3.7,0,0,1-1.69-1.12,10.71,10.71,0,0,1-1-1.62c-.57-1-1.19-1.32-2-1a2.74,2.74,0,0,0-1.59,1.61,14.26,14.26,0,0,0-.55,1.75C67,261.93,66.86,262.18,66.77,262.17Z"/><path class="cls-6" d="M107,289.67c-.09,0-.18-.26-.22-.73a5.87,5.87,0,0,1,.15-2,3.61,3.61,0,0,1,2-2.51,2.66,2.66,0,0,1,2.18,0,3.72,3.72,0,0,1,1.54,1.56,10.82,10.82,0,0,0,.87,1.45,2.39,2.39,0,0,0,1,.77,2.59,2.59,0,0,0,2.23-.13c1.23-.7,1.44-1.79,1.65-1.73s.17.29.07.78a3.06,3.06,0,0,1-1.16,1.79,3.47,3.47,0,0,1-3.22.53,3.62,3.62,0,0,1-1.69-1.12,10.23,10.23,0,0,1-1-1.62c-.57-1-1.19-1.32-2-1a2.76,2.76,0,0,0-1.59,1.62,13.67,13.67,0,0,0-.55,1.74C107.2,289.43,107.09,289.68,107,289.67Z"/><path class="cls-6" d="M105.83,206.35c-.1,0-.18-.26-.23-.72a6.12,6.12,0,0,1,.15-2,3.61,3.61,0,0,1,2.06-2.52,2.64,2.64,0,0,1,2.17,0,3.51,3.51,0,0,1,1.54,1.56,13.81,13.81,0,0,0,.87,1.45,2.54,2.54,0,0,0,1,.76,2.57,2.57,0,0,0,2.22-.12c1.23-.71,1.45-1.8,1.65-1.74s.18.29.08.78a3.16,3.16,0,0,1-1.16,1.79,3.5,3.5,0,0,1-3.23.53,3.68,3.68,0,0,1-1.69-1.11,11.22,11.22,0,0,1-1-1.62c-.57-1-1.19-1.33-2-1.05a2.79,2.79,0,0,0-1.59,1.62,13.26,13.26,0,0,0-.55,1.75C106,206.11,105.93,206.36,105.83,206.35Z"/><path class="cls-6" d="M92.68,300.73c0,.09-.31.06-.75-.08a6,6,0,0,1-1.8-.93,3.64,3.64,0,0,1-1.5-2.89,2.65,2.65,0,0,1,.85-2,3.62,3.62,0,0,1,2-.8,14.28,14.28,0,0,0,1.67-.22,2.53,2.53,0,0,0,1.12-.66,2.57,2.57,0,0,0,.76-2.1c-.16-1.41-1.07-2-.94-2.2s.33-.05.75.24a3.06,3.06,0,0,1,1.18,1.77,3.47,3.47,0,0,1-.78,3.17,3.56,3.56,0,0,1-1.69,1.11,11.16,11.16,0,0,1-1.9.31c-1.18.1-1.68.57-1.75,1.42a2.78,2.78,0,0,0,.86,2.1,14.09,14.09,0,0,0,1.39,1.19C92.55,300.45,92.73,300.64,92.68,300.73Z"/><path class="cls-6" d="M45,218.94c.08-.06.3.1.61.45a5.86,5.86,0,0,1,1.09,1.7,3.62,3.62,0,0,1-.15,3.25,2.66,2.66,0,0,1-1.73,1.31,3.66,3.66,0,0,1-2.17-.33,12.29,12.29,0,0,0-1.56-.65,2.49,2.49,0,0,0-1.3,0,2.61,2.61,0,0,0-1.71,1.43c-.57,1.3-.09,2.3-.29,2.38s-.31-.13-.53-.58a3.14,3.14,0,0,1-.13-2.13,3.48,3.48,0,0,1,2.27-2.35,3.7,3.7,0,0,1,2-.12,12.18,12.18,0,0,1,1.79.69c1.07.5,1.74.36,2.23-.35a2.76,2.76,0,0,0,.3-2.24,11.24,11.24,0,0,0-.6-1.73C45,219.25,44.89,219,45,218.94Z"/><path class="cls-6" d="M91,210.69c.09-.05.3.11.62.45a6.23,6.23,0,0,1,1.09,1.71,3.65,3.65,0,0,1-.16,3.25,2.66,2.66,0,0,1-1.73,1.31,3.59,3.59,0,0,1-2.17-.34,11.51,11.51,0,0,0-1.56-.64,2.49,2.49,0,0,0-1.3,0,2.56,2.56,0,0,0-1.71,1.43c-.57,1.3-.09,2.3-.29,2.37s-.31-.12-.53-.58a3.13,3.13,0,0,1-.13-2.13,3.5,3.5,0,0,1,2.27-2.35,3.71,3.71,0,0,1,2-.11,10.8,10.8,0,0,1,1.79.69c1.07.5,1.75.36,2.23-.35a2.82,2.82,0,0,0,.31-2.25,15.17,15.17,0,0,0-.6-1.73C91,211,90.94,210.75,91,210.69Z"/><path class="cls-6" d="M62.64,259.16a10.44,10.44,0,0,1,0-2.82c.12-1.81.32-4.41.61-7.63.57-6.43,1.48-15.32,2.53-25.1a28.32,28.32,0,0,0,0-7,12.18,12.18,0,0,0-2.42-5.8A14.81,14.81,0,0,0,59.06,207a17.66,17.66,0,0,0-4.74-1.88,27.42,27.42,0,0,0-7.48-.65,15.38,15.38,0,0,1-2.8.06,8.42,8.42,0,0,1,2.76-.62,23.85,23.85,0,0,1,7.74.23A16.8,16.8,0,0,1,64.46,210a13.44,13.44,0,0,1,2.76,6.4,28.7,28.7,0,0,1,0,7.35c-1.06,9.81-2.12,18.66-3,25.07-.41,3.2-.77,5.79-1,7.58A11.93,11.93,0,0,1,62.64,259.16Z"/><path class="cls-6" d="M64.46,256.92c0,.39-9.31,1.7-20.88,2.93s-21,1.9-21,1.51,9.31-1.71,20.89-2.93S64.42,256.53,64.46,256.92Z"/><path class="cls-6" d="M121.44,252.29c-.23,0,.2-2.08.41-5.38,0-.82.09-1.72.06-2.69s-.06-2-.11-3.09a45.94,45.94,0,0,0-1.14-7,47.63,47.63,0,0,0-2.32-6.67c-.47-1-.89-1.93-1.37-2.77s-.91-1.63-1.35-2.33c-1.75-2.8-3.09-4.38-2.92-4.54s1.74,1.24,3.76,4a24.37,24.37,0,0,1,1.53,2.31c.55.84,1,1.8,1.54,2.8a36,36,0,0,1,3.58,14.1c0,1.13.06,2.19,0,3.19a27.39,27.39,0,0,1-.25,2.77C122.38,250.38,121.59,252.34,121.44,252.29Z"/><path class="cls-6" d="M230.94,253c.41-2.74.19-5.8,2.39-7.93,2.77-2.68,6.23-1.62,9.15,0,3.46,1.91,6.9,2.85,10.74,1.38,6.51-2.51,9.5-12.06,3.56-16.63-1.9-1.45-3.85.94-3.56,2.74.48,3.11,1.65,6.23-1.7,8.13-2.73,1.55-4.92.05-7.39-1.17a12.31,12.31,0,0,0-10-.86c-5.72,2.08-10,9.78-5.48,14.94a1.35,1.35,0,0,0,2.25-.59Z"/><path class="cls-6" d="M245.61,145.16c.59,3.81,4.54,11.84,8.7,12.94,2.21.59,3.85-.86,5.57-2,3.12-2.16,6.21-4.36,9.3-6.56a2.69,2.69,0,0,0,.94-3.61l-8.2-12.62a2.67,2.67,0,0,0-3.61-1c-3.41,2.42-7.07,4.66-10.19,7.46-2.13,1.91.59,5.17,3,3.86,3.47-1.89,6.63-4.48,9.86-6.77l-3.6-.94,8.2,12.62.95-3.6c-1.86,1.32-3.72,2.63-5.57,4-.92.66-4.72,4.13-5.73,3.9-1.19-.27-3.12-3.71-3.87-4.61a21.57,21.57,0,0,0-4.24-4.19c-.82-.56-1.62.36-1.5,1.15Z"/><path class="cls-6" d="M206.88,184.41c-4.3,4.13-5.94,10.55-1.84,15.51a12,12,0,0,0,16.15,1.94c11.64-9-.49-25.56-13.05-22.13-2.33.64-1.74,4,.55,4.08,3.68.21,7.61.35,10.54,2.92a7.64,7.64,0,0,1,.63,10.62c-6.84,8.42-18.73-4-11.54-11.5a1,1,0,0,0-1.44-1.44Z"/><path class="cls-6" d="M305.8,222.6c-1.48,7.7-2.74,15.41-3.92,23.16a2.36,2.36,0,0,0,2.85,2.85c7.28-1.06,14.54-2,21.72-3.62a2.19,2.19,0,0,0,1.29-3.17c-4.08-7.16-9.26-17.14-16.92-21-1.94-1-4.69,1.15-3.24,3.23,2.28,3.28,5.66,5.74,8.31,8.75A61.58,61.58,0,0,1,324,244l1.86-3.24c-7.53.74-14.93,2.09-22.38,3.38l2.93,2.24c.9-7.79,1.7-15.57,2.28-23.39.13-1.65-2.59-2-2.91-.39Z"/><path class="cls-6" d="M272.32,208.31a137.86,137.86,0,0,0,3.39-23.38c.1-2.41-3.82-3-4.27-.58a135.79,135.79,0,0,0-2,23.57,1.47,1.47,0,0,0,2.87.39Z"/><path class="cls-6" d="M355.21,207.14a136.26,136.26,0,0,0,23.52,1.55c2.85-.1,2.74-4.06,0-4.35a134.33,134.33,0,0,0-23.13-.07c-1.52.11-2.13,2.63-.39,2.87Z"/><path class="cls-6" d="M292.67,109.36a132,132,0,0,0,21.57,9.6c2.32.74,3.9-2.86,1.68-4a133,133,0,0,0-22.13-8.29,1.47,1.47,0,0,0-1.12,2.67Z"/><path class="cls-6" d="M315.72,173.91a4.4,4.4,0,0,0-2.42-3l-1.05-.44a3.26,3.26,0,0,0-1.75-.08,4.14,4.14,0,0,0-2.52,1.21,5.37,5.37,0,0,0-1.13,1.93,3.4,3.4,0,0,0-.08,1.76,3.3,3.3,0,0,0,.52,1.63,4.49,4.49,0,0,0,8.43-3Z"/></g><path class="cls-8" d="M342.88,149.05c-4.3,4.13-5.94,10.55-1.84,15.51a12,12,0,0,0,16.15,1.94c11.64-9-.49-25.56-13.05-22.13-2.33.64-1.75,3.95.55,4.08,3.67.21,7.6.35,10.54,2.93a7.62,7.62,0,0,1,.63,10.61c-6.84,8.42-18.73-4-11.54-11.5a1,1,0,0,0-1.44-1.44Z"/><path class="cls-9" d="M62.79,108.21a14,14,0,0,0-19.72,13.31c.15,3.7,1.62,7.92-.73,10.78-1.82,2.21-5.07,2.42-7.69,3.6a10.8,10.8,0,0,0-5.17,13.77c1.22,2.68,3.64,5.15,3.18,8.06a6.53,6.53,0,0,1-3.45,4.33c-1.66.95-3.51,1.48-5.23,2.32-6.25,3.06-10,10.17-9.86,17.12s4,13.56,9.49,17.83a33.67,33.67,0,0,0,19.44,6.61c7,.26,14.26-1.37,19.58-5.88,4-3.38,6.59-8.13,8.51-13a64.83,64.83,0,0,0,4.29-29.27c-.87-10.28-4.2-20.25-4.93-30.55-.24-3.45-.19-6.95-1-10.32s-2.5-6.71-5.45-8.5"/><path class="cls-9" d="M61.2,109.55A30.79,30.79,0,0,1,82,93.1c5.48-1.21,11.49-.81,16.3,2.08s8.14,8.51,7.41,14.07c-.45,3.44-2.32,6.51-3.5,9.77s-1.58,7.24.62,9.92c2,2.41,5.37,3,8.07,4.56a12.09,12.09,0,0,1-1.24,21.56,14.53,14.53,0,0,1,12.47,17.75c-1.34,5.69-6,10.05-11,13.13a48.17,48.17,0,0,1-23.06,7.12c-8.62.39-18.18-2.16-22.86-9.41-3.08-4.76-3.55-10.69-3.9-16.35-1-17.08-1.76-34.17-2.47-51.27a29.37,29.37,0,0,1,.42-8.22"/><path class="cls-10" d="M90.22,186.7l77.31,29-7.38-31.22,20.1-5.11s21.63,61,6.61,62.67c-26.29,2.86-66.08-7.55-66.08-7.55Z"/><path class="cls-11" d="M83.46,319.91S176.86,218,239.91,240.23s89.67,126.09,89.67,126.09l-50.22-.82s-39.66-78.42-59-75.38-79.13,77.68-79.13,77.68Z"/><path class="cls-12" d="M113,258l3.87,59.82c-20.13,24.75-90.22-7.25-90.22-7.25l-.82-25L24.22,226c1.61-23.72,23.64-35.37,23.64-35.37,9.11-4.53,23-7.11,35.51-6.49,13.07.64,16.29,6.9,21.68,18.82C109.39,212.61,121.19,228.3,113,258Z"/><path class="cls-13" d="M39.76,321.86s-10.72,43.63,22,50.5,152.84-9.21,184.13-6.46,120.31,8,120.31,8L372.66,322s-138.5-6.65-154.16-2.75S39.76,321.86,39.76,321.86Z"/><path class="cls-10" d="M55.43,245.58s-9.8,57.73,4,56.31c45.45-4.67,72.51-5.31,72.51-5.31l7.53,15.64c.17,2.67-86.06,27.35-99.92,19.19-9.78-5.76-25.37-21.28-18.29-67.67l1.67-15.55Z"/><polygon class="cls-14" points="96.43 328.46 96.34 324.59 153.38 316.54 168.52 263.59 231.7 262.06 214.65 319.36 96.43 328.46"/><path class="cls-15" d="M199,288.69a4.68,4.68,0,1,1-4.79-4.57A4.69,4.69,0,0,1,199,288.69Z"/><path class="cls-16" d="M200.83,288.64a6.55,6.55,0,1,1-6.71-6.39A6.55,6.55,0,0,1,200.83,288.64Z"/><path class="cls-12" d="M30.43,207.28s-10.6,10.18-13,48.7l41-4.54S65.32,185.84,30.43,207.28Z"/><path class="cls-17" d="M331.59,91.47s14.54,32.66,18.59,30.94,41.62-25,41.62-25-15.39-29.24-18.6-30.95S331.59,91.47,331.59,91.47Z"/><path class="cls-18" d="M373.2,66.45c.19.07-.88,3.42-2.76,8.78S365.87,88,362.82,96.06l-.22.59-.2.55-.58-.1c-8.41-1.37-16-2.68-21.45-3.7s-8.82-1.74-8.78-1.93,3.43.18,8.94,1,13.1,1.91,21.52,3.28l-.78.45.22-.59c3.05-8.1,5.89-15.42,8-20.68S373,66.39,373.2,66.45Z"/><path class="cls-18" d="M345.41,118.58c-.38-.08.5-5.51,2.29-12s3.76-11.66,4.13-11.54-1,5.41-2.76,11.91S345.79,118.67,345.41,118.58Z"/><path class="cls-18" d="M389.32,90.9c-.06.39-5.3-.11-11.7-1.13s-11.55-2.15-11.49-2.54,5.3.12,11.71,1.13S389.38,90.52,389.32,90.9Z"/><path class="cls-10" d="M51,126.55l.92,12.23s-10.39,1.4-7.43,10.89S54.55,155,54.55,155s1.77,24.3,26.67,16.59c19.81-6.13,18.6-31.78,16.08-53.65a14.64,14.64,0,0,0-17.36-12.67l-15,2.92A17.36,17.36,0,0,0,51,126.55Z"/><path class="cls-10" d="M51.9,148.93l6.71,35.77A14.35,14.35,0,0,0,76,196h0a14.37,14.37,0,0,0,10.8-16.47L83.2,159Z"/><path class="cls-9" d="M79.44,149.33c.09-.07.29.32.75.37s1.12-.41,1.28-1.38a12.76,12.76,0,0,0,0-3.7c-.13-1.46-.25-3.07-.36-4.76-.42-6.77-.45-12.28,0-12.3s1,5.44,1.48,12.21c.1,1.69.18,3.3.24,4.77a11.15,11.15,0,0,1-.31,4.06,2.63,2.63,0,0,1-1,1.43,1.57,1.57,0,0,1-1.38.21,1,1,0,0,1-.6-.61C79.38,149.45,79.39,149.35,79.44,149.33Z"/><path class="cls-9" d="M87.51,169.1c.11.13-.88,1.22-2.92,2.4a18.89,18.89,0,0,1-17.75.37c-2.1-1.09-3.13-2.13-3-2.27s1.35.55,3.44,1.35a21.77,21.77,0,0,0,16.89-.35C86.19,169.71,87.38,168.92,87.51,169.1Z"/><path class="cls-9" d="M82.65,154.35c.14.1-.18.9-1.28,1.68a5.84,5.84,0,0,1-8.78-2.82c-.44-1.28-.24-2.11-.06-2.11s.38.72,1,1.68a5.7,5.7,0,0,0,7.38,2.37C81.92,154.71,82.49,154.21,82.65,154.35Z"/><path class="cls-9" d="M51.12,150.85c0,.17-.61.46-1.69.14a2.39,2.39,0,0,1-1.49-1.42,2.17,2.17,0,0,1-.07-1.37A1.82,1.82,0,0,1,49,147a1.91,1.91,0,0,1,1.16-.07,1.62,1.62,0,0,1,1,.73l-1.21.63c-.79-2-1.18-3.54-.88-3.67s1.17,1.19,2.13,3.12l-1.21.63a.47.47,0,0,0-.48,0,.46.46,0,0,0-.28.28,1,1,0,0,0,0,.54,1.5,1.5,0,0,0,.67.92C50.52,150.52,51.14,150.64,51.12,150.85Z"/><path class="cls-9" d="M89.41,133.7c-.39.08-.9-.72-1.14-1.8s-.13-2,.25-2.12.89.72,1.14,1.8S89.79,133.61,89.41,133.7Z"/><path class="cls-9" d="M68.33,135.66c-.38.1-.93-.69-1.23-1.77s-.24-2,.14-2.15.93.69,1.23,1.77S68.71,135.55,68.33,135.66Z"/><path class="cls-9" d="M70.29,126.75c-.12.39-1.24.38-2.49.72s-2.22.87-2.51.6,0-.5.32-.91a3.91,3.91,0,0,1,1.83-1.07,3.84,3.84,0,0,1,2.12,0C70.08,126.3,70.34,126.57,70.29,126.75Z"/><path class="cls-9" d="M91.81,123.34c-.16.37-1.39.19-2.84.33s-2.63.51-2.85.17c-.1-.16.1-.5.58-.85a4.67,4.67,0,0,1,4.39-.38C91.62,122.86,91.88,123.16,91.81,123.34Z"/><path class="cls-9" d="M51.9,138.78c7-6.77,9-18.06,10.88-27.58a24.31,24.31,0,0,0,22.7,3,36.62,36.62,0,0,0,8.09,7.07,3.64,3.64,0,0,0,2.86.79c1.16-.35,1.68-1.69,2-2.87a20.46,20.46,0,0,0-.4-11.53,13.85,13.85,0,0,0-7.74-8.29c-3.88-1.51-8.26-.86-12.29.19a68.41,68.41,0,0,0-17.35,7.17c-5.32,3.11-10.43,7.24-12.68,13s-2.25,16.88,3.19,19.78"/><g class="cls-19"><path class="cls-9" d="M80.26,155.68A2.9,2.9,0,0,1,76.7,159a3,3,0,0,1-2.21-1.82,3.07,3.07,0,0,1,.32-2.67,6.5,6.5,0,0,1,1.79-1.91,2.09,2.09,0,0,1,1.58-.56c.47.09.84.52,1.22,1.16A6.42,6.42,0,0,1,80.26,155.68Z"/></g><g class="cls-20"><path class="cls-9" d="M71.6,144.33c.35,1.92-2,4-5.36,4.11s-5.88-1.66-5.71-3.61,2.58-3.37,5.39-3.5S71.26,142.38,71.6,144.33Z"/></g><g class="cls-20"><path class="cls-9" d="M97.93,142.18a3,3,0,0,1-1.08,2.72,6.3,6.3,0,0,1-7.39.38,2.94,2.94,0,0,1-1.34-2.6c.18-2,2.31-3.37,4.73-3.5S97.54,140.24,97.93,142.18Z"/></g><path class="cls-21" d="M51.62,171.15c-.4,0-.62-3.93-.87-8.75s-.43-8.75,0-8.8,1.2,3.84,1.45,8.72S52,171.16,51.62,171.15Z"/><path class="cls-12" d="M92.92,186.44c-6.73-2.67,45,16.54,45,16.54l-5.25,35.39L113,231.92Z"/><path class="cls-9" d="M62.13,106.37a10.77,10.77,0,0,0,1.44-8.47c-.6-2.35-2.37-4.68-4.8-4.8a5.28,5.28,0,0,0-3.72,1.53,7.66,7.66,0,0,0,7.28,13"/><path class="cls-9" d="M371.28,333.06s16.83-24.13,14.78-15-19.15,49.74-19.15,49.74Z"/><path class="cls-10" d="M127.17,296.59s22.24-7,21.47-4.68-4.54,2.38-8.33,6.08c0,0,24.86.27,23.67,2.32s-17.38,2.56-17.48,2.91,17.7.78,17.3,2.68-16.94,1.43-16.94,1.43,15.33,1.63,15,3.67-14.45.57-14.45.57,11.83,1.35,11.52,3.2c-.18,1.13-34.63,1.39-34.7,2.21,0,.44,2.92-20.39,2.92-20.39"/><path class="cls-10" d="M161.6,186.44s-13.51-18.88-11.1-18.87,3.66,3.57,8.34,6c0,0-7.46-23.61-5.15-23.11s7.82,15.64,8.18,15.63-4.76-17-2.84-17.2,6.61,15.58,6.61,15.58-3.21-15-1.18-15.35,5,13.5,5,13.5-2.39-11.62-.55-11.9c1.13-.17,11.32,28.63,11.32,28.63-.27,0-18.65,7.09-18.65,7.09"/><path class="cls-22" d="M37.06,238.37c.09,0,.23.22.37.66a6,6,0,0,1,.3,2,3.6,3.6,0,0,1-1.45,2.9,2.66,2.66,0,0,1-2.12.49,3.54,3.54,0,0,1-1.84-1.18A11.73,11.73,0,0,0,31.15,242a2.36,2.36,0,0,0-1.19-.52,2.56,2.56,0,0,0-2.14.61c-1.05,1-1,2.06-1.23,2s-.24-.24-.25-.74a3.12,3.12,0,0,1,.74-2,3.51,3.51,0,0,1,3-1.23,3.66,3.66,0,0,1,1.89.72,11.62,11.62,0,0,1,1.36,1.36c.78.89,1.45,1,2.18.58a2.78,2.78,0,0,0,1.19-1.93,12.56,12.56,0,0,0,.15-1.82C36.91,238.65,37,238.39,37.06,238.37Z"/><path class="cls-22" d="M49.2,227.89c-.06-.08.07-.31.37-.67a6,6,0,0,1,1.56-1.3,3.64,3.64,0,0,1,3.23-.26,2.66,2.66,0,0,1,1.53,1.55,3.6,3.6,0,0,1-.06,2.19,13.68,13.68,0,0,0-.44,1.63,2.63,2.63,0,0,0,1.82,2.8c1.36.4,2.29-.21,2.39,0s-.08.33-.51.6a3.14,3.14,0,0,1-2.09.41,3.49,3.49,0,0,1-2.62-1.95,3.56,3.56,0,0,1-.37-2,10.79,10.79,0,0,1,.45-1.86c.36-1.13.13-1.78-.64-2.17a2.78,2.78,0,0,0-2.26,0,13,13,0,0,0-1.64.82C49.52,227.87,49.27,228,49.2,227.89Z"/><path class="cls-22" d="M48.38,201.77c-.06-.08.07-.31.37-.67a6,6,0,0,1,1.56-1.3,3.64,3.64,0,0,1,3.23-.26,2.63,2.63,0,0,1,1.53,1.55,3.6,3.6,0,0,1-.06,2.19,13.19,13.19,0,0,0-.44,1.63,2.63,2.63,0,0,0,1.82,2.8c1.36.4,2.29-.21,2.39,0s-.08.33-.51.6a3.14,3.14,0,0,1-2.09.41,3.49,3.49,0,0,1-2.62-1.95,3.56,3.56,0,0,1-.37-2,11.15,11.15,0,0,1,.45-1.87c.36-1.12.13-1.77-.64-2.16a2.78,2.78,0,0,0-2.26,0,13,13,0,0,0-1.64.82C48.7,201.75,48.45,201.84,48.38,201.77Z"/><path class="cls-22" d="M74.29,235.79c-.07.07-.32,0-.7-.31A6.19,6.19,0,0,1,72.16,234a3.62,3.62,0,0,1-.55-3.2A2.71,2.71,0,0,1,73,229.19a3.62,3.62,0,0,1,2.19-.14,12.09,12.09,0,0,0,1.66.3,2.53,2.53,0,0,0,1.27-.29,2.59,2.59,0,0,0,1.36-1.77c.28-1.39-.41-2.26-.23-2.38s.33.06.64.46a3.17,3.17,0,0,1,.59,2,3.5,3.5,0,0,1-1.71,2.78,3.73,3.73,0,0,1-2,.54,10.26,10.26,0,0,1-1.9-.29c-1.15-.25-1.78,0-2.1.83a2.78,2.78,0,0,0,.18,2.25,13.17,13.17,0,0,0,1,1.56C74.24,235.47,74.36,235.72,74.29,235.79Z"/><path class="cls-22" d="M92,263.11c.06.08-.09.3-.42.63a5.77,5.77,0,0,1-1.64,1.18,3.63,3.63,0,0,1-3.25,0,2.69,2.69,0,0,1-1.41-1.66,3.66,3.66,0,0,1,.22-2.18,12,12,0,0,0,.56-1.6,2.56,2.56,0,0,0-.08-1.29,2.62,2.62,0,0,0-1.53-1.63c-1.33-.5-2.3,0-2.38-.16s.1-.32.55-.56a3.2,3.2,0,0,1,2.12-.25,3.52,3.52,0,0,1,2.47,2.14,3.65,3.65,0,0,1,.22,2,11.24,11.24,0,0,1-.59,1.83c-.44,1.09-.26,1.76.48,2.2a2.71,2.71,0,0,0,2.25.18,12.25,12.25,0,0,0,1.7-.69C91.63,263.1,91.89,263,92,263.11Z"/><path class="cls-22" d="M112.74,220c.06.08-.08.3-.41.64a6.06,6.06,0,0,1-1.65,1.18,3.63,3.63,0,0,1-3.25,0,2.67,2.67,0,0,1-1.4-1.67,3.59,3.59,0,0,1,.21-2.18,11.93,11.93,0,0,0,.56-1.59,2.49,2.49,0,0,0-.08-1.3,2.58,2.58,0,0,0-1.52-1.63c-1.33-.49-2.3,0-2.39-.15s.11-.32.55-.56a3.1,3.1,0,0,1,2.12-.25,3.5,3.5,0,0,1,2.47,2.13,3.65,3.65,0,0,1,.22,2,9.84,9.84,0,0,1-.59,1.83c-.43,1.1-.25,1.76.48,2.2a2.78,2.78,0,0,0,2.26.19,13.24,13.24,0,0,0,1.69-.7C112.43,220,112.69,219.94,112.74,220Z"/><path class="cls-22" d="M126.93,213.46c.06-.08.32,0,.74.18a5.87,5.87,0,0,1,1.67,1.15,3.62,3.62,0,0,1,1.12,3.05,2.62,2.62,0,0,1-1.09,1.88,3.64,3.64,0,0,1-2.12.54,11.65,11.65,0,0,0-1.69,0,2.5,2.5,0,0,0-1.19.51,2.61,2.61,0,0,0-1,2c0,1.42.81,2.15.66,2.3s-.34,0-.71-.33a3.14,3.14,0,0,1-1-1.91,3.49,3.49,0,0,1,1.18-3.05,3.67,3.67,0,0,1,1.82-.89,10.47,10.47,0,0,1,1.91-.06c1.18,0,1.75-.35,1.92-1.19a2.79,2.79,0,0,0-.59-2.19,14.2,14.2,0,0,0-1.23-1.36C127,213.76,126.87,213.55,126.93,213.46Z"/><path class="cls-22" d="M69.54,285.39c0,.07-.09.3-.42.63a5.93,5.93,0,0,1-1.64,1.18,3.64,3.64,0,0,1-3.25,0,2.66,2.66,0,0,1-1.41-1.66,3.51,3.51,0,0,1,.22-2.18,11.8,11.8,0,0,0,.55-1.6,2.36,2.36,0,0,0-.08-1.29A2.58,2.58,0,0,0,62,278.87c-1.33-.5-2.3,0-2.39-.16s.11-.32.55-.56a3.22,3.22,0,0,1,2.12-.25A3.46,3.46,0,0,1,64.74,280a3.65,3.65,0,0,1,.23,2,11.8,11.8,0,0,1-.59,1.82c-.44,1.1-.26,1.77.47,2.21a2.77,2.77,0,0,0,2.26.18,12.25,12.25,0,0,0,1.7-.69C69.22,285.38,69.48,285.31,69.54,285.39Z"/><path class="cls-22" d="M100.31,243.92c-.07.06-.3-.07-.65-.38a6,6,0,0,1-1.25-1.6,3.66,3.66,0,0,1-.17-3.24,2.7,2.7,0,0,1,1.6-1.48,3.65,3.65,0,0,1,2.19.12,11.19,11.19,0,0,0,1.62.49,2.45,2.45,0,0,0,1.29-.13,2.6,2.6,0,0,0,1.56-1.59c.44-1.35-.13-2.3.06-2.4s.32.1.58.53a3.15,3.15,0,0,1,.34,2.11,3.48,3.48,0,0,1-2,2.56,3.78,3.78,0,0,1-2,.31,11.39,11.39,0,0,1-1.85-.52c-1.11-.39-1.77-.18-2.18.57a2.82,2.82,0,0,0-.09,2.27,13.54,13.54,0,0,0,.77,1.66C100.3,243.61,100.39,243.86,100.31,243.92Z"/><path class="cls-22" d="M105.84,266.2c-.08.06-.31-.07-.66-.39a6.09,6.09,0,0,1-1.25-1.59,3.65,3.65,0,0,1-.16-3.25,2.61,2.61,0,0,1,1.6-1.47,3.58,3.58,0,0,1,2.19.12,12.06,12.06,0,0,0,1.61.49,2.44,2.44,0,0,0,1.29-.13,2.6,2.6,0,0,0,1.57-1.6c.44-1.35-.14-2.29,0-2.39s.33.09.59.53a3.18,3.18,0,0,1,.34,2.1,3.49,3.49,0,0,1-2,2.56,3.61,3.61,0,0,1-2,.31,10.49,10.49,0,0,1-1.85-.51c-1.12-.39-1.77-.18-2.18.57a2.72,2.72,0,0,0-.09,2.26,13.24,13.24,0,0,0,.76,1.67C105.83,265.88,105.92,266.14,105.84,266.2Z"/><path class="cls-22" d="M61.29,256.7c-.09,0-.17-.26-.22-.73a5.87,5.87,0,0,1,.15-2,3.61,3.61,0,0,1,2.05-2.51,2.66,2.66,0,0,1,2.18,0A3.61,3.61,0,0,1,67,253a11.51,11.51,0,0,0,.87,1.45,2.47,2.47,0,0,0,1,.77,2.59,2.59,0,0,0,2.23-.13c1.23-.7,1.44-1.79,1.65-1.73s.18.28.08.78a3.17,3.17,0,0,1-1.17,1.79,3.5,3.5,0,0,1-3.22.53,3.78,3.78,0,0,1-1.69-1.12,10.71,10.71,0,0,1-1-1.62c-.57-1-1.19-1.33-2-1a2.74,2.74,0,0,0-1.59,1.61,14.26,14.26,0,0,0-.55,1.75C61.5,256.46,61.39,256.7,61.29,256.7Z"/><path class="cls-22" d="M101.52,284.2c-.1,0-.18-.26-.22-.73a6.07,6.07,0,0,1,.14-2,3.65,3.65,0,0,1,2.06-2.51,2.66,2.66,0,0,1,2.18,0,3.64,3.64,0,0,1,1.53,1.56,12.84,12.84,0,0,0,.87,1.45,2.48,2.48,0,0,0,1,.77,2.59,2.59,0,0,0,2.23-.13c1.23-.7,1.44-1.79,1.65-1.73s.17.28.07.78a3.14,3.14,0,0,1-1.16,1.79,3.47,3.47,0,0,1-3.22.53,3.65,3.65,0,0,1-1.69-1.12,10.33,10.33,0,0,1-1-1.62c-.56-1-1.19-1.32-2-1a2.78,2.78,0,0,0-1.58,1.61,14.26,14.26,0,0,0-.55,1.75C101.73,284,101.62,284.21,101.52,284.2Z"/><path class="cls-22" d="M100.35,200.88c-.09,0-.17-.26-.22-.72a5.92,5.92,0,0,1,.15-2,3.61,3.61,0,0,1,2-2.51,2.66,2.66,0,0,1,2.18,0,3.58,3.58,0,0,1,1.54,1.57,11.31,11.31,0,0,0,.87,1.44,2.39,2.39,0,0,0,1,.77,2.59,2.59,0,0,0,2.23-.13c1.23-.7,1.44-1.79,1.65-1.73s.18.29.08.78a3.14,3.14,0,0,1-1.17,1.79,3.47,3.47,0,0,1-3.22.53,3.62,3.62,0,0,1-1.69-1.12,10.23,10.23,0,0,1-1-1.62c-.57-1-1.19-1.32-2-1a2.76,2.76,0,0,0-1.59,1.62,13.67,13.67,0,0,0-.55,1.74C100.56,200.64,100.45,200.89,100.35,200.88Z"/><path class="cls-22" d="M87.21,295.26c0,.08-.31.06-.75-.08a5.89,5.89,0,0,1-1.8-.94,3.62,3.62,0,0,1-1.5-2.88,2.68,2.68,0,0,1,.84-2,3.67,3.67,0,0,1,2-.8,12.26,12.26,0,0,0,1.67-.23,2.48,2.48,0,0,0,1.12-.65,2.58,2.58,0,0,0,.76-2.1c-.16-1.41-1.08-2-.94-2.2s.33-.05.75.24a3.16,3.16,0,0,1,1.18,1.77,3.47,3.47,0,0,1-.78,3.17,3.63,3.63,0,0,1-1.69,1.11,10.18,10.18,0,0,1-1.9.3c-1.18.11-1.69.57-1.75,1.43a2.74,2.74,0,0,0,.86,2.09,12.18,12.18,0,0,0,1.39,1.2C87.07,295,87.26,295.17,87.21,295.26Z"/><path class="cls-22" d="M39.5,213.46c.08-.05.3.11.61.45a5.93,5.93,0,0,1,1.09,1.71,3.65,3.65,0,0,1-.15,3.25,2.66,2.66,0,0,1-1.74,1.31,3.56,3.56,0,0,1-2.16-.34,13.68,13.68,0,0,0-1.56-.64,2.49,2.49,0,0,0-1.3,0,2.56,2.56,0,0,0-1.71,1.43c-.57,1.3-.09,2.3-.29,2.37s-.31-.12-.53-.58a3.13,3.13,0,0,1-.13-2.13A3.48,3.48,0,0,1,33.89,218a3.84,3.84,0,0,1,2-.11,11.16,11.16,0,0,1,1.79.69c1.07.5,1.74.36,2.22-.35a2.74,2.74,0,0,0,.31-2.25,13.43,13.43,0,0,0-.6-1.73C39.48,213.78,39.42,213.52,39.5,213.46Z"/><path class="cls-22" d="M85.55,205.22c.09-.05.3.11.62.45a6,6,0,0,1,1.08,1.71,3.62,3.62,0,0,1-.15,3.25,2.66,2.66,0,0,1-1.73,1.31,3.59,3.59,0,0,1-2.17-.34,11.51,11.51,0,0,0-1.56-.64,2.49,2.49,0,0,0-1.3,0,2.61,2.61,0,0,0-1.71,1.43c-.57,1.31-.09,2.31-.29,2.38s-.31-.12-.53-.58a3.13,3.13,0,0,1-.13-2.13A3.5,3.5,0,0,1,80,209.71a3.61,3.61,0,0,1,2-.11,10.8,10.8,0,0,1,1.79.69c1.07.5,1.75.35,2.23-.36a2.8,2.8,0,0,0,.31-2.24,13.26,13.26,0,0,0-.61-1.73C85.53,205.54,85.47,205.27,85.55,205.22Z"/><path class="cls-9" d="M57.16,253.68a11.28,11.28,0,0,1,0-2.81c.12-1.81.32-4.42.61-7.63.57-6.43,1.47-15.32,2.53-25.1a28.81,28.81,0,0,0,0-7,12.18,12.18,0,0,0-2.42-5.8,14.81,14.81,0,0,0-4.36-3.79,17.66,17.66,0,0,0-4.74-1.88,27.47,27.47,0,0,0-7.48-.65,15.35,15.35,0,0,1-2.8.06,8.42,8.42,0,0,1,2.76-.62,24.08,24.08,0,0,1,7.74.22A16.87,16.87,0,0,1,59,204.53a13.43,13.43,0,0,1,2.75,6.39,28.77,28.77,0,0,1,0,7.36c-1.06,9.81-2.12,18.66-3,25.07-.41,3.2-.77,5.79-1.06,7.58A10.43,10.43,0,0,1,57.16,253.68Z"/><path class="cls-9" d="M59,251.45c0,.39-9.31,1.7-20.88,2.92s-21,1.91-21,1.51S26.38,254.18,38,253,59,251.06,59,251.45Z"/><path class="cls-9" d="M116,246.82c-.23-.06.2-2.08.4-5.38,0-.82.1-1.72.07-2.69s-.06-2-.11-3.09A41.33,41.33,0,0,0,112.86,222c-.46-1-.88-1.93-1.36-2.77s-.92-1.63-1.35-2.33c-1.75-2.8-3.09-4.38-2.92-4.54s1.74,1.24,3.76,4a26,26,0,0,1,1.53,2.32,30.34,30.34,0,0,1,1.53,2.8,38.08,38.08,0,0,1,2.51,6.87,39.22,39.22,0,0,1,1.08,7.23c0,1.13.06,2.19,0,3.19a24.88,24.88,0,0,1-.24,2.77C116.91,244.9,116.12,246.87,116,246.82Z"/><path class="cls-23" d="M225.47,247.49c.41-2.74.19-5.81,2.39-7.93,2.77-2.68,6.23-1.62,9.15,0,3.46,1.91,6.9,2.85,10.73,1.37,6.52-2.5,9.51-12,3.56-16.62-1.89-1.45-3.84.94-3.56,2.74.49,3.11,1.65,6.22-1.69,8.12-2.73,1.56-4.92.06-7.4-1.16a12.3,12.3,0,0,0-10-.86c-5.71,2.08-9.95,9.78-5.47,14.94a1.35,1.35,0,0,0,2.25-.59Z"/><path class="cls-12" d="M240.14,139.69c.59,3.81,4.53,11.83,8.7,12.94,2.21.59,3.85-.86,5.56-2,3.13-2.15,6.22-4.35,9.31-6.55a2.7,2.7,0,0,0,.94-3.61l-8.2-12.62a2.66,2.66,0,0,0-3.61-1c-3.41,2.42-7.07,4.66-10.19,7.45-2.13,1.92.59,5.18,3,3.87a104.35,104.35,0,0,0,9.86-6.77l-3.6-.94,8.2,12.62.95-3.6c-1.86,1.32-3.72,2.63-5.57,4-.93.66-4.72,4.13-5.73,3.9-1.19-.27-3.12-3.71-3.88-4.61a21.25,21.25,0,0,0-4.23-4.19c-.82-.56-1.62.36-1.5,1.15Z"/><path class="cls-8" d="M201.4,178.94c-4.29,4.13-5.93,10.55-1.83,15.51a12,12,0,0,0,16.15,1.94c11.64-9-.49-25.56-13.05-22.13-2.33.63-1.75,4,.55,4.08,3.67.21,7.6.35,10.54,2.92a7.64,7.64,0,0,1,.63,10.62c-6.84,8.42-18.73-4-11.54-11.5a1,1,0,0,0-1.45-1.44Z"/><path class="cls-24" d="M300.33,217.12c-1.48,7.7-2.75,15.42-3.92,23.17a2.36,2.36,0,0,0,2.85,2.85c7.27-1.06,14.53-2,21.72-3.62a2.18,2.18,0,0,0,1.28-3.17c-4.07-7.16-9.25-17.15-16.91-21.06-1.94-1-4.69,1.16-3.24,3.24,2.28,3.28,5.66,5.74,8.31,8.74a62.48,62.48,0,0,1,8.13,11.26l1.86-3.24c-7.53.74-14.94,2.09-22.38,3.38l2.93,2.24c.89-7.8,1.69-15.57,2.28-23.39.12-1.65-2.59-2-2.91-.4Z"/><path class="cls-25" d="M266.85,202.83a136.7,136.7,0,0,0,3.38-23.38c.11-2.4-3.81-3-4.27-.57a136.77,136.77,0,0,0-2,23.57,1.47,1.47,0,0,0,2.87.38Z"/><path class="cls-12" d="M349.74,201.67a136.26,136.26,0,0,0,23.52,1.55c2.84-.11,2.74-4.06,0-4.35a133.33,133.33,0,0,0-23.13-.07c-1.52.11-2.13,2.63-.39,2.87Z"/><path class="cls-24" d="M287.19,103.89a132.5,132.5,0,0,0,21.58,9.6c2.32.74,3.9-2.87,1.68-4a132.15,132.15,0,0,0-22.13-8.29,1.47,1.47,0,0,0-1.13,2.67Z"/><path class="cls-9" d="M310.25,168.44a4.43,4.43,0,0,0-2.42-3l-1.05-.44a3.26,3.26,0,0,0-1.75-.08,4.14,4.14,0,0,0-2.52,1.21,5.1,5.1,0,0,0-1.13,1.93,4.95,4.95,0,0,0,.44,3.39,4.49,4.49,0,0,0,8.43-3Z"/><path class="cls-3" d="M140.65,27.32a28,28,0,0,0-17.29,16.76,28.87,28.87,0,0,0,2.16,24c8,13.83,28.65,18.29,41.68,9s15.54-30.22,5.08-42.33-31.54-12.66-42.62-1.12"/></g></g></svg>