<svg id="Layer_1" data-name="Layer 1" xmlns="http://www.w3.org/2000/svg" viewBox="0 0 425.2 425.2"><defs><style>.cls-1{fill:#7caaff;}.cls-2{fill:#ff7180;}.cls-3{fill:#fac480;}.cls-4{fill:#ff947e;}.cls-5{fill:#241352;}.cls-6{fill:#ffaea6;}.cls-7{fill:#002c68;}.cls-8{fill:#6f35a4;}.cls-14,.cls-9{fill:#fff;}.cls-9{opacity:0.41;}.cls-10{fill:#e1d2f4;}.cls-11{fill:#ffbb7a;}.cls-12{fill:#7e2e83;}.cls-13{fill:#efe6f5;}</style></defs><title>signup</title><path class="cls-1" d="M172.74,189.17c-4.5,4.32-6.22,11.05-1.92,16.24a12.6,12.6,0,0,0,16.91,2c12.18-9.41-.52-26.76-13.67-23.17-2.43.67-1.83,4.14.58,4.27,3.84.22,8,.37,11,3.06a8,8,0,0,1,.66,11.12c-7.16,8.81-19.61-4.16-12.08-12a1.07,1.07,0,0,0-1.51-1.51Z"/><path class="cls-2" d="M298.24,204.05c1.65,6.13,3.47,12.19,5.36,18.25a1.91,1.91,0,0,0,3.08,1.06c4.93-3.34,9.85-6.63,14.52-10.34a1.75,1.75,0,0,0-.19-2.75c-5.46-3.75-12.84-9.29-19.77-9.33-1.76,0-3,2.48-1.21,3.51,2.8,1.61,6.15,2.18,9.14,3.43a49.65,49.65,0,0,1,9.91,5.29c.06-1,.13-2,.2-3-5.21,3.21-10.12,6.81-15.08,10.39l2.93.59c-2.12-6-4.29-11.92-6.63-17.82a1.21,1.21,0,0,0-2.26.74Z"/><path class="cls-3" d="M332.81,236.51a143.56,143.56,0,0,0,21.41-12.27c2.42-1.74,0-5.13-2.52-3.79a139.47,139.47,0,0,0-20.21,13.33c-1.26,1-.33,3.52,1.32,2.73Z"/><path class="cls-4" d="M63.15,258.88a142.7,142.7,0,0,0-6.42-23.82c-1.07-2.79-4.95-1.35-4.31,1.47a140,140,0,0,0,7.76,22.93c.62,1.47,3.32,1.22,3-.58Z"/><path class="cls-5" d="M86.19,188.33l-.41-.37C84,186.36,81,186,79.23,188a4.74,4.74,0,0,0,0,6.55l.37.41a4.68,4.68,0,0,0,6.59,0c1.63-1.76,2-4.87,0-6.59Z"/><path class="cls-2" d="M281.31,393.73s-76.94,17.9-107.85-13l11.06-73.83c3.36-21.21,1.36-62,17.61-76.52a27.92,27.92,0,0,1,6.17-4.2c11.4-5.51,31.68-8.48,51.15-8.56,23.66-.09,48,17.8,54.21,40.62l-25.6,59.89Z"/><path class="cls-6" d="M273.7,267.44s34.47,66.39,17.35,69.92c-56.29,11.63-89,21.17-89,21.17l-2.87,21.87c.84,3.3,113.9.44,127.29-14.75,9.46-10.72,22-35.51-4.71-89.16l-8.13-18.25Z"/><path class="cls-6" d="M209,233.24l-85.85,33.24-2.68-45-18.38-7.1s-26.65,72.28,6.67,85.74,70.89-11.41,70.89-11.41Z"/><path class="cls-2" d="M219.6,222.21c-30,9.54-47.84,20.73-90,38.32l21.66,48.31,37.34-12Z"/><polyline class="cls-2" points="268.54 258.24 290.31 308.84 339.42 299.87 306.34 242.89 267.17 258.24"/><path class="cls-7" d="M242.84,292.73c10.46-.58,20.79-.12,31.24,0,.92,0,.86-1.28,0-1.38-10.29-1.23-20.93-.74-31.24.15-.77.07-.79,1.27,0,1.22Z"/><path class="cls-7" d="M289.69,234.06c-35.33,3.19-11.17,55.29-2.11,71.06a.79.79,0,0,0,1.36-.79c-9-15.94-33.09-64.42.87-69.41.48-.07.37-.91-.12-.86Z"/><path class="cls-7" d="M191.76,263.84a293.35,293.35,0,0,0-8.35,53.26c0,.74,1.2.93,1.31.18,2.53-17.76,5.07-35.48,7.92-53.19.09-.57-.74-.83-.88-.25Z"/><path class="cls-5" d="M274.46,167.6l1.63-22.38c5.86-1.65,8.91-9.16,6.57-14.78s-9-8.78-15-7.92c3.81-2.59,3.51-8.78.39-12.17s-8-4.48-12.62-4.65-9.26.38-13.79-.46c-4-.75-7.94-2.58-12-2.07s-7.91,5.06-5.73,8.51c-5.84-.86-12.15-1.64-17.34,1.18s-7.79,10.82-3.33,14.69c-2.95,1.5-3.68,5.76-2,8.62s5.05,4.37,8.34,4.6,6.57-.6,9.77-1.42"/><path class="cls-6" d="M273.51,153.09l-1.18,15.51s13.19,1.78,9.43,13.81S269,189.17,269,189.17s-2.25,30.82-33.82,21.05c-25.13-7.78-23.59-40.32-20.4-68.05a18.56,18.56,0,0,1,22-16.07l19,3.7A22,22,0,0,1,273.51,153.09Z"/><path class="cls-6" d="M272.33,181.47l-8.5,45.37a18.19,18.19,0,0,1-22.11,14.34h0A18.19,18.19,0,0,1,228,220.3l4.61-26Z"/><path class="cls-5" d="M237.41,182c.05,0,.05.14,0,.36a1.26,1.26,0,0,1-.75.73,1.89,1.89,0,0,1-1.68-.28,3.27,3.27,0,0,1-1.24-1.76,14.4,14.4,0,0,1-.35-5.12c.08-1.86.18-3.9.32-6,.54-8.58,1.31-15.52,1.72-15.5s.31,7-.23,15.59c-.14,2.15-.29,4.19-.44,6.05a15.85,15.85,0,0,0,0,4.73c.23,1.26,1.15,1.88,1.75,1.78S237.31,181.9,237.41,182Z"/><path class="cls-5" d="M227.17,207.05c.14-.19,1.62.84,4.23,2a27.19,27.19,0,0,0,21.52.46c2.65-1,4.18-2,4.31-1.82s-1.22,1.43-3.88,2.78a24.19,24.19,0,0,1-22.42-.47C228.33,208.54,227.06,207.19,227.17,207.05Z"/><path class="cls-5" d="M233.34,188.35c.17-.15.87.52,2.19,1.11A7.2,7.2,0,0,0,245,186.4c.74-1.25.91-2.2,1.14-2.18s.4,1.05-.18,2.63a7.36,7.36,0,0,1-11,3.53C233.63,189.43,233.19,188.45,233.34,188.35Z"/><path class="cls-5" d="M273.33,183.91c0-.22.76-.34,1.64-.87a2.11,2.11,0,0,0,.95-1.23,1.37,1.37,0,0,0,0-.78.8.8,0,0,0-1.23-.34l-1.27-.66c1.19-2.45,2.25-4.15,2.56-4s-.23,2.06-1.25,4.59l-1.27-.66a1.85,1.85,0,0,1,1.16-.85,2.24,2.24,0,0,1,1.38.09,2.15,2.15,0,0,1,1.31,1.4,2.62,2.62,0,0,1-.07,1.65,3,3,0,0,1-.8,1.16,3.13,3.13,0,0,1-1,.59C274.1,184.41,273.32,184.08,273.33,183.91Z"/><path class="cls-5" d="M249,153.34c-.05-.19.28-.48.94-.68a5.18,5.18,0,0,1,4.92,1.29c.47.49.62.92.48,1.06-.31.29-1.52-.5-3.15-.91S249.14,153.75,249,153.34Z"/><path class="cls-5" d="M221.72,149c-.07-.19.26-.53.94-.82a6.26,6.26,0,0,1,5.5.48c.61.4.88.8.78,1-.23.36-1.73-.22-3.61-.37S221.89,149.41,221.72,149Z"/><path class="cls-5" d="M272.33,168.6c-8.81-8.59-11.4-22.9-13.79-35a30.83,30.83,0,0,1-28.8,3.75,46.42,46.42,0,0,1-10.25,9c-1.09.7-2.39,1.37-3.63,1-1.48-.45-2.14-2.14-2.49-3.65a26,26,0,0,1,.51-14.61,17.58,17.58,0,0,1,9.82-10.52c4.92-1.91,10.47-1.08,15.59.24a86.41,86.41,0,0,1,22,9.1c6.75,3.95,13.23,9.17,16.09,16.45s2.84,21.4-4.05,25.08"/><path class="cls-5" d="M251.4,166c-.41,0-.67-1.12-.58-2.43s.51-2.36.92-2.33.67,1.12.57,2.44S251.81,166,251.4,166Z"/><path class="cls-5" d="M226.05,162.74c-.41,0-.67-1.12-.58-2.44s.51-2.35.92-2.32.67,1.11.57,2.43S226.46,162.77,226.05,162.74Z"/><path class="cls-6" d="M101.13,215.84s3.82-23.42,8.37-23.16,13.67,0,13.67,0,.76-22.27,3.29-18.72,3.33,33.5-6.43,47.88Z"/><path class="cls-6" d="M202.08,358.53S161.23,365.68,162,371a38.45,38.45,0,0,0,3.67,10.65l36.38-.86Z"/><polygon class="cls-8" points="246.41 382.91 246.1 377.26 161.97 372.11 133.75 296.63 41.41 301.71 72.91 383.33 246.41 382.91"/><path class="cls-9" d="M92.32,337.65a6.85,6.85,0,1,0,6.46-7.21A6.84,6.84,0,0,0,92.32,337.65Z"/><path class="cls-9" d="M89.59,337.8a9.58,9.58,0,1,0,9-10.1A9.59,9.59,0,0,0,89.59,337.8Z"/><path class="cls-10" d="M27.7,384.58l361.15-4.51L410,391.18S132.76,467.28,27.7,384.58Z"/><path class="cls-10" d="M310.2,117.43c-1.1,2.13,2.48,56.95,2.48,56.95l27-2.24-3.15,14.48,13.19-14.88,26.42-3.05-1.61-53.15Z"/><path class="cls-11" d="M241.62,32s-18.61.93-19.23,20.78c0,0,.31,10.85,6.2,14.88s5.58,8.38,5.58,8.38h15.51s-.62-5.59,1.86-8.69,8.68-9.61,7.75-19.22S251.23,31.08,241.62,32Z"/><path class="cls-8" d="M233.88,80.91c5.56-.26,11.19.36,16.72,0,.8,0,1.07-1.29.2-1.47-5.37-1.11-11.52-.49-16.92.12-.83.09-.87,1.36,0,1.32Z"/><path class="cls-8" d="M236,85.78c2.22-.13,4.45-.22,6.67-.2s4.48.39,6.68.23a.75.75,0,0,0,.19-1.47c-4.25-1.11-9.42-.47-13.72.13-.73.11-.56,1.35.18,1.31Z"/><path class="cls-8" d="M237.87,89.38c1.94.13,3.95.68,5.89.64a.85.85,0,0,0,.22-1.66c-1.88-.59-4.16-.38-6.11-.31a.67.67,0,0,0,0,1.33Z"/><path class="cls-8" d="M238.75,75.83c.43-5.52-1.43-11.62-2.37-17l-1.62.68c.78,1.28,2.07,5,4.06,4.84s2.82-3.8,3.11-5.29h-1.77c.39,1.7.45,5.81,3.12,5.42,2.27-.33,3.79-3.69,4.49-5.54l-1.85-.51c-1.37,5.4-2,12.23-.65,17.67a.91.91,0,0,0,1.77-.24c-.17-5.72-1-11.31.73-16.92.36-1.2-1.41-1.63-1.85-.51-.25.64-1.71,4.26-3.1,3.8-.35-.12-.81-3.35-.89-3.66a.92.92,0,0,0-1.77,0c-.2,1.1-.66,4.12-2,3.22-.76-.52-1.42-2.38-1.9-3.17a.89.89,0,0,0-1.62.68c.85,5.41,1.09,11.72,3.26,16.78.19.44.79.16.82-.22Z"/><path class="cls-11" d="M184,68.94c8.27-2.63,16.8-4.9,24.88-8.09a.55.55,0,0,0-.3-1.06c-8.42,2.1-16.68,5.21-24.94,7.87-.81.26-.46,1.54.36,1.28Z"/><path class="cls-11" d="M194.14,44.33c5.21-.11,10.63.19,15.8-.47a.7.7,0,0,0,0-1.39c-5.2-.39-10.59.2-15.8.37a.75.75,0,0,0,0,1.49Z"/><path class="cls-11" d="M219.14,35.28C213.28,30.17,207.68,23.8,201,19.76a1,1,0,0,0-1.26,1.63c5.12,5.81,12.3,10.12,18.32,15,.74.6,1.81-.41,1.07-1.06Z"/><path class="cls-11" d="M232.34,27.43c0-1.64-1.22-3.22-2-4.58A24.92,24.92,0,0,0,227.26,18a1,1,0,0,0-1.65,1,25,25,0,0,0,2.95,4.9c.87,1.33,1.71,3.2,3.21,3.89a.38.38,0,0,0,.57-.33Z"/><path class="cls-11" d="M244.7,24.1c.25-7.9.55-16.25-.37-24.1a.92.92,0,0,0-1.84,0c-.6,7.88,0,16.22.6,24.1a.81.81,0,0,0,1.61,0Z"/><path class="cls-11" d="M253.94,27.89a67.12,67.12,0,0,0,5.57-9,1,1,0,0,0-1.66-1,67.91,67.91,0,0,0-5.15,9.3.72.72,0,0,0,1.24.72Z"/><path class="cls-11" d="M261.09,34.49a124,124,0,0,0,11.35-5.84c3.69-2,7.82-3.76,11-6.49a.86.86,0,0,0-.84-1.43c-3.76,1.22-7.16,3.63-10.58,5.59a131,131,0,0,0-11.48,6.93c-.57.41-.24,1.56.52,1.24Z"/><path class="cls-11" d="M266.25,44.76c2.91,1,7.9.27,10.15-1.9.79-.75,0-1.86-1-1.69-1.55.27-3,1.09-4.53,1.45s-3.1.35-4.64.67c-.79.16-.65,1.24,0,1.47Z"/><path class="cls-11" d="M267.45,59.09c11,2.75,22.67,6.33,34,7.42,1.4.13,1.54-2,.32-2.35-10.67-3.54-22.73-4.94-33.81-6.86-1.15-.2-1.67,1.5-.49,1.79Z"/><path class="cls-12" d="M109.83,253.39c.36-2.46.29-4.8,1.67-7,2.74-4.31,6.63-3.23,10.4-1.33s7.45,3.09,11.62,1.28c6.51-2.82,9.57-12.64,3.35-17.27-2-1.49-4,1-3.72,2.87.37,2.64,1.69,5.55-.58,7.82-3,3-6.58.49-9.6-.87a12.56,12.56,0,0,0-10.1-.44c-5.8,2.35-10,10.21-5.4,15.52a1.42,1.42,0,0,0,2.36-.62Z"/><path class="cls-3" d="M195.44,258.14a143.78,143.78,0,0,0,23.26-8.23c2.69-1.27,1-5-1.8-4.18a141.33,141.33,0,0,0-22.28,9.48c-1.41.74-1,3.41.82,2.93Z"/><path class="cls-13" d="M156.59,266.29c1.65,6.13,3.47,12.18,5.36,18.24A1.91,1.91,0,0,0,165,285.6c4.93-3.35,9.85-6.64,14.52-10.34a1.76,1.76,0,0,0-.19-2.76c-5.46-3.75-12.84-9.28-19.77-9.32-1.76,0-3,2.47-1.21,3.5,2.8,1.61,6.15,2.19,9.14,3.43a50.16,50.16,0,0,1,9.91,5.29c.07-1,.13-2,.2-3-5.21,3.21-10.12,6.81-15.08,10.4l2.93.59c-2.12-6-4.29-11.93-6.63-17.83a1.21,1.21,0,0,0-2.26.75Z"/><path class="cls-12" d="M167.36,327.62a145.17,145.17,0,0,0,24.67,0c3-.29,2.6-4.34-.28-4.45a141.69,141.69,0,0,0-24.17,1.44c-1.58.21-2.05,2.83-.22,3Z"/><path class="cls-14" d="M325,142l5.68,19.74,7.94-1.55-.77-4,2.25-1.36,4.25,4.21,13.46-2.62,1.75-5.15-3.83-.86,4.94-1.65-1.07-5.51-4.28.37,5.87-1.6-1.33-6.84-13.68,2.67s.88-9.57-3.16-12.67l-3.08.6a16.82,16.82,0,0,1,.94,4.85c-.1,1.86-2.78,10.39-2.78,10.39l-4.2,2-1-2.79Z"/><polygon class="cls-10" points="46.69 105.02 51.27 159.68 151.93 159.68 157.5 178.91 163.38 157.82 182.56 156.71 173.71 107.75 46.69 105.02"/><path class="cls-14" d="M59.9,125.25c34.63-1.49,69.3-1.65,103.83,1.77,1.23.12,1.24-1.84,0-1.93-34.53-2.54-69.24-3.79-103.83-1.52-1.07.07-1.08,1.72,0,1.68Z"/><path class="cls-14" d="M61.92,136c34.63-1.49,69.3-1.64,103.83,1.78,1.23.12,1.24-1.84,0-1.93-34.53-2.54-69.24-3.8-103.83-1.52-1.07.07-1.08,1.72,0,1.67Z"/><path class="cls-14" d="M62.11,145.06c23.28,1,46.31-1.08,69.57,1.17,1.23.12,1.25-1.85,0-1.93-23.23-1.54-46.3-.68-69.57-.92a.84.84,0,0,0,0,1.68Z"/></svg>