<?xml version="1.0" encoding="utf-8"?>
<!-- Generator: Adobe Illustrator 22.0.0, SVG Export Plug-In . SVG Version: 6.00 Build 0)  -->
<svg version="1.1" id="Layer_1" xmlns="http://www.w3.org/2000/svg" xmlns:xlink="http://www.w3.org/1999/xlink" x="0px" y="0px"
	 viewBox="0 0 425.2 425.2" style="enable-background:new 0 0 425.2 425.2;" xml:space="preserve">
<style type="text/css">
	.st0{opacity:0.43;}
	.st1{fill:#EFE6F5;}
	.st2{fill:#5F2A39;}
	.st3{fill:#BDACD8;}
	.st4{fill:#E1D2F4;}
	.st5{opacity:0.44;fill:#BDACD8;}
	.st6{fill:#6F35A4;}
	.st7{fill:#FFC8C7;}
	.st8{fill:#4C2278;}
	.st9{opacity:0.14;fill:#BDACD8;}
	.st10{fill:#FFC289;}
	.st11{fill:#EE9D67;}
	.st12{fill:#C1855E;}
	.st13{opacity:7.000000e-02;}
	.st14{fill:#F8F9FC;}
	.st15{fill:#BB69C8;}
	.st16{fill:#C5CDDE;}
	.st17{fill:#F78F8D;}
	.st18{opacity:0.26;}
	.st19{fill:#D8ECFC;}
	.st20{fill:#695151;}
	.st21{fill:#9B8ABE;}
	.st22{fill:#D9D1E9;}
	.st23{opacity:0.19;fill:#D9D1E9;}
	.st24{fill:#7E2E83;}
	.st25{fill:#FAC480;}
	.st26{fill:#7CAAFF;}
	.st27{fill:#FF947E;}
</style>
<g>
	<g class="st0">
		<path class="st1" d="M6,317.3c-15.1-38.1,0.8-86,35.8-107.4c21.1-13,46.6-16.5,69.3-26.4c34.9-15.2,61.4-44.7,92.7-66.4
			c23.2-16.2,49.7-28.3,77.7-32.4c28-4.1,57.6,0.2,82,14.6c25.9,15.3,44.6,41.3,53.6,70c8.9,28.7,8.5,59.8,1.4,89
			c-2.7,11.2-6.4,22.3-13,31.7c-6.6,9.4-16.2,17.1-27.5,19.3"/>
	</g>
	<path class="st1" d="M399.6,304.9c0,0-391.3,8.9-393.6,10.1c0,0,32.7,52.6,132,49.9C237.3,362.2,403.8,357.4,399.6,304.9z"/>
	<path class="st2" d="M188.6,128.1c-11,4-7.2-8.6-7.5-13.9c-0.4-5.3-0.1-10.9-2.3-15.8c-1.8-3.9-5.1-7.3-5.1-11.6
		c0-3.2,1.9-6.1,2.8-9.3c1.1-4.3,0.1-8.9,0.8-13.4c1.4-8.5,10.2-15,18.7-13.9c4.3,0.6,8.4,2.7,12.6,2.2c4.7-0.6,8.2-4.4,12.3-6.8
		c5.7-3.3,13.1-3.9,19-0.9c5.9,3,9.8,9.7,9.1,16.2c-0.7,6.6-6.4,12.4-13,12.7c-3.8,0.2-7.6-1.3-11.3-2.2c-3.7-0.9-8-1.3-11.2,0.9
		c-4,2.7-5.7,9-10.6,9.5c-2.6,0.2-4.8-1.4-7.2-2.4c-2.3-1-5.6-1.2-7,1c-1.1,1.8-0.2,4.1,0.1,6.2c0.4,3.9-0.5,7.7-3.9,9.4
		c-1.4,10.6,1.8,20.8,5,31.1"/>
	<polygon class="st3" points="97.8,312.9 68,146.4 163.8,146.4 199.2,309.8 	"/>
	<polygon class="st4" points="105.2,312.7 73.8,146.4 169.5,146.4 205,309.8 	"/>
	<path class="st5" d="M170.6,146.4c0,0-33.1,14.6-42.4,30.3c-8,13.5-46.3,93.2-32.1,104.4c14.2,11.2,108.5,7.6,108.5,7.6l6.1-25.4
		l-74.1-12.7l45.4-39.9L170.6,146.4z"/>
	<path class="st6" d="M253.5,186.8c-0.5-1.6-4.2-36.9-41.3-36c-34.8,0.8-54.2,2.8-66.3,29.9l12.9,51.2l2.7,79.2l100.4-3.2
		L253.5,186.8z"/>
	<path class="st6" d="M160.8,161.1c0,0-14.2,7.5-23.5,23.2c-8,13.5-46.3,93.2-32.1,104.4c14.2,11.2,108.5,7.6,108.5,7.6l6.1-25.4
		l-74.1-12.7l12.9-26.4L160.8,161.1z"/>
	<path class="st6" d="M235.1,156.7c0,0,35.5,23.8,72.5,85.7l-15,36.6l-39-49.5L235.1,156.7z"/>
	<polygon class="st3" points="197.2,315.6 278.5,315.6 282.5,308.6 197.2,311.1 	"/>
	<path class="st7" d="M218.2,280.1h33.3c0,0,20.4,18.2,16.8,19c-3.5,0.9-16-11.4-16-11.4l9.5,21.1c0,0-14.6-2-19.3-5.9
		c-4.7-4-9.1-7.1-9.1-7.1l-18.9,1.8L218.2,280.1z"/>
	<g>
		<path class="st8" d="M160.3,161.8c0,0,0.3-0.1,0.9-0.1c0.3,0,0.7-0.1,1.1-0.1c0.4,0,0.9,0,1.5,0.1c2.2,0.2,5.4,1.4,8.3,4.1
			c1.5,1.4,2.8,3.1,3.9,5.2c1.1,2.1,1.8,4.5,2.2,7.2c0.7,5.3-0.3,11.1-2,16.9c-3.4,11.6-8.1,21.6-11.9,28.5c-1.9,3.5-3.6,6.2-4.9,8
			c-0.6,0.9-1.1,1.6-1.4,2.1c-0.3,0.5-0.5,0.7-0.5,0.7c0,0,0.1-0.3,0.4-0.8c0.3-0.5,0.8-1.3,1.3-2.2c1.2-1.9,2.8-4.6,4.7-8.1
			c3.8-6.9,8.4-16.9,11.8-28.4c1.7-5.8,2.6-11.5,2-16.7c-0.5-5.2-3-9.4-5.8-12.1c-2.8-2.7-5.9-3.9-8.1-4.2
			C161.5,161.6,160.3,161.9,160.3,161.8z"/>
	</g>
	<g>
		<path class="st8" d="M248.5,182.7c0,0,0.1,0.2,0.2,0.7c0.1,0.5,0.2,1.2,0.3,2c0.3,1.8,0.7,4.4,1.2,7.5c1,6.4,2.4,15.1,3.9,24.7
			c1.5,9.6,2.7,18.4,3.4,24.7c0.4,3.2,0.6,5.8,0.7,7.5c0,0.8,0.1,1.5,0.1,2.1c0,0.5,0,0.7,0,0.7c0,0-0.1-0.2-0.1-0.7
			c-0.1-0.5-0.1-1.2-0.2-2c-0.2-1.8-0.5-4.3-0.9-7.5c-0.8-6.3-2.1-15.1-3.6-24.7c-1.5-9.6-2.8-18.4-3.7-24.7c-0.5-3.2-0.8-5.7-1-7.5
			c-0.1-0.8-0.2-1.5-0.2-2C248.5,183,248.5,182.7,248.5,182.7z"/>
	</g>
	<g>
		<path class="st9" d="M152.7,331.9c0,1.8-8.3,3.2-18.6,3.2s-18.6-1.4-18.6-3.2s8.3-3.2,18.6-3.2S152.7,330.2,152.7,331.9z"/>
		<path class="st10" d="M140.8,297.8c0,0-16-6.1-31,0v3.5c0,0-5.4-0.4-5.4,4.8c0,5.2,1.7,12.1,8.7,14.9l3,9.5c0,0,13,3.2,19.7,0
			c0,0,1.5-5,2.8-10.2C139.6,316.6,140.8,297.8,140.8,297.8z M107,307.9c-0.4-4.4,3.2-3,3.2-3l1.9,12.4
			C112.2,317.4,107.7,316.1,107,307.9z"/>
		<path class="st11" d="M138.6,298.2c0,0-14.1-3.4-26.4,0.1C112.2,298.3,124.9,308.9,138.6,298.2z"/>
		<g>
			<path class="st12" d="M140,312.5c0,0-0.4,0.2-1,0.5c-0.7,0.3-1.7,0.7-2.9,1c-2.5,0.8-6.1,1.5-10.2,1.7c-4,0.1-7.7-0.4-10.3-1
				c-1.3-0.3-2.3-0.6-3-0.8c-0.7-0.2-1.1-0.4-1.1-0.4c0-0.1,1.6,0.4,4.2,0.9c2.6,0.5,6.2,0.9,10.2,0.8c4-0.1,7.6-0.8,10.1-1.5
				C138.5,313,140,312.4,140,312.5z"/>
		</g>
		<g>
			<path class="st12" d="M139.3,309.5c0,0-0.3,0.2-1,0.6c-0.6,0.3-1.6,0.8-2.9,1.2c-2.5,0.9-6,1.8-10,1.9c-4,0.2-7.6-0.4-10.2-1.1
				c-1.3-0.3-2.3-0.7-2.9-1c-0.7-0.3-1-0.4-1-0.5c0-0.1,1.5,0.5,4.1,1.1c2.5,0.6,6.1,1.1,10,1c4-0.2,7.5-1,9.9-1.8
				C137.8,310.1,139.3,309.4,139.3,309.5z"/>
		</g>
		<g class="st13">
			<path class="st14" d="M112.7,298.3c-1.2-1.4-0.6-3.7,0.8-4.9c1.3-1.2,3.2-1.8,4.8-2.6c1.7-0.8,3.3-2,3.6-3.9
				c0.6-3.5-4-6.5-2.8-9.8c1.1-3.1,6-2.9,7.9-5.6c2.1-3-0.7-7.2,0.5-10.6c0.9-2.3,3.6-3.6,6.1-3.2c2.5,0.4,4.6,2.1,6,4.1
				c1.4,2.1,2.2,4.5,2.9,6.8c1,3.1,1.8,6.6,0.2,9.5c-0.8,1.4-2.2,2.9-1.6,4.4c0.4,0.9,1.4,1.4,2.1,2.1c1.8,1.7,1.6,4.6,0.7,7
				c-2.2,6.3-8.3,11.1-14.9,11.8c-6.7,0.7-13.6-2.6-17.1-8.3"/>
		</g>
	</g>
	<g>
		<path class="st15" d="M241.1,188.5c0.1,0.1-0.8,1.7-2.2,3.6c-1.3,1.9-2.5,3.4-2.7,3.3c-0.1-0.1,0.8-1.7,2.2-3.6
			C239.8,189.9,241,188.4,241.1,188.5z"/>
	</g>
	<path class="st14" d="M188.7,152c0,0,20.5,53.1,34.8,71c0,0,6-52.3,0-71.2C223.5,151.8,196.1,148.5,188.7,152z"/>
	<path class="st7" d="M185.3,65.8L184,97.2c0,0-9.7-0.1-9.7,8.8c0,11.2,10.5,9.3,10.5,9.3s-2.2,21.3,27,23
		c34.2,2.1,26.9-51.3,25.6-76.4L185.3,65.8z"/>
	<path class="st7" d="M223.5,113.8l-1.7,38.4c-0.5,10.8-11.9,17.5-21.5,12.6c-0.1-0.1-0.2-0.1-0.4-0.2c-5.2-2.6-8.4-8-8.2-13.8
		c0.4-13.5,0.6-36.7,0.6-36.7L223.5,113.8z"/>
	<g>
		<path class="st8" d="M223.5,223c0,0-0.3-0.2-0.7-0.6c-0.4-0.4-1.1-1-1.9-1.8c-1.6-1.5-3.9-3.8-6.7-6.7c-2.8-2.9-6.1-6.3-9.9-10
			c-1.9-1.8-4-3.7-5.8-5.9c-1.8-2.2-3.5-4.9-4-8c-0.4-2.4-0.2-5,1-7.1l0.4,0.4c-1.1,1-2.7,1-3.9,0.6c-1.3-0.4-2.4-1.2-3.1-2.3
			c-1.4-2.2-1.6-4.7-1.7-6.9c-0.2-4.4-0.5-8.4-0.6-11.7c-0.2-3.3-0.3-5.9-0.4-7.8c0-0.9-0.1-1.6-0.1-2.1c0-0.5,0-0.7,0-0.7
			c0,0,0.1,0.2,0.1,0.7c0,0.5,0.1,1.2,0.2,2.1c0.1,1.9,0.3,4.5,0.5,7.8c0.2,3.3,0.5,7.3,0.8,11.7c0.2,2.2,0.3,4.6,1.7,6.6
			c0.6,1,1.7,1.7,2.8,2.1c1.1,0.4,2.5,0.3,3.4-0.5l1.3-1.1l-0.8,1.5c-1.1,1.9-1.4,4.4-0.9,6.7c0.5,3,2.1,5.6,3.9,7.7
			c1.8,2.2,3.9,4.1,5.8,5.9c3.8,3.7,7.1,7.2,9.8,10.1c2.8,2.9,5,5.2,6.6,6.8c0.8,0.8,1.4,1.4,1.8,1.8
			C223.3,222.8,223.5,223,223.5,223z"/>
	</g>
	<g>
		<path class="st8" d="M223.5,151.8c0,0,0.2,0.1,0.4,0.3c0.3,0.2,0.7,0.6,1.2,1.1c1,1,2.4,2.5,3.9,4.7c0.7,1.1,1.5,2.3,2.2,3.7
			c0.7,1.4,1.4,2.9,1.8,4.6c0.4,1.7,0.5,3.6,0.2,5.6c-0.3,1.9-1.2,3.9-2.7,5.5l0-0.4c1,1.1,1.7,2.6,2,4.1c0.3,1.5,0.3,3.2,0.2,4.8
			c-0.2,2.7-0.8,5.2-1.2,7.6c-0.5,2.4-0.9,4.8-1.4,7c-0.9,4.5-1.9,8.5-2.7,11.8c-0.8,3.3-1.6,6-2.1,7.9c-0.3,0.9-0.5,1.6-0.6,2.1
			c-0.2,0.5-0.2,0.7-0.3,0.7c0,0,0-0.3,0.2-0.8c0.1-0.5,0.3-1.3,0.5-2.2c0.5-1.9,1.2-4.6,2-7.9c0.8-3.4,1.7-7.4,2.6-11.8
			c0.5-2.2,0.9-4.6,1.4-7c0.4-2.4,1-5,1.2-7.6c0.1-1.6,0.1-3.1-0.2-4.6c-0.3-1.5-0.9-2.8-1.8-3.9l-0.2-0.2l0.2-0.2
			c1.4-1.5,2.3-3.3,2.6-5.2c0.3-1.9,0.2-3.7-0.1-5.4c-0.3-1.7-1-3.2-1.7-4.5c-0.7-1.4-1.4-2.6-2.1-3.7c-1.4-2.2-2.8-3.7-3.7-4.7
			c-0.5-0.5-0.8-0.9-1.1-1.2C223.6,152,223.5,151.8,223.5,151.8z"/>
	</g>
	<g>
		<path class="st8" d="M226.9,280.1c-0.2,0-1.2-12.7-2.2-28.4c-1.1-15.7-1.8-28.4-1.7-28.4c0.2,0,1.2,12.7,2.2,28.4
			C226.3,267.3,227,280.1,226.9,280.1z"/>
	</g>
	<g>
		<path class="st8" d="M232,238.4c0,0,0.3-0.1,0.8-0.1c0.5,0.1,1.3,0.3,1.9,1c0.6,0.7,1,1.9,0.6,3.1c-0.4,1.2-1.7,2.2-3.2,2.1
			c-1.5-0.1-2.6-1.3-2.9-2.5c-0.4-1.2-0.1-2.4,0.5-3.1c0.6-0.7,1.4-1,1.9-1c0.5,0,0.8,0.1,0.8,0.2c0,0-0.3,0-0.7,0.1
			c-0.4,0.1-1.1,0.3-1.6,1c-0.5,0.6-0.7,1.7-0.3,2.7c0.3,1,1.3,2,2.5,2c1.2,0.1,2.3-0.7,2.7-1.7c0.4-1,0.1-2-0.4-2.6
			c-0.5-0.6-1.2-0.9-1.6-1C232.3,238.5,232,238.5,232,238.4z"/>
	</g>
	<g>
		<path class="st8" d="M233.8,261c0,0,0.3-0.1,0.8-0.1c0.5,0.1,1.3,0.3,1.9,1c0.6,0.7,1,1.9,0.6,3.1c-0.4,1.2-1.7,2.2-3.2,2.1
			c-1.5-0.1-2.6-1.3-2.9-2.5c-0.4-1.2-0.1-2.4,0.5-3.1c0.6-0.7,1.4-1,1.9-1c0.5,0,0.8,0.1,0.8,0.2c0,0-0.3,0-0.7,0.1
			c-0.4,0.1-1.1,0.3-1.6,1c-0.5,0.6-0.7,1.7-0.3,2.7c0.3,1,1.3,2,2.5,2c1.2,0.1,2.3-0.7,2.7-1.7c0.4-1,0.1-2-0.4-2.6
			c-0.5-0.6-1.2-0.9-1.6-1C234.1,261,233.8,261,233.8,261z"/>
	</g>
	<g>
		<path class="st8" d="M231.5,240.2c0.1,0.1,0.1,0.3,0,0.4c-0.1,0.1-0.2,0.2-0.4,0.2c-0.2,0-0.3-0.3-0.1-0.5
			C231.2,240.1,231.4,240.1,231.5,240.2z"/>
	</g>
	<g>
		<path class="st8" d="M233.1,241.5c0.1,0.1,0.2,0.3,0.1,0.4c-0.1,0.1-0.3,0.2-0.4,0.1c-0.1-0.1-0.2-0.3-0.1-0.4
			C232.8,241.4,233,241.4,233.1,241.5z"/>
	</g>
	<g>
		<path class="st8" d="M233.1,262.7c0.1,0.1,0.1,0.3,0,0.5c-0.1,0.2-0.4,0.2-0.5,0.1c-0.1-0.1-0.1-0.3,0-0.5
			C232.8,262.6,233,262.6,233.1,262.7z"/>
	</g>
	<g>
		<path class="st8" d="M234.9,264.4c0.1,0.1,0,0.4-0.1,0.5c-0.2,0.2-0.4,0.2-0.5,0.1c-0.1-0.1,0-0.4,0.1-0.5
			C234.6,264.4,234.8,264.3,234.9,264.4z"/>
	</g>
	<g>
		<path class="st8" d="M219.2,272.2c0.2,0-1,6.6-2.6,14.7c-1.6,8.1-3,14.6-3.1,14.6c-0.2,0,1-6.6,2.6-14.7
			C217.7,278.7,219.1,272.2,219.2,272.2z"/>
	</g>
	<g>
		<path class="st8" d="M206.9,270.5c0.2,0-1.1,6.5-2.8,14.4c-1.7,7.9-3.2,14.3-3.3,14.3c-0.2,0,1.1-6.5,2.8-14.4
			C205.3,276.8,206.7,270.4,206.9,270.5z"/>
	</g>
	<g>
		<path class="st8" d="M220.2,272.4c0,0.2-13.4-2.3-29.9-5.5c-16.5-3.2-29.8-5.9-29.7-6c0-0.2,13.4,2.3,29.9,5.5
			C206.9,269.6,220.2,272.3,220.2,272.4z"/>
	</g>
	<g>
		<path class="st8" d="M213.5,301c0,0.2-11.7-0.6-26-1.8c-14.3-1.1-26-2.2-26-2.4c0-0.2,11.7,0.6,26,1.8
			C201.9,299.7,213.6,300.8,213.5,301z"/>
	</g>
	<g>
		<path class="st8" d="M228.7,309c-0.1,0-0.9-2.7-1.2-6.2c-0.3-3.5,0-6.4,0.2-6.4c0.2,0,0.1,2.8,0.4,6.3
			C228.4,306.1,228.9,308.9,228.7,309z"/>
	</g>
	<g>
		<path class="st8" d="M249.3,207c0,0.2-3.5,0.6-7.8,0.9c-4.3,0.3-7.9,0.5-7.9,0.3c0-0.2,3.5-0.6,7.8-0.9
			C245.7,207,249.3,206.8,249.3,207z"/>
	</g>
	<g>
		<path class="st8" d="M298.7,265.7c-0.1,0.1-10.2-12.1-22.6-27.3c-12.3-15.2-22.2-27.6-22.1-27.7c0.1-0.1,10.2,12.1,22.6,27.3
			C288.9,253.2,298.8,265.6,298.7,265.7z"/>
	</g>
	<g>
		<path class="st8" d="M168.7,262.2c-0.2,0-1-9.3-1.8-20.8c-0.8-11.5-1.4-20.9-1.2-20.9c0.2,0,1,9.3,1.8,20.8
			C168.3,252.9,168.8,262.2,168.7,262.2z"/>
	</g>
	<g>
		<path class="st8" d="M173.5,310.8c-0.1,0.1-1.4-2.7-1.9-6.3c-0.5-3.7-0.1-6.7,0.1-6.6c0.2,0,0,3,0.5,6.5
			C172.6,308,173.7,310.7,173.5,310.8z"/>
	</g>
	<g>
		<path class="st15" d="M244.2,202.8c-0.1,0.1-1-0.7-1.9-1.8c-0.9-1.1-1.6-2.1-1.5-2.2c0.1-0.1,1,0.7,1.9,1.8
			C243.7,201.7,244.3,202.7,244.2,202.8z"/>
	</g>
	<g>
		<path class="st15" d="M190.8,222.2c0.1,0.1-0.6,1.4-1.6,2.8c-1,1.5-1.9,2.6-2.1,2.5c-0.1-0.1,0.6-1.4,1.6-2.8
			C189.7,223.2,190.6,222.1,190.8,222.2z"/>
	</g>
	<g>
		<path class="st15" d="M176.8,233.5c-0.1,0.1-1.4-1-3-2.4c-1.5-1.5-2.7-2.7-2.6-2.9c0.1-0.1,1.4,1,3,2.4
			C175.7,232.1,176.9,233.4,176.8,233.5z"/>
	</g>
	<g>
		<path class="st15" d="M179.5,218.8c-0.1,0.1-1.1-1.1-1.7-3c-0.6-1.8-0.4-3.4-0.3-3.4c0.2,0,0.3,1.5,0.8,3.2
			C178.9,217.4,179.7,218.7,179.5,218.8z"/>
	</g>
	<g>
		<path class="st15" d="M187,206.2c-0.1,0.1-1.5-0.4-2.9-1.5c-1.5-1.1-2.3-2.3-2.2-2.4c0.1-0.1,1.2,0.9,2.6,1.9
			C185.8,205.3,187.1,206.1,187,206.2z"/>
	</g>
	<g>
		<path class="st15" d="M208.4,219.3c0.1,0.1-0.4,1.3-1.2,2.7c-0.8,1.4-1.6,2.4-1.7,2.4c-0.1-0.1,0.4-1.3,1.2-2.7
			C207.5,220.2,208.3,219.2,208.4,219.3z"/>
	</g>
	<g>
		<path class="st15" d="M200,215c-0.2,0-0.6-1.6-0.7-3.7c-0.1-2.1,0.1-3.8,0.3-3.8c0.2,0,0.2,1.7,0.3,3.7
			C200,213.3,200.2,214.9,200,215z"/>
	</g>
	<g>
		<path class="st15" d="M199.9,240.1c-0.1,0.1-0.9-1.6-1.2-3.8c-0.3-2.2,0-4,0.2-3.9c0.2,0,0.1,1.8,0.4,3.9
			C199.6,238.4,200.1,240.1,199.9,240.1z"/>
	</g>
	<g>
		<path class="st15" d="M191.7,246.5c-0.1,0.1-1.4-0.9-2.6-2.6c-1.2-1.7-1.8-3.3-1.6-3.3c0.2-0.1,0.9,1.4,2.1,3
			C190.7,245.2,191.8,246.4,191.7,246.5z"/>
	</g>
	<g>
		<path class="st15" d="M180,250.2c0.1,0.1-0.8,1-2.1,1.8s-2.3,1.5-2.4,1.4c-0.1-0.1,0.8-1,2.1-1.8
			C178.8,250.7,179.9,250.1,180,250.2z"/>
	</g>
	<g>
		<path class="st15" d="M172.8,244c-0.1,0.1-0.9-0.4-1.6-1.3c-0.7-1-0.8-1.9-0.7-1.9c0.2-0.1,0.6,0.7,1.2,1.6
			C172.4,243.3,172.9,243.9,172.8,244z"/>
	</g>
	<g>
		<path class="st15" d="M191.2,259.3c0.2,0-0.1,1.4-0.6,3c-0.5,1.6-1,2.8-1.1,2.8c-0.2,0,0.1-1.4,0.6-3
			C190.5,260.5,191,259.3,191.2,259.3z"/>
	</g>
	<g>
		<path class="st15" d="M202.6,262.5c-0.1,0.1-1.3-1-2.1-2.7c-0.9-1.7-1.1-3.3-0.9-3.3c0.2,0,0.6,1.4,1.4,3
			C201.8,261.2,202.7,262.4,202.6,262.5z"/>
	</g>
	<g>
		<path class="st15" d="M216.8,262.8c-0.1,0.1-1.5-0.6-3-1.7c-1.6-1.1-2.8-2-2.7-2.2c0.1-0.1,1.5,0.6,3,1.7
			C215.7,261.7,216.9,262.6,216.8,262.8z"/>
	</g>
	<g>
		<path class="st15" d="M218.4,246.2c0.1,0.1-1,1.2-2.4,2.4c-1.4,1.2-2.6,2-2.7,1.9c-0.1-0.1,1-1.2,2.4-2.4
			C217.1,246.9,218.3,246.1,218.4,246.2z"/>
	</g>
	<g>
		<path class="st15" d="M206.2,246.1c0.1,0.1-0.1,0.7-0.6,1.3c-0.5,0.6-1,1.1-1.1,1c-0.1-0.1,0.1-0.7,0.6-1.3
			C205.5,246.4,206,246,206.2,246.1z"/>
	</g>
	<g>
		<path class="st15" d="M215.4,236.7c-0.1,0.1-1.3-1.1-2.8-2.4c-1.5-1.3-2.9-2.3-2.8-2.4c0.1-0.1,1.6,0.6,3.2,2
			C214.5,235.2,215.5,236.6,215.4,236.7z"/>
	</g>
	<g>
		<path class="st15" d="M187.3,197.3c-0.1-0.1,1-1.7,2-3.8c1-2.1,1.5-4,1.7-4c0.1,0-0.1,2-1.1,4.2
			C188.8,196,187.4,197.4,187.3,197.3z"/>
	</g>
	<g>
		<path class="st15" d="M181.9,191.3c-0.2,0-0.6-1.7-0.8-3.9c-0.2-2.2,0.1-4,0.2-4c0.2,0,0.2,1.8,0.4,3.9
			C181.9,189.5,182,191.2,181.9,191.3z"/>
	</g>
	<g>
		<path class="st15" d="M182.1,168.2c0,0.1-1.3-0.1-2.6-1c-1.3-0.9-1.8-2.1-1.7-2.2c0.1-0.1,0.9,0.8,2.1,1.7
			C181,167.6,182.1,168.1,182.1,168.2z"/>
	</g>
	<g>
		<path class="st15" d="M178,156.9c0.1,0.1-0.8,0.7-1.9,1.2c-1.1,0.5-2.1,0.8-2.2,0.7c-0.1-0.1,0.8-0.7,1.9-1.2
			C177,157.1,178,156.8,178,156.9z"/>
	</g>
	<g>
		<path class="st15" d="M192.1,174.4c-0.2,0-0.1-1.2,0-2.7c0.2-1.5,0.4-2.7,0.6-2.6c0.2,0,0.1,1.2,0,2.7
			C192.5,173.2,192.2,174.4,192.1,174.4z"/>
	</g>
	<g>
		<path class="st15" d="M201.3,190.8c-0.1,0.1-0.7-0.2-1.5-0.7c-0.7-0.5-1.2-1.1-1.1-1.2c0.1-0.1,0.7,0.2,1.5,0.7
			C200.9,190.2,201.4,190.7,201.3,190.8z"/>
	</g>
	<g>
		<path class="st15" d="M229.8,184.9c0.2,0,0,1.4-0.4,3c-0.4,1.6-0.8,2.9-1,2.9c-0.2,0,0-1.4,0.4-3
			C229.2,186.1,229.7,184.8,229.8,184.9z"/>
	</g>
	<g>
		<path class="st15" d="M230.5,170.4c-0.1,0.1-0.9-0.2-1.6-1.1c-0.7-0.9-0.9-1.8-0.7-1.9c0.2-0.1,0.5,0.7,1.2,1.5
			C230,169.7,230.6,170.2,230.5,170.4z"/>
	</g>
	<g>
		<path class="st15" d="M238.4,173.8c0.1,0.1-0.4,1.2-1.1,2.4c-0.8,1.2-1.5,2.2-1.6,2.1s0.4-1.2,1.1-2.4
			C237.5,174.6,238.3,173.7,238.4,173.8z"/>
	</g>
	<g>
		<path class="st15" d="M244.5,181c-0.2,0-0.2-1.5-0.1-3.3c0.1-1.8,0.3-3.3,0.5-3.3c0.2,0,0.2,1.5,0.1,3.3
			C244.9,179.6,244.7,181,244.5,181z"/>
	</g>
	<g>
		<path class="st15" d="M239.8,165.1c-0.1,0.1-1.3-1.1-2.6-2.7c-1.3-1.6-2.2-3-2.1-3.1c0.1-0.1,1.3,1.1,2.6,2.7
			C239,163.6,240,165,239.8,165.1z"/>
	</g>
	<g>
		<path class="st15" d="M162.8,188.5c-0.2,0,0-1.8,0.4-4c0.4-2.2,0.8-3.9,0.9-3.9c0.2,0,0,1.8-0.4,4
			C163.4,186.8,163,188.5,162.8,188.5z"/>
	</g>
	<g>
		<path class="st15" d="M156.7,175c0,0.2-1.3,0.4-3,0.8c-1.6,0.4-2.9,0.9-3,0.7c-0.1-0.1,1.2-0.8,2.9-1.3
			C155.3,174.9,156.7,174.9,156.7,175z"/>
	</g>
	<g>
		<path class="st15" d="M165.2,169.7c-0.1,0.1-1.1-0.7-2.1-1.7c-1.1-1.1-1.8-2-1.7-2.1c0.1-0.1,1.1,0.7,2.1,1.7
			C164.6,168.7,165.3,169.6,165.2,169.7z"/>
	</g>
	<g>
		<path class="st15" d="M172.3,185.5c-0.1,0-0.7-1.4-0.7-3.3c-0.1-1.9,0.4-3.4,0.5-3.3c0.2,0,0,1.5,0.1,3.3
			C172.2,184,172.4,185.5,172.3,185.5z"/>
	</g>
	<g>
		<path class="st15" d="M163.5,207.3c-0.1-0.1,0.3-1.4,1-3c0.7-1.6,1.4-2.8,1.5-2.8c0.1,0.1-0.3,1.4-1,3
			C164.3,206.1,163.6,207.3,163.5,207.3z"/>
	</g>
	<g>
		<path class="st15" d="M155.6,197.9c-0.1,0,0.1-1.3,1-2.6c0.9-1.3,1.9-2,2-1.9c0.1,0.1-0.7,1-1.5,2.2
			C156.3,196.8,155.8,197.9,155.6,197.9z"/>
	</g>
	<g>
		<path class="st15" d="M145.2,195.5c-0.1-0.1,0.4-1.6,1.2-3.5c0.8-1.9,1.6-3.4,1.8-3.3c0.1,0.1-0.4,1.6-1.2,3.5
			C146.1,194.1,145.3,195.6,145.2,195.5z"/>
	</g>
	<g>
		<path class="st15" d="M138.5,193c-0.2,0-0.1-1.6,0.2-3.4c0.2-1.9,0.6-3.4,0.7-3.4c0.2,0,0.1,1.6-0.2,3.4
			C139,191.5,138.7,193,138.5,193z"/>
	</g>
	<g>
		<path class="st15" d="M133.8,210.7c-0.1,0.1-0.9-1-1.8-2.4c-0.8-1.4-1.4-2.6-1.3-2.7c0.1-0.1,0.9,1,1.8,2.4
			C133.4,209.4,134,210.6,133.8,210.7z"/>
	</g>
	<g>
		<path class="st15" d="M142,205.1c-0.2,0-0.7-1.3-1.1-2.9c-0.5-1.6-0.7-3-0.6-3.1c0.2,0,0.7,1.3,1.1,2.9
			C141.9,203.7,142.1,205.1,142,205.1z"/>
	</g>
	<g>
		<path class="st15" d="M152.6,211.6c0.1,0.2-1.5,0.9-3.3,2c-1.8,1.1-3.2,2.1-3.3,2c-0.1-0.1,1.2-1.4,3-2.5
			C150.9,212,152.6,211.4,152.6,211.6z"/>
	</g>
	<g>
		<path class="st15" d="M155.2,228c-0.1-0.1,0.8-1.4,1.7-3.2c0.9-1.8,1.5-3.3,1.7-3.2c0.1,0-0.2,1.7-1.2,3.5
			C156.5,226.9,155.3,228.1,155.2,228z"/>
	</g>
	<g>
		<path class="st15" d="M147.5,230.3c-0.2,0-0.2-1.8-0.1-4c0.1-2.2,0.4-3.9,0.5-3.9c0.2,0,0.2,1.8,0.1,4
			C147.9,228.6,147.6,230.3,147.5,230.3z"/>
	</g>
	<g>
		<path class="st15" d="M140.1,226c0,0.1-2-0.6-3.7-2.4c-1.8-1.8-2.4-3.7-2.3-3.8c0.2-0.1,1,1.7,2.7,3.4
			C138.4,225,140.1,225.9,140.1,226z"/>
	</g>
	<g>
		<path class="st15" d="M127.1,224.6c-0.2,0,0-1.5,0.4-3.4c0.4-1.8,0.8-3.3,0.9-3.3c0.2,0,0,1.5-0.4,3.4
			C127.7,223.1,127.2,224.6,127.1,224.6z"/>
	</g>
	<g>
		<path class="st15" d="M147.9,239.5c0.1,0.1-0.9,0.9-2,1.9c-1.1,1-1.9,2-2.1,1.9c-0.1-0.1,0.5-1.2,1.7-2.3
			C146.7,239.9,147.9,239.4,147.9,239.5z"/>
	</g>
	<g>
		<path class="st15" d="M132.8,244.8c-0.2,0-0.3-1.7-0.3-3.7c0-2.1,0.1-3.7,0.2-3.7c0.2,0,0.3,1.7,0.3,3.7
			C133.1,243.1,133,244.8,132.8,244.8z"/>
	</g>
	<g>
		<path class="st15" d="M125.7,249.1c0,0.2-1.7-0.1-3.5-0.9c-1.9-0.8-3.2-1.7-3.1-1.8c0.1-0.1,1.5,0.6,3.4,1.3
			C124.3,248.4,125.8,249,125.7,249.1z"/>
	</g>
	<g>
		<path class="st15" d="M121.7,238c-0.2,0-0.5-1.4-0.7-3.3c-0.2-1.8-0.3-3.3-0.2-3.3c0.2,0,0.5,1.4,0.7,3.3
			C121.8,236.5,121.9,238,121.7,238z"/>
	</g>
	<g>
		<path class="st15" d="M134.5,256.3c0,0.2-1.3,0.5-2.9,0.8c-1.6,0.3-3,0.4-3,0.3c0-0.2,1.3-0.5,2.9-0.8
			C133.1,256.3,134.5,256.1,134.5,256.3z"/>
	</g>
	<g>
		<path class="st15" d="M114.7,261.2c-0.2,0-0.4-1.4-0.6-3.2c-0.2-1.8-0.2-3.2,0-3.2c0.2,0,0.4,1.4,0.6,3.2
			C114.8,259.8,114.8,261.2,114.7,261.2z"/>
	</g>
	<g>
		<path class="st15" d="M108,272.8c-0.2,0-0.6-1.4-1-3.2c-0.4-1.8-0.6-3.3-0.5-3.4c0.2,0,0.6,1.4,1,3.2
			C108,271.2,108.2,272.7,108,272.8z"/>
	</g>
	<g>
		<path class="st15" d="M113.6,278.5c0.1,0.1-1.1,0.9-2.5,1.6c-1.5,0.8-2.7,1.3-2.8,1.1c-0.1-0.1,1.1-0.9,2.5-1.6
			C112.3,278.9,113.5,278.4,113.6,278.5z"/>
	</g>
	<g>
		<path class="st15" d="M120.6,276c-0.1,0.1-1.3-1.2-2.3-3c-1-1.9-1.4-3.6-1.2-3.6c0.2,0,0.8,1.5,1.7,3.4
			C119.7,274.5,120.7,275.9,120.6,276z"/>
	</g>
	<g>
		<path class="st15" d="M130,271.9c-0.1,0.1-0.7-1-1.3-2.3c-0.6-1.3-0.9-2.5-0.7-2.5c0.1-0.1,0.7,1,1.3,2.3
			C129.8,270.7,130.1,271.9,130,271.9z"/>
	</g>
	<g>
		<path class="st15" d="M125.3,281.9c0.1,0.1-1.1,1.4-2.7,2.8c-1.6,1.4-3,2.5-3.1,2.3c-0.1-0.1,1.1-1.4,2.7-2.8
			C123.8,282.9,125.2,281.8,125.3,281.9z"/>
	</g>
	<g>
		<path class="st15" d="M138.8,286.4c-0.1,0.1-1.6-1.3-3.1-3.3c-1.5-2.1-2.3-4-2.1-4c0.1-0.1,1.2,1.7,2.6,3.7
			C137.6,284.7,139,286.2,138.8,286.4z"/>
	</g>
	<g>
		<path class="st15" d="M135.4,291.5c0,0.2-1.3,0.4-3,0.5c-1.6,0.1-3,0.1-3-0.1c0-0.2,1.3-0.4,3-0.5
			C134,291.4,135.3,291.4,135.4,291.5z"/>
	</g>
	<g>
		<path class="st15" d="M144.1,270.2c-0.2,0-0.9-2-1.7-4.6c-0.8-2.6-1.3-4.7-1.1-4.8c0.2,0,0.9,2,1.7,4.6
			C143.7,268,144.3,270.2,144.1,270.2z"/>
	</g>
	<g>
		<path class="st15" d="M157.6,265.2c0,0.2-1.6,0.5-3.7,0.8c-2.1,0.3-3.8,0.4-3.8,0.2c0-0.2,1.6-0.5,3.7-0.8
			C155.8,265.1,157.5,265,157.6,265.2z"/>
	</g>
	<g>
		<path class="st15" d="M150.5,279.2c0,0.2-1.1,0.5-2.3,1.1c-1.3,0.6-2.2,1.2-2.3,1.1c-0.1-0.1,0.8-1,2.1-1.6
			C149.3,279.1,150.5,279,150.5,279.2z"/>
	</g>
	<g>
		<path class="st15" d="M156.3,291.5c-0.1,0.1-1.5-1.1-3-2.7c-1.5-1.6-2.7-3-2.6-3.1c0.1-0.1,1.5,1.1,3,2.7
			C155.2,290.1,156.4,291.4,156.3,291.5z"/>
	</g>
	<g>
		<path class="st15" d="M162.9,281.3c-0.2,0,0.1-1.6,0.2-3.4c0.2-1.9,0.2-3.4,0.4-3.4c0.2,0,0.4,1.5,0.2,3.5
			C163.5,279.9,163,281.3,162.9,281.3z"/>
	</g>
	<g>
		<path class="st15" d="M171.7,288.9c0.1,0.1-1.5,1-3.5,1.9c-2,0.9-3.7,1.5-3.7,1.3c-0.1-0.1,1.5-1,3.5-1.9
			C169.9,289.3,171.6,288.7,171.7,288.9z"/>
	</g>
	<g>
		<path class="st15" d="M176.8,273.4c-0.1,0.1-1.2-1.6-2.4-3.7c-1.2-2.1-2-3.9-1.9-4c0.1-0.1,1.2,1.6,2.4,3.7
			C176.1,271.5,176.9,273.3,176.8,273.4z"/>
	</g>
	<g>
		<path class="st15" d="M180.4,279.6c0,0.2-1.6,0.1-3.6,0.3c-2,0.2-3.5,0.6-3.6,0.4c-0.1-0.1,1.5-0.8,3.5-1
			C178.8,279.2,180.4,279.5,180.4,279.6z"/>
	</g>
	<g>
		<path class="st15" d="M193,276.2c-0.2,0.1-1.1-1.5-2.5-3.3c-1.4-1.8-2.7-3-2.6-3.1c0.1-0.1,1.6,1,3.1,2.8
			C192.4,274.4,193.1,276.1,193,276.2z"/>
	</g>
	<g>
		<path class="st15" d="M190,286.7c0.1,0.2-1.1,0.7-2.7,1.3c-1.5,0.6-2.8,0.9-2.9,0.8c-0.1-0.1,1.1-0.7,2.7-1.3
			C188.7,286.9,189.9,286.6,190,286.7z"/>
	</g>
	<g>
		<path class="st15" d="M210.1,292.6c-0.2,0-0.5-1.4-0.7-3.2c-0.2-1.8-0.3-3.2-0.2-3.2c0.2,0,0.5,1.4,0.7,3.2
			C210.1,291.1,210.2,292.6,210.1,292.6z"/>
	</g>
	<g>
		<path class="st15" d="M212.8,280c-0.2,0,0-1.7,0.2-3.8c0.3-2.1,0.7-3.7,0.8-3.7c0.2,0,0,1.7-0.2,3.8
			C213.3,278.4,213,280,212.8,280z"/>
	</g>
	<g>
		<path class="st15" d="M199.4,283.2c0.1,0.1-0.7,2.4-1.9,5.2c-1.2,2.8-2.3,5.1-2.4,5c-0.1-0.1,0.7-2.4,1.9-5.2
			C198.1,285.4,199.2,283.2,199.4,283.2z"/>
	</g>
	<g>
		<path class="st15" d="M163.5,245.3c-0.2,0-0.5-1.7-0.8-3.8c-0.3-2.1-0.4-3.9-0.3-3.9c0.2,0,0.5,1.7,0.8,3.8
			C163.5,243.5,163.6,245.2,163.5,245.3z"/>
	</g>
	<g>
		<path class="st15" d="M164.6,258.3c-0.1,0.1-0.7-0.9-0.9-2.2c-0.2-1.3,0.1-2.3,0.2-2.3c0.2,0,0.2,1,0.3,2.2
			C164.4,257.2,164.7,258.2,164.6,258.3z"/>
	</g>
	<g>
		<path class="st15" d="M167.1,307.8c-0.2,0-0.6-1.1-0.9-2.6c-0.4-1.5-0.5-2.7-0.4-2.7c0.2,0,0.6,1.1,0.9,2.6
			C167.1,306.5,167.3,307.7,167.1,307.8z"/>
	</g>
	<g>
		<path class="st15" d="M182.3,305.4c0,0.2-1.7-0.2-3.7-0.9c-2-0.6-3.6-1.3-3.5-1.5c0-0.2,1.7,0.2,3.7,0.9
			C180.8,304.6,182.3,305.2,182.3,305.4z"/>
	</g>
	<g>
		<path class="st15" d="M195.3,302.9c0.1,0.1-0.8,1-2.1,2c-1.2,1-2.3,1.7-2.4,1.6c-0.1-0.1,0.8-1,2.1-2
			C194.1,303.4,195.2,302.7,195.3,302.9z"/>
	</g>
	<g>
		<path class="st15" d="M208.1,305.8c-0.1,0.1-1.4-0.5-3.1-1.1c-1.7-0.6-3.1-0.9-3.1-1.1c0-0.2,1.5-0.1,3.3,0.5
			C207,304.8,208.2,305.7,208.1,305.8z"/>
	</g>
	<g>
		<path class="st15" d="M223,300.5c0.1,0.1-0.5,1-1.2,2.1c-0.7,1.1-1.2,2.1-1.3,2c-0.1,0,0.1-1.1,0.8-2.3
			C222,301.1,222.9,300.4,223,300.5z"/>
	</g>
	<g>
		<path class="st15" d="M223.4,270.4c-0.2,0-0.5-1.5-0.8-3.5c-0.3-1.9-0.4-3.5-0.2-3.6c0.2,0,0.5,1.5,0.8,3.5
			C223.5,268.8,223.6,270.4,223.4,270.4z"/>
	</g>
	<g>
		<path class="st15" d="M235.8,277c-0.1,0.1-1.3-0.6-2.7-1.6c-1.4-1-2.5-1.9-2.4-2.1c0.1-0.1,1.3,0.6,2.7,1.6
			C234.9,276,235.9,276.9,235.8,277z"/>
	</g>
	<g>
		<path class="st15" d="M249.1,257.6c-0.2-0.1,0.4-2,1.2-4.3c0.8-2.3,1.6-4.2,1.7-4.2c0.2,0.1-0.4,2-1.2,4.3
			C250,255.8,249.2,257.7,249.1,257.6z"/>
	</g>
	<g>
		<path class="st15" d="M241.4,256.4c-0.1,0.1-1.3-0.7-2.7-1.8c-1.4-1.1-2.4-2.1-2.3-2.2c0.1-0.1,1.3,0.7,2.7,1.8
			C240.4,255.2,241.5,256.2,241.4,256.4z"/>
	</g>
	<g>
		<path class="st15" d="M245.3,241.2c0.1,0.1-0.3,1.4-1,2.9c-0.7,1.5-1.4,2.7-1.5,2.7c-0.1-0.1,0.3-1.4,1-2.9
			C244.4,242.3,245.1,241.1,245.3,241.2z"/>
	</g>
	<g>
		<path class="st15" d="M230.5,255.1c-0.1,0.1-1-1-1.6-2.6c-0.7-1.6-0.9-2.9-0.7-3c0.2,0,0.6,1.2,1.3,2.7
			C230.1,253.8,230.6,255,230.5,255.1z"/>
	</g>
	<g>
		<path class="st15" d="M242,226.7c0.1,0.1-0.5,1.3-1.7,2.5c-1.2,1.2-2.5,1.7-2.6,1.6c-0.1-0.1,1-0.9,2.2-2
			C241.1,227.6,241.9,226.6,242,226.7z"/>
	</g>
	<g>
		<path class="st15" d="M229.7,228.6c-0.1,0.1-1-0.9-1.8-2.2c-0.9-1.3-1.5-2.4-1.4-2.5c0.1-0.1,1,0.9,1.8,2.2
			C229.2,227.4,229.8,228.5,229.7,228.6z"/>
	</g>
	<g>
		<path class="st15" d="M241.6,217.3c-0.1,0.1-1.2-0.4-2.6-1.2c-1.4-0.8-2.4-1.6-2.3-1.7c0.1-0.1,1.2,0.4,2.6,1.2
			C240.7,216.4,241.7,217.2,241.6,217.3z"/>
	</g>
	<g>
		<path class="st15" d="M249.8,227.8c-0.2,0-0.2-2,0-4.5c0.1-2.5,0.4-4.5,0.6-4.5c0.2,0,0.2,2,0,4.5
			C250.2,225.8,249.9,227.8,249.8,227.8z"/>
	</g>
	<g>
		<path class="st15" d="M243.4,274.2c-0.1-0.1,0.4-1.8,1.1-3.8c0.8-2.1,1.5-3.7,1.7-3.6c0.1,0.1-0.4,1.8-1.1,3.8
			C244.3,272.7,243.6,274.3,243.4,274.2z"/>
	</g>
	<g>
		<path class="st15" d="M254.8,275.5c-0.2,0,0.1-1.7,0.6-3.7c0.5-2,1-3.6,1.2-3.6c0.2,0-0.1,1.7-0.6,3.7
			C255.5,274,255,275.6,254.8,275.5z"/>
	</g>
	<g>
		<path class="st15" d="M237.6,305.4c-0.1,0.1-1.1-1-1.7-2.6c-0.6-1.7-0.5-3.1-0.3-3.1c0.2,0,0.3,1.4,0.9,2.9
			C237,304.1,237.7,305.3,237.6,305.4z"/>
	</g>
	<g>
		<path class="st15" d="M271.4,215.4c-0.2,0-0.5-1.7-0.5-3.9c0.1-2.2,0.6-3.9,0.7-3.8c0.2,0-0.1,1.7-0.1,3.8
			C271.5,213.6,271.6,215.4,271.4,215.4z"/>
	</g>
	<g>
		<path class="st15" d="M264.6,207.7c0,0.2-1.3-0.1-2.8-0.5c-1.5-0.4-2.7-0.9-2.7-1c0-0.2,1.3,0.1,2.8,0.5
			C263.5,207.1,264.7,207.6,264.6,207.7z"/>
	</g>
	<g>
		<path class="st15" d="M265.9,197.5c-0.2,0-0.3-1.8-0.2-4.1c0-2.2,0.2-4.1,0.4-4c0.2,0,0.3,1.8,0.2,4.1
			C266.2,195.6,266,197.5,265.9,197.5z"/>
	</g>
	<g>
		<path class="st15" d="M260.1,192.4c0,0.2-1.5,0.2-3.2,0c-1.8-0.1-3.2-0.4-3.2-0.6c0-0.2,1.5-0.2,3.2,0
			C258.7,191.9,260.2,192.2,260.1,192.4z"/>
	</g>
	<g>
		<path class="st15" d="M255.5,181.5c-0.2,0-0.4-1.3-0.5-2.9c-0.1-1.6-0.1-2.9,0.1-2.9c0.2,0,0.4,1.3,0.5,2.9
			C255.7,180.1,255.6,181.4,255.5,181.5z"/>
	</g>
	<g>
		<path class="st15" d="M264,233.1c-0.1,0.1-1.1-1-2.3-2.5c-1.1-1.5-1.9-2.7-1.8-2.8c0.1-0.1,1.1,1,2.3,2.5
			C263.4,231.7,264.2,233,264,233.1z"/>
	</g>
	<g>
		<path class="st15" d="M269.3,241c-0.2,0-0.2-1.5,0-3.3c0.2-1.8,0.4-3.3,0.6-3.3c0.2,0,0.2,1.5,0,3.3
			C269.7,239.5,269.5,241,269.3,241z"/>
	</g>
	<g>
		<path class="st15" d="M278.3,246.1c0,0.2-1.2,0.4-2.6,0.6c-1.5,0.2-2.7,0.2-2.7,0c0-0.2,1.2-0.4,2.6-0.6
			C277.1,246,278.3,246,278.3,246.1z"/>
	</g>
	<g>
		<path class="st15" d="M282.5,252.5c0.2,0.1-0.1,1.2-0.6,2.7c-0.5,1.4-1,2.5-1.1,2.5c-0.2-0.1,0.1-1.2,0.6-2.7
			C281.9,253.5,282.4,252.4,282.5,252.5z"/>
	</g>
	<g>
		<path class="st15" d="M289.4,262.1c0.1,0.1-0.4,1-0.7,2.2c-0.2,1.2-0.1,2.2-0.2,2.3c-0.1,0.1-0.6-1-0.3-2.4
			C288.4,262.8,289.3,262,289.4,262.1z"/>
	</g>
	<g>
		<path class="st15" d="M292,246.3c0,0.2-1.6,0.1-3.5,0.3c-1.9,0.2-3.5,0.5-3.5,0.3c0-0.1,1.5-0.8,3.5-0.9
			C290.4,245.8,292,246.2,292,246.3z"/>
	</g>
	<g>
		<path class="st15" d="M299.4,243.5c0.2,0-0.2,1.6-0.4,3.5c-0.2,1.9-0.2,3.5-0.3,3.5c-0.2,0-0.5-1.6-0.2-3.6
			C298.7,245,299.3,243.5,299.4,243.5z"/>
	</g>
	<g>
		<path class="st15" d="M281.4,230.9c-0.2,0-0.1-2,0.1-4.4c0.2-2.4,0.5-4.4,0.7-4.3c0.2,0,0.1,2-0.1,4.4
			C281.9,229,281.6,231,281.4,230.9z"/>
	</g>
	<g>
		<path class="st15" d="M277.2,223c0,0.2-1.3,0-2.9-0.3c-1.6-0.3-2.8-0.7-2.8-0.8c0-0.2,1.3,0,2.9,0.3
			C276,222.4,277.2,222.8,277.2,223z"/>
	</g>
	<g>
		<path class="st15" d="M280.9,211.1c-0.1,0-0.8-1.6-0.9-3.7c-0.1-2.1,0.3-3.8,0.4-3.8c0.2,0,0,1.7,0.2,3.7
			C280.7,209.4,281,211.1,280.9,211.1z"/>
	</g>
	<g>
		<path class="st15" d="M275.7,199.4c0,0.2-0.8,0.2-1.7,0.1c-0.9-0.1-1.7-0.3-1.7-0.5s0.8-0.2,1.7-0.1
			C275,199,275.8,199.2,275.7,199.4z"/>
	</g>
	<g>
		<path class="st15" d="M291.1,220.9c0,0.1-1.2,0-2.5-0.8c-1.3-0.7-2.1-1.7-1.9-1.8c0.1-0.1,1,0.6,2.2,1.3
			C290.1,220.4,291.1,220.8,291.1,220.9z"/>
	</g>
	<g>
		<path class="st15" d="M296.7,232.9c0.1,0.1-1.1,0.9-2.6,1.7c-1.5,0.8-2.8,1.3-2.9,1.2c-0.1-0.1,1.1-0.9,2.6-1.7
			C295.3,233.3,296.6,232.8,296.7,232.9z"/>
	</g>
	<polygon class="st14" points="190.2,151.5 191,142.1 209.8,156.7 214.5,164.3 222.9,144.7 224.9,147.4 224.9,159.3 215.9,170.4 
		198.7,168.9 	"/>
	<g>
		<path class="st16" d="M209,157.9c0,0,0,0.4,0,1.1c-0.1,0.8-0.1,1.9-0.2,3.2c-0.2,2.8-0.6,6.6-0.9,11l-0.1,0.7l-0.4-0.5
			c-1.3-1.6-2.7-3.3-4.2-5.1c-3.8-4.7-7.3-8.9-9.8-12c-1.2-1.5-2.2-2.7-2.9-3.7c-0.7-0.9-1-1.4-1-1.4c0,0,0.5,0.4,1.2,1.3
			c0.8,0.9,1.8,2.1,3.1,3.6c2.6,3,6.1,7.2,9.9,11.9c1.5,1.8,2.9,3.5,4.1,5.1l-0.5,0.2c0.4-4.4,0.8-8.2,1.1-11
			c0.2-1.3,0.3-2.3,0.4-3.2C208.9,158.3,209,157.9,209,157.9z"/>
	</g>
	<g>
		<path class="st16" d="M224.7,158.8c0.1,0,0,0.7-0.1,1.9c-0.1,1.2-0.3,2.9-0.6,4.8l-0.2,1.2l-0.4-1.2c-0.3-1-0.7-2.2-1-3.4
			c-0.7-2.7-1.1-5.3-1.3-7.1c-0.2-1.8-0.3-3-0.2-3c0.1,0,0.3,1.1,0.6,2.9c0.3,1.8,0.8,4.3,1.5,7c0.3,1.2,0.6,2.3,0.9,3.3l-0.5,0
			c0.3-1.9,0.6-3.6,0.8-4.8C224.5,159.5,224.6,158.8,224.7,158.8z"/>
	</g>
	<g>
		<path class="st16" d="M223.5,223c0,0-0.1-0.2-0.1-0.6c-0.1-0.5-0.2-1-0.3-1.7c-0.3-1.6-0.6-3.7-1-6.3c-0.8-5.4-1.9-12.8-3.1-20.9
			c-1.2-8.1-2.3-15.5-3.1-20.9c-0.4-2.6-0.7-4.8-1-6.3c-0.1-0.7-0.2-1.3-0.2-1.7c-0.1-0.4-0.1-0.6,0-0.6c0,0,0.1,0.2,0.2,0.6
			c0.1,0.5,0.2,1,0.4,1.7c0.3,1.5,0.7,3.6,1.1,6.3c0.9,5.3,2.1,12.7,3.3,20.9c1.2,8.2,2.2,15.6,2.9,21c0.3,2.6,0.6,4.8,0.8,6.4
			c0.1,0.7,0.1,1.3,0.2,1.7C223.5,222.8,223.5,223,223.5,223z"/>
	</g>
	<g>
		<path class="st16" d="M206.4,166.8c0.1,0.1-0.1,0.5-0.3,0.8c-0.2,0.4-0.4,0.7-0.5,0.7c-0.2,0-0.3-0.5,0-1
			C205.8,166.8,206.3,166.6,206.4,166.8z"/>
	</g>
	<g>
		<path class="st16" d="M223.6,160.5c-0.2,0-0.3-0.4-0.3-1c0-0.5,0.2-1,0.3-1c0.2,0,0.3,0.4,0.3,1
			C223.9,160.1,223.8,160.5,223.6,160.5z"/>
	</g>
	<g>
		<path class="st16" d="M221.1,152.7c0.1,0-0.8,2.9-2.6,6c-1.8,3.1-3.8,5.3-4,5.2c-0.1-0.1,1.7-2.4,3.5-5.5
			C219.8,155.3,220.9,152.7,221.1,152.7z"/>
	</g>
	<g>
		<path class="st16" d="M214.9,164.6c-0.1,0.1-1.6-1.1-3.3-2.9c-1.7-1.7-2.8-3.3-2.7-3.4c0.1-0.1,1.5,1.3,3.1,3
			C213.7,163.1,215,164.5,214.9,164.6z"/>
	</g>
	<g>
		<path class="st16" d="M219.8,181.8c-0.1,0.1-0.5-0.2-0.5-0.7c-0.1-0.4-0.1-0.7,0.1-0.8c0.1-0.1,0.4,0.3,0.5,0.7
			C219.9,181.4,219.9,181.7,219.8,181.8z"/>
	</g>
	<g>
		<path class="st16" d="M221.5,193c-0.2,0-0.3-0.3-0.3-0.7c-0.1-0.4,0-0.8,0.2-0.8c0.2,0,0.3,0.3,0.4,0.7
			C221.8,192.7,221.7,193,221.5,193z"/>
	</g>
	<g>
		<path class="st17" d="M216.3,110c0.1,0,0.2,0.4,0.8,0.8c0.6,0.4,1.9,0.5,2.8-0.5c0.5-0.5,0.8-1.1,1-1.8c0.2-0.7,0.2-1.6,0.2-2.5
			c-0.1-1.8-0.3-3.8-0.4-5.9c-0.3-4.2-0.5-8-0.6-10.7c-0.1-1.4-0.1-2.5-0.1-3.3c0-0.8,0-1.2,0-1.2c0,0,0.1,0.4,0.2,1.2
			c0.1,0.8,0.2,1.9,0.3,3.2c0.2,2.7,0.5,6.5,0.8,10.7c0.1,2.1,0.2,4.1,0.3,5.9c0,0.9,0,1.8-0.2,2.6c-0.2,0.8-0.7,1.5-1.2,2
			c-0.5,0.5-1.2,0.8-1.8,0.8c-0.6,0-1.1-0.2-1.4-0.4C216.3,110.5,216.3,110,216.3,110z"/>
	</g>
	<g>
		<path class="st17" d="M219.4,117.4c0,0.1-0.7,0.5-2,0.8c-1.3,0.3-3.3,0.2-5.2-0.9c-1.8-1.1-2.9-2.8-3.3-4.1
			c-0.4-1.3-0.4-2.2-0.3-2.2c0.1,0,0.2,0.8,0.7,2c0.5,1.2,1.5,2.7,3.2,3.7c1.7,1,3.5,1.1,4.8,1C218.6,117.7,219.4,117.3,219.4,117.4
			z"/>
	</g>
	<g>
		<path class="st17" d="M209.9,110.7c0,0.2-1,0-1.9,0.5c-1,0.5-1.3,1.4-1.5,1.4c-0.1,0-0.1-0.3,0.1-0.7c0.2-0.4,0.5-0.9,1.1-1.2
			c0.6-0.3,1.2-0.4,1.6-0.3C209.7,110.4,209.9,110.6,209.9,110.7z"/>
	</g>
	<g>
		<path class="st17" d="M224,135.8c0,0-0.4,0.3-1.2,0.7c-0.8,0.4-1.9,0.9-3.4,1.4c-2.9,1-7.3,1.8-12.1,1.1
			c-4.8-0.7-8.8-2.6-11.3-4.4c-1.3-0.9-2.2-1.7-2.9-2.3c-0.6-0.6-0.9-1-0.9-1c0.1-0.1,1.4,1.3,4,3c2.6,1.7,6.5,3.5,11.2,4.2
			c4.7,0.7,9,0,11.9-0.9C222.3,136.7,224,135.7,224,135.8z"/>
	</g>
	<g>
		<path class="st17" d="M180.3,110.3c-0.1-0.1,0.8-0.4,1.2-1.6c0.2-0.6,0.2-1.4-0.1-2.1c-0.3-0.7-1-1.4-1.9-1.2
			c-0.8,0.1-1.2,1-0.9,1.6l-0.5,0.2c-0.4-2.7-0.7-4.5-0.6-4.6c0.1,0,0.6,1.8,1.1,4.5l0.3,1.5l-0.8-1.3c-0.6-0.9,0.1-2.3,1.3-2.4
			c0.6-0.1,1.2,0.1,1.6,0.4c0.4,0.3,0.7,0.8,0.9,1.2c0.3,0.9,0.2,1.8-0.1,2.4c-0.3,0.6-0.7,1.1-1,1.3
			C180.6,110.3,180.3,110.4,180.3,110.3z"/>
	</g>
	<g>
		<path class="st8" d="M206.8,94.2c-0.3,0-0.6-1.3-0.6-2.8c0-1.6,0.2-2.8,0.6-2.8c0.3,0,0.6,1.3,0.6,2.8
			C207.4,92.9,207.1,94.2,206.8,94.2z"/>
	</g>
	<g>
		<path class="st8" d="M231,93c-0.3,0-0.6-1.1-0.6-2.4c0-1.3,0.2-2.4,0.5-2.4c0.3,0,0.6,1,0.6,2.4C231.5,91.9,231.3,93,231,93z"/>
	</g>
	<path class="st2" d="M184.4,97.3c-0.6,1.9-1.3,4.1-0.5,5.9c0.8,1.9,3.7,2.8,4.8,1.1c0.4-0.7,0.5-1.5,0.5-2.3
		c0-5.4,0.1-10.9,0.1-16.3c7.8-1.4,14.6-7.6,16.6-15.4c4.2,2.5,9.6,2.7,13.9,0.5c1.8-0.9,3.6-2.3,5.5-2c2.4,0.3,3.8,2.8,5.8,4.2
		c3.4,2.4,8.9,0.9,10.6-2.9c1.8-4-0.6-8.8-4.3-11.1c-4.7-2.8-10.5-2.3-16-1.6c-10,1.2-20,2.4-30,3.5c-1.9,0.2-3.9,0.5-5.5,1.7
		c-1.6,1.2-2.3,3.2-2.8,5.1c-2.2,7.5-3.3,15.4-3,23.2c0.1,2.4,0.5,5.2,2.6,6.4"/>
	<g>
		<path class="st2" d="M210.1,82.9c0.2,0.8-1.6,1.8-3.8,2.2c-2.3,0.4-4.2,0.1-4.4-0.6c-0.2-0.8,1.6-1.8,3.8-2.2
			C208,81.8,209.9,82.1,210.1,82.9z"/>
	</g>
	<g>
		<path class="st2" d="M233.9,82.6c-0.1,0.8-1.5,1.3-3.3,1.2c-1.8-0.1-3.2-0.9-3.1-1.7c0.1-0.8,1.5-1.3,3.3-1.2
			C232.5,81,233.9,81.8,233.9,82.6z"/>
	</g>
	<g class="st18">
		<path class="st19" d="M208.4,79.9c5.9,0.5,10.3,5.8,9.8,11.7c-0.5,5.9-5.8,10.3-11.7,9.8c-5.9-0.5-10.3-5.8-9.8-11.7
			C197.2,83.7,202.5,79.4,208.4,79.9z"/>
	</g>
	<g class="st18">
		<path class="st19" d="M234.9,78.9c5.9,0.5,10.3,5.8,9.8,11.7c-0.5,5.9-5.8,10.3-11.7,9.8c-5.9-0.5-10.3-5.8-9.8-11.7
			C223.7,82.7,228.9,78.4,234.9,78.9z"/>
	</g>
	<g>
		<path class="st20" d="M222.8,91.7c0,0.2-1.1,0.3-2.5,0.3c-1.4,0-2.5-0.1-2.5-0.3s1.1-0.3,2.5-0.3
			C221.7,91.4,222.8,91.5,222.8,91.7z"/>
	</g>
	<g>
		<path class="st17" d="M260.4,308.9c-0.1,0-1-1-2.3-2.8c-1.3-1.8-3.1-4.3-5-7.1c-1.8-2.9-3.4-5.5-4.4-7.5c-1.1-2-1.6-3.2-1.6-3.2
			c0.1,0,0.8,1.1,1.9,3c1.1,1.9,2.7,4.5,4.6,7.4c1.8,2.8,3.6,5.4,4.8,7.2C259.7,307.7,260.5,308.8,260.4,308.9z"/>
	</g>
	<g>
		<path class="st17" d="M258.6,308.7c0,0-0.3,0-0.8-0.1c-0.5-0.1-1.3-0.4-2.2-0.8c-1.8-0.9-3.8-2.8-5.6-5.1
			c-1.9-2.3-3.5-4.3-4.7-5.9c-1.2-1.5-1.9-2.5-1.8-2.5c0.1-0.1,0.9,0.8,2.1,2.3c1.3,1.5,3,3.5,4.8,5.8c1.8,2.3,3.7,4.1,5.4,5.1
			C257.4,308.5,258.6,308.6,258.6,308.7z"/>
	</g>
	<polyline class="st3" points="278.5,315.6 307.6,242.4 405.2,244.2 377.7,313.5 278.5,315.6 	"/>
	<polygon class="st21" points="312.1,242.5 282.3,315.6 377.7,313.5 405.2,244.2 	"/>
	
		<ellipse transform="matrix(0.7071 -0.7071 0.7071 0.7071 -95.3984 327.199)" class="st22" cx="347.2" cy="278.7" rx="6.6" ry="5.4"/>
	<path class="st23" d="M341.5,273c4.1-4.1,10.1-4.7,13.4-1.4c3.3,3.3,2.7,9.3-1.4,13.4c-4.1,4.1-10.1,4.7-13.4,1.4
		C336.8,283.1,337.4,277.1,341.5,273z"/>
	<g class="st0">
		<path class="st1" d="M101.2,56.9c15.8-6.2,35.9,2,42.7,17.6c6.8,15.6-0.8,35.9-16.1,43.3s-35.9,0.5-43.8-14.5s-1.8-35.9,13-44.3"
			/>
	</g>
</g>
<g>
	<g>
		<path class="st24" d="M338,202c0.4-3,0.3-6,2.3-8.4c2.4-2.9,6.2-3.5,9.5-2c4.7,2.2,8.4,4.9,13.8,3.4c8.3-2.3,14-15.1,5.7-20.7
			c-1.7-1.2-4.7,0.4-4.4,2.5c0.4,2.9,1.9,5.7,0.3,8.5c-2,3.5-5.7,3.5-9,1.9c-4.4-2.1-8.1-4-13.1-2.6c-7.4,1.9-13.9,11.9-7.9,18.6
			C336.3,204.3,337.9,203.3,338,202L338,202z"/>
	</g>
</g>
<g>
	<g>
		<path class="st25" d="M353.8,88.2c0.2,3.2,1.9,6.1,3.7,8.7c1.2,1.8,2.6,4.3,4.8,5c2.3,0.8,4-0.3,5.8-1.6c3.4-2.3,6.7-4.6,10-7
			c1.4-1,2.2-2.8,1.2-4.4c-2.7-4.2-5.5-8.4-8.2-12.7c-0.9-1.4-2.9-2.2-4.4-1.2c-3.4,2.4-7.3,4.7-10.3,7.6c-2.5,2.5,0.7,6.2,3.6,4.7
			c3.5-1.8,6.7-4.5,9.9-6.7c-1.5-0.4-2.9-0.8-4.4-1.2c2.7,4.2,5.5,8.4,8.2,12.7c0.4-1.5,0.8-2.9,1.2-4.4c-1.9,1.3-3.7,2.6-5.6,4
			c-0.8,0.6-4.9,4.1-5.4,4c-0.6-0.1-3-3.8-3.6-4.5c-1.4-1.6-2.6-3.1-4.5-4.1C354.9,86.7,353.8,87.3,353.8,88.2L353.8,88.2z"/>
	</g>
</g>
<g>
	<g>
		<path class="st26" d="M315.1,127.7c-4.5,4.3-6.3,10.8-2,16c4,4.9,11.7,5.9,16.8,2.1c12-9.1-0.4-27.1-13.4-23
			c-2.8,0.9-2.1,4.7,0.7,5c3.6,0.3,7.4,0.3,10.3,2.8c3,2.6,3.1,7.1,0.6,10.1c-6.5,8-17.8-4-11.1-11.1
			C317.9,128.3,316.2,126.6,315.1,127.7L315.1,127.7z"/>
	</g>
</g>
<g>
	<g>
		<path class="st27" d="M396.1,149.5c1.9-7.5,3.3-15.8,3.6-23.5c0.1-2.9-4.6-3.7-5.2-0.7c-1.5,7.6-2,16-1.9,23.8
			C392.6,151,395.6,151.5,396.1,149.5L396.1,149.5z"/>
	</g>
</g>
<g>
	<g>
		<path class="st27" d="M423.3,117.7c-0.2-0.6-0.4-1.2-0.9-1.6c-0.3-0.3-0.6-0.5-1-0.7c-1.2-0.7-2.9-0.6-3.9,0.5
			c-1,1.1-1.2,2.6-0.5,3.9c0.2,0.3,0.4,0.7,0.7,1c0.5,0.4,1,0.7,1.6,0.9c1,0.4,2.4-0.1,3.2-0.8C423.2,120.1,423.7,118.7,423.3,117.7
			L423.3,117.7z"/>
	</g>
</g>
</svg>
